<?xml version="1.0" encoding="utf-8"?>
<!-- Generator: Adobe Illustrator 21.1.0, SVG Export Plug-In . SVG Version: 6.00 Build 0)  -->
<svg version="1.1" id="Layer_1" xmlns="http://www.w3.org/2000/svg" xmlns:xlink="http://www.w3.org/1999/xlink" x="0px" y="0px"
	 viewBox="0 0 165 165" style="enable-background:new 0 0 165 165;" xml:space="preserve">
<style type="text/css">
	.st0{fill:#E3EFD5;}
	.st1{fill:#FFFFFF;stroke:#81B441;stroke-width:3.6;stroke-linejoin:round;stroke-miterlimit:10;}
	.st2{fill:none;stroke:#E0EDD2;stroke-width:3.2676;stroke-linecap:round;stroke-miterlimit:10;}
	.st3{fill:#E0EDD2;}
	.st4{fill:#81B441;}
</style>
<circle class="st0" cx="81.6" cy="82.6" r="74.5"/>
<path class="st1" d="M131.4,72.7h-59c-0.3,0-0.6,0.3-0.6,0.6v40.9c0,0.3,0.3,0.6,0.6,0.6h9.7v11.8l11.8-11.8h37.5
	c0.3,0,0.6-0.3,0.6-0.6V73.3C132,73,131.7,72.7,131.4,72.7z"/>
<line class="st2" x1="123.5" y1="90.3" x2="101.3" y2="90.3"/>
<line class="st2" x1="123.5" y1="82.7" x2="101.3" y2="82.7"/>
<line class="st2" x1="123.5" y1="97.8" x2="90.2" y2="97.8"/>
<line class="st2" x1="123.5" y1="105.3" x2="90.2" y2="105.3"/>
<path class="st1" d="M32.6,46.9h59c0.3,0,0.6,0.3,0.6,0.6v40.9c0,0.3-0.3,0.6-0.6,0.6h-9.7v11.8L70,89H32.6c-0.3,0-0.6-0.3-0.6-0.6
	V47.5C32,47.2,32.2,46.9,32.6,46.9z"/>
<path class="st3" d="M72.2,59.6c-0.6-0.5-2.6-0.6-5.1-0.3c-4.5,2-8.7,5.5-10.2,12c-0.1,0.2-0.4-0.1-0.5-0.2
	c-0.7-2.3-0.7-4.6,0.8-7.6c0.2-0.2-0.3-0.7-0.4-0.6c-0.2,0.1-1.2,0.9-2,1.8C51.2,69,51.9,75.5,56.2,79c4.4,3.6,10.7,2.9,14.3-1.4
	C74.7,72.5,73.8,60.9,72.2,59.6z"/>
<g>
	<path class="st4" d="M66.6,57.9c1.2,0,2,0.2,2.3,0.4c1.4,1.2,2.2,11.3-1.4,15.8c-1.8,2.1-4.3,3.2-6.8,3.2c-2,0-4-0.7-5.6-2
		c-3.7-3.1-4.4-8.7-1.2-12.5c0.7-0.8,1.6-1.5,1.7-1.6c0,0,0,0,0.1,0c0.1,0,0.5,0.4,0.3,0.5c-1.3,2.6-1.3,4.6-0.7,6.6
		c0,0.1,0.2,0.2,0.3,0.2c0,0,0.1,0,0.1,0c1.3-5.7,4.9-8.7,8.9-10.5C65.3,57.9,66,57.9,66.6,57.9 M66.6,55.1c-0.8,0-1.6,0.1-2.4,0.2
		c-0.3,0-0.5,0.1-0.8,0.2c-2.2,1-4.1,2.3-5.7,3.8c-0.5-0.5-1.2-0.8-2.1-0.8c-0.6,0-1.2,0.2-1.7,0.6c-0.4,0.3-1.4,1.1-2.2,2
		c-2,2.3-2.9,5.3-2.7,8.4c0.3,3.1,1.8,6,4.2,8c2.1,1.7,4.7,2.7,7.4,2.7c3.5,0,6.8-1.5,9-4.2c3-3.7,3.6-9.9,3.2-14.1
		c-0.4-3.8-1.4-5-2.1-5.6c0,0-0.1,0-0.1-0.1C70,55.6,69,55.1,66.6,55.1L66.6,55.1z"/>
</g>
</svg>
