<?xml version="1.0" encoding="utf-8"?>
<!-- Generator: Adobe Illustrator 19.2.1, SVG Export Plug-In . SVG Version: 6.00 Build 0)  -->
<svg version="1.0" id="Layer_1" xmlns="http://www.w3.org/2000/svg" xmlns:xlink="http://www.w3.org/1999/xlink" x="0px" y="0px"
	 viewBox="0 0 165 165" enable-background="new 0 0 165 165" xml:space="preserve">
<circle fill="#E3EFD5" cx="82.1" cy="82" r="74.5"/>
<polygon fill="#FFFFFF" points="51.5,43.7 51.5,54.8 37.7,54.8 37.7,119.5 119,119.5 119,108.7 130,108.7 130,43.7 "/>
<rect x="35.7" y="54.7" fill="none" stroke="#81B441" stroke-width="4" stroke-linejoin="round" stroke-miterlimit="10" width="83.3" height="64.8"/>
<polyline fill="none" stroke="#81B441" stroke-width="4" stroke-linejoin="round" stroke-miterlimit="10" points="51.1,53.1 
	51.1,42.4 131.3,42.4 131.3,108.7 120.6,108.7 "/>
<line fill="none" stroke="#81B441" stroke-width="4" stroke-miterlimit="10" x1="35.7" y1="67.1" x2="119" y2="67.1"/>
<path fill="none" stroke="#81B441" stroke-width="4" stroke-miterlimit="10" d="M50.4,65.9"/>
<path fill="none" stroke="#81B441" stroke-width="4" stroke-miterlimit="10" d="M50.4,54.4"/>
<path opacity="0.22" fill="#81B441" d="M92.3,82c-0.8-0.6-3.4-0.8-6.6-0.4c-5.9,2.7-11.4,7.2-13.3,15.7c-0.1,0.2-0.5-0.1-0.6-0.2
	c-0.9-3-1-6,1-9.9c0.3-0.3-0.4-1-0.5-0.8c-0.3,0.2-1.6,1.2-2.6,2.4c-4.8,5.6-3.8,14.1,1.8,18.7c5.7,4.7,14.1,3.8,18.7-1.8
	C95.6,98.9,94.4,83.7,92.3,82z"/>
<g>
	<path fill="#81B441" d="M84.4,79.2c1.5,0,2.6,0.2,3.1,0.5c1.9,1.5,2.9,14.8-1.9,20.6c-2.3,2.8-5.6,4.2-8.9,4.2
		c-2.6,0-5.2-0.9-7.4-2.6c-4.9-4.1-5.7-11.4-1.6-16.3c0.9-1,2-1.9,2.3-2.1c0,0,0,0,0.1,0c0.2,0,0.6,0.5,0.4,0.7
		c-1.7,3.4-1.7,6-0.9,8.6c0.1,0.1,0.3,0.3,0.4,0.3c0,0,0.1,0,0.1-0.1c1.6-7.4,6.4-11.4,11.6-13.7C82.7,79.3,83.6,79.2,84.4,79.2
		 M84.4,75.2c-1,0-2.1,0.1-3.2,0.2c-0.4,0.1-0.8,0.2-1.1,0.3c-2.9,1.3-5.3,2.9-7.3,4.8c-0.7-0.6-1.6-1-2.7-1c0,0,0,0,0,0
		c-0.9,0-1.8,0.3-2.5,0.8c-0.6,0.4-1.8,1.4-2.9,2.6c-2.7,3.1-3.9,7.1-3.6,11.2c0.4,4.2,2.4,8.1,5.6,10.7c2.8,2.3,6.3,3.6,9.9,3.6
		c4.7,0,9-2.1,12-5.7c2.6-3.2,5.1-9.8,4.2-18.7c-0.5-5.1-1.9-6.8-2.9-7.6c0,0-0.1-0.1-0.1-0.1C89.1,76,87.7,75.2,84.4,75.2
		L84.4,75.2z"/>
</g>
</svg>
