<?xml version="1.0" encoding="utf-8"?>
<!-- Generator: Adobe Illustrator 21.1.0, SVG Export Plug-In . SVG Version: 6.00 Build 0)  -->
<svg version="1.1" id="Layer_1" xmlns="http://www.w3.org/2000/svg" xmlns:xlink="http://www.w3.org/1999/xlink" x="0px" y="0px"
	 viewBox="0 0 116.6 18.2" style="enable-background:new 0 0 116.6 18.2;" xml:space="preserve">
<style type="text/css">
	.st0{fill:#FFFFFF;}
</style>
<title>CompAnalystButton</title>
<g id="Layer_2">
	<g id="Layer_1-2">
		<path class="st0" d="M6.2,1.1C7.6,1.1,9,1.7,10,2.7L8.4,4.5c-0.6-0.6-1.3-1-2.2-1C4.4,3.6,3,5.1,3,7.7s1.2,4.2,3.1,4.2
			c1,0,1.9-0.4,2.5-1.1l1.6,1.8c-1,1.2-2.5,1.9-4.1,1.9C2.7,14.5,0,12.2,0,7.8S2.8,1.1,6.2,1.1z"/>
		<path class="st0" d="M15.7,4.2c2.7,0,4.8,2.2,4.8,4.8c0,0.1,0,0.2,0,0.3c0.2,2.6-1.8,5-4.4,5.2s-5-1.8-5.2-4.4c0-0.3,0-0.5,0-0.8
			c-0.2-2.7,1.8-5,4.5-5.1C15.5,4.2,15.6,4.2,15.7,4.2z M15.7,12.1c1.2,0,1.8-1.1,1.8-2.8s-0.6-2.8-1.8-2.8s-1.8,1.1-1.8,2.8
			S14.5,12.1,15.7,12.1z"/>
		<path class="st0" d="M22.1,4.4h2.4l0.2,1.3h0.1c0.7-0.9,1.8-1.5,3-1.5c1.2-0.1,2.3,0.6,2.7,1.7c0.7-1,1.9-1.6,3.1-1.7
			c2.1,0,3.1,1.5,3.1,4v6.1h-2.9V8.5c0-1.4-0.4-1.9-1.2-1.9c-0.7,0.1-1.3,0.5-1.7,1v6.6h-2.9V8.5c0-1.4-0.4-1.9-1.2-1.9
			c-0.7,0.1-1.3,0.5-1.7,1v6.6h-2.9V4.4z"/>
		<path class="st0" d="M41.7,15v2.9h-2.9V4.4h2.4l0.2,1h0.1c0.8-0.7,1.8-1.2,2.8-1.2c2.4,0,3.8,2,3.8,5c0,3.4-2,5.3-4.1,5.3
			c-0.9,0-1.7-0.4-2.3-1L41.7,15z M43.2,12.1c1,0,1.8-0.9,1.8-2.9c0-1.8-0.5-2.7-1.7-2.7c-0.7,0-1.3,0.4-1.7,0.9v4
			C42.1,11.8,42.7,12.1,43.2,12.1L43.2,12.1z"/>
		<path class="st0" d="M56.5,10.7h-4.3l-1,3.5h-2.4l4.2-13h2.7l4.2,13h-2.5L56.5,10.7z M55.9,8.9l-0.5-1.6C55.1,6,54.7,4.5,54.3,3
			h-0.1c-0.4,1.4-0.7,2.9-1.2,4.3l-0.5,1.6L55.9,8.9z"/>
		<path class="st0" d="M61.3,4.5h1.9l0.2,1.3h0.1c0.8-0.9,2-1.5,3.2-1.6c2.1,0,3,1.4,3,3.9v6.1h-2.3V8.4c0-1.6-0.5-2.2-1.5-2.2
			c-0.9,0.1-1.7,0.5-2.2,1.2v6.8h-2.3V4.5z"/>
		<path class="st0" d="M77,8c0-1-0.5-1.9-1.8-1.9c-1,0.1-1.9,0.4-2.7,1l-0.8-1.5c1.2-0.8,2.6-1.2,4-1.3c2.4,0,3.6,1.5,3.6,4.2v5.8
			h-1.9l-0.2-1.1h-0.1c-0.8,0.8-1.9,1.2-3,1.3c-1.5,0.1-2.8-1.1-2.9-2.6c0-0.1,0-0.2,0-0.3C71.2,9.5,73,8.4,77,8z M74.9,12.7
			c0.8-0.1,1.6-0.4,2.1-1.1V9.4c-2.6,0.3-3.5,1-3.5,2S74,12.7,74.9,12.7L74.9,12.7z"/>
		<path class="st0" d="M81.6,0.2h2.3v11.6c0,0.6,0.3,0.8,0.5,0.8c0.1,0,0.2,0,0.4,0l0.3,1.7c-0.4,0.1-0.8,0.2-1.2,0.2
			c-1.6,0-2.2-1.1-2.2-2.7L81.6,0.2z"/>
		<path class="st0" d="M87.5,16.4c1,0,1.8-0.7,1.9-1.7l0.2-0.6l-3.8-9.6h2.3l1.7,4.8c0.3,0.9,0.6,1.8,0.8,2.7h0.1
			c0.2-0.9,0.5-1.9,0.7-2.7l1.5-4.8h2.2l-3.5,10.2c-0.8,2.2-1.8,3.6-3.9,3.6c-0.4,0-0.9-0.1-1.3-0.2l0.4-1.8
			C87,16.3,87.3,16.4,87.5,16.4z"/>
		<path class="st0" d="M96.5,11.6c0.7,0.7,1.7,1,2.7,1.1c1.1,0,1.6-0.5,1.6-1.2s-1.1-1.2-2.1-1.6C97.4,9.5,96,8.8,96,7.2
			s1.4-2.9,3.6-2.9c1.2,0,2.3,0.4,3.2,1.2l-1.1,1.4c-0.6-0.5-1.4-0.8-2.1-0.8c-1,0-1.4,0.5-1.4,1.1s1,1.1,2,1.5
			c1.3,0.5,2.8,1.1,2.8,3c0,1.7-1.3,3-3.8,3c-1.3,0-2.6-0.5-3.7-1.4L96.5,11.6z"/>
		<path class="st0" d="M105.3,6.3h-1.4V4.6l1.5-0.1l0.3-2.7h1.9v2.7h2.5v1.8h-2.5v4.6c0,1.1,0.4,1.7,1.4,1.7c0.3,0,0.7-0.1,1-0.2
			l0.4,1.7c-0.6,0.2-1.3,0.4-2,0.4c-2.3,0-3.1-1.4-3.1-3.5L105.3,6.3z"/>
		<path class="st0" d="M112.2,4.1c0-1.2,1-2.2,2.2-2.2s2.2,1,2.2,2.2c0,1.2-1,2.2-2.2,2.2C113.1,6.3,112.2,5.3,112.2,4.1
			C112.2,4.1,112.2,4.1,112.2,4.1z M116.3,4.1c0.1-1.1-0.7-2-1.8-2.1s-2,0.7-2.1,1.8c0,0.1,0,0.2,0,0.3c-0.1,1.1,0.7,2,1.8,2.1
			c1.1,0.1,2-0.7,2.1-1.8C116.3,4.3,116.3,4.2,116.3,4.1z M113.6,2.8h0.8c0.6,0,0.9,0.2,0.9,0.7c0,0.3-0.2,0.6-0.6,0.7l0.6,1.1H115
			l-0.6-1.1h-0.6v1.1h-0.3L113.6,2.8z M114.4,3.9c0.4,0,0.6-0.1,0.6-0.4s-0.2-0.4-0.6-0.4h-0.5v0.9L114.4,3.9z"/>
	</g>
</g>
</svg>
