<?xml version="1.0" encoding="UTF-8"?>
<svg width="59px" height="27px" viewBox="0 0 59 27" version="1.1" xmlns="http://www.w3.org/2000/svg" xmlns:xlink="http://www.w3.org/1999/xlink">
    <title>Group</title>
    <defs>
        <filter id="filter-1">
            <feColorMatrix in="SourceGraphic" type="matrix" values="0 0 0 0 0.105882 0 0 0 0 0.160784 0 0 0 0 0.207843 0 0 0 1.000000 0"></feColorMatrix>
        </filter>
    </defs>
    <g id="Desktop" stroke="none" stroke-width="1" fill="none" fill-rule="evenodd">
        <g id="Option-1-&amp;-2" transform="translate(-107.000000, -848.000000)">
            <g id="Group-9" transform="translate(26.000000, 818.000000)">
                <g id="Group" transform="translate(82.000000, 28.000000)" filter="url(#filter-1)">
                    <g transform="translate(28.571429, 15.161143) scale(-1, 1) translate(-28.571429, -15.161143) translate(0.000000, 2.018286)">
                        <path d="M30.7504762,0.282063492 C35.0392673,0.282063492 38.4733579,3.10139855 41.7965743,5.8146137 C43.2487438,7.00001171 44.7448814,8.21994225 46.2757932,9.17270393 L46.8514972,9.51687676 L51.2094857,10.4660952 C52.4554806,10.7306061 53.799944,11.0094824 54.7208297,11.7784911 C55.3640897,12.3156614 55.7922654,13.096513 55.8297576,14.2815686 C56.5465767,15.0940095 56.8926124,15.5044696 56.9575142,15.9271632 C57.0193839,16.3301091 56.8223307,16.7364832 56.4617618,17.4155415 L56.3594424,17.6077023 L55.5320925,20.6256771 L51.4462191,20.9458711 C51.1745189,20.9456954 50.9587451,20.9332244 50.7725964,20.9021996 C50.346144,22.1990187 49.6889488,23.2314645 48.7808595,23.9644964 C47.8903979,24.6832988 46.7585522,25.114127 45.527619,25.114127 C44.1449149,25.114127 42.8882877,24.5704653 41.9583667,23.6857442 C41.0511054,22.8225814 40.4547303,21.6347852 40.3557078,20.3103121 L40.3425899,20.0436508 L13.7316624,20.0436508 C13.6979985,21.4749372 13.0841659,22.7649796 12.1165407,23.6856819 C11.186691,24.5704406 9.93003739,25.114127 8.54730159,25.114127 C7.16456579,25.114127 5.90791218,24.5704406 4.97806248,23.6856819 C4.07091383,22.8225235 3.47471574,21.6347498 3.37599634,20.3103061 L3.36294078,20.0436508 L2.45093334,20.0436508 L0.374659266,18.7804631 L0.15135567,15.2131573 L0.636349206,13.5625331 L0.636349206,11.3890479 L2.36426773,4.13533618 C2.6515446,2.93881107 3.12248837,2.05355422 3.81028441,1.46455144 C4.43774307,0.927219338 5.24389901,0.63943734 6.24457378,0.578211801 L6.52231975,0.567113754 L20.9892063,0.282063492 L30.7504762,0.282063492 Z M8.54730159,15.3128571 C7.46894026,15.3128571 6.47588387,15.6838581 5.65791856,16.5018234 C4.91946657,17.2402754 4.32266415,18.347482 3.93825397,19.9219048 C3.93825397,21.1928197 4.45520429,22.3454715 5.28996504,23.1803511 C6.12467446,24.0151793 7.27710047,24.5322222 8.54793651,24.5322222 C9.88572346,24.5322222 11.0922903,23.9607161 11.9065936,22.8491969 C12.6351486,21.8547237 13.0505726,20.4225969 12.9423659,18.5337623 C12.6432589,17.5892487 12.0478159,16.7752854 11.2655049,16.2019567 C10.5030207,15.6431583 9.56313245,15.3128571 8.54730159,15.3128571 Z M45.527619,15.3122222 C44.4483997,15.3122222 43.4546393,15.6838285 42.6366436,16.5019407 C41.8979068,17.2407827 41.3014714,18.3482419 40.9185714,19.9219048 C40.9185714,21.1928622 41.4353974,22.3455457 42.2700437,23.1804297 C43.1045874,24.0152111 44.2568195,24.5322222 45.527619,24.5322222 C46.7691531,24.5322222 47.8970256,24.0395766 48.7262828,23.1120397 C49.4964977,22.2505425 50.0100291,21.0108167 50.1071757,19.4100833 C49.9784798,18.2531395 49.4203122,17.2235468 48.5958569,16.4858141 C47.7806464,15.7563537 46.705223,15.3122222 45.527619,15.3122222 Z M55.7885568,17.418254 L50.0901522,17.418254 L50.1066417,17.4581404 C50.2733128,17.8499009 50.3305946,17.646687 50.8291191,20.325891 C50.9221355,20.3431655 51.0994381,20.3633333 51.4463492,20.3633333 L51.4463492,20.3633333 L54.9988863,20.362021 L55.7885568,17.418254 Z M44.4921862,8.78202239 C43.1376221,9.73362584 42.2162877,9.7282422 40.6556101,9.72905404 C40.1265608,9.72932925 39.5257571,9.72968279 38.8135016,9.7651058 L38.8135016,9.7651058 L34.7575494,9.72810139 L24.7077299,9.63613133 L24.102381,13.3235339 L24.102381,9.63040668 L11.1763289,9.51275608 L10.1790676,11.0217433 L9.60501111,12.5626101 L9.65293166,10.7612142 L10.4824782,9.50712615 L4.14803425,9.44937131 L1.68873428,9.44936476 L1.21888889,11.406373 L1.21888889,13.2950441 L5.28088835,13.8995238 L1.14294316,13.8995238 L0.733174603,15.2410948 L0.733174603,18.3142288 L3.36971747,19.5359028 L3.39517301,19.2752773 C3.53263079,18.1547872 4.02196129,17.1523209 4.82094313,16.3651325 C5.60781605,15.5898743 6.69370466,15.0239072 8.03628651,14.7549817 C8.20515427,14.7386859 8.37566134,14.7290476 8.54857143,14.7290476 C8.725432,14.7290476 8.89976693,14.7397678 9.64076453,14.84687 C10.9000229,15.1109045 11.9952786,15.834747 12.7655042,16.835063 L12.7655042,16.835063 L41.3393692,16.8414454 L41.4740815,16.6661205 C42.2126016,15.7473837 43.2790634,15.0911189 45.0127507,14.7550669 C45.1824429,14.7387137 45.3531912,14.7290476 45.5263492,14.7290476 C47.2450249,14.7290476 48.7600537,15.5540577 49.7039467,16.8344444 L49.7039467,16.8344444 L56.1025652,16.8344444 L56.1731245,16.6897855 C56.3448176,16.3220459 56.3843167,16.0917162 56.280209,15.8372708 C56.1745301,15.5789854 55.8943745,15.2882715 55.3684234,14.7743978 L55.3684234,14.7743978 L54.2915685,14.1626984 L55.2385757,14.1626984 L55.2188232,13.9511321 C55.110577,13.0583933 54.7105829,12.474755 54.1253114,12.0625959 C53.3619191,11.5250007 52.269219,11.287232 51.0876895,11.0361339 L51.0876895,11.0361339 L46.5815997,10.0343528 L46.3034344,9.87187047 C45.7466596,9.54005591 45.1808897,9.1685181 44.4921862,8.78202239 Z M40.9749614,17.4188889 L13.1002276,17.4188889 L13.1506728,17.5153643 C13.3809844,17.9626356 13.5421867,18.3848972 13.7301286,19.4646212 L13.7301286,19.4646212 L40.473129,18.7265327 L40.5457149,18.4513657 C40.6523805,18.0889609 40.7979591,17.7445554 40.9749614,17.4188889 L40.9749614,17.4188889 Z M40.908248,5.84180355 L35.7389245,9.15426094 L38.8017978,9.18237463 L39.1517685,9.16711485 C39.7199504,9.14615941 40.2142112,9.14619048 40.6584127,9.14619048 C42.0699544,9.14619048 42.8501273,9.13304587 43.9036944,8.2332875 C43.0639594,7.59952527 42.2394563,6.92771024 41.4288748,6.26542899 L41.4288748,6.26542899 L40.908248,5.84180355 Z M30.7498413,0.865238095 L24.5573295,1.18096751 L25.5500981,9.06180994 L34.6744205,9.14532332 L40.4311168,5.45631678 L40.135059,5.21875729 C37.2684256,2.9293863 34.2601628,0.865238095 30.7498413,0.865238095 L30.7498413,0.865238095 Z M24.1815536,0.865238095 L20.9980952,0.865238095 L12.8830536,1.02521248 L11.6621401,8.93443708 L24.9567561,9.0562805 L24.1815536,0.865238095 Z M12.2913779,1.03705459 L9.77754018,1.08645315 L9.51501367,1.13553157 L9.51501367,1.13553157 L9.26400996,1.18662 C7.66884852,1.52893689 6.76014197,2.02405339 6.16760339,2.8216916 C5.48589057,3.73937057 5.22868577,5.07222425 4.85128727,7.08988144 C4.74917784,7.63679628 4.63860101,8.22838405 4.50762521,8.86896183 L4.50762521,8.86896183 L10.8648881,8.92724888 L11.2886757,8.2867093 L12.2913779,1.03705459 Z M6.71590312,1.14930192 L6.53358357,1.15034597 C5.51389096,1.17022948 4.74539944,1.41310861 4.16407599,1.91825937 C3.5867709,2.41991832 3.19154439,3.18493579 2.93096009,4.27169079 L2.93096009,4.27169079 L1.82814785,8.86619048 L3.91164573,8.86619048 L3.99274511,8.46594153 C4.09815422,7.93921704 4.19279994,7.4412337 4.27824417,6.98372852 C4.79690642,4.20944524 5.10497511,2.46071713 6.62116487,1.42414478 C6.76673167,1.32462523 6.91437338,1.23786481 7.06480413,1.16279428 C6.89554751,1.15078663 6.71855222,1.14673917 6.53358357,1.15034597 Z" id="Shape" stroke="#1B2935" stroke-width="0.3" fill="#000000" fill-rule="nonzero"></path>
                        <path d="M8.54793651,18.3061905 C8.99326013,18.3061905 9.39714502,18.487531 9.68972763,18.7801136 C9.98231025,19.0726963 10.1636508,19.4765811 10.1636508,19.9219048 C10.1636508,20.3677847 9.98236794,20.7719562 9.68982977,21.0647048 C9.39724365,21.3575013 8.99331453,21.5388889 8.54793651,21.5388889 C8.10255849,21.5388889 7.69862936,21.3575013 7.40604324,21.0647048 C7.11350508,20.7719562 6.93222222,20.3677847 6.93222222,19.9219048 C6.93222222,19.4765811 7.11356277,19.0726963 7.40614538,18.7801136 C7.698728,18.487531 8.10261288,18.3061905 8.54793651,18.3061905 Z M8.54793651,18.8887302 C8.2631787,18.8887302 8.00490744,19.0046272 7.81782064,19.191714 C7.63061502,19.3789196 7.5147619,19.6373397 7.5147619,19.9219048 C7.5147619,20.2070339 7.6305242,20.4652753 7.81750789,20.652259 C8.00461019,20.8393613 8.263,20.9550794 8.54793651,20.9550794 C8.83287301,20.9550794 9.09126283,20.8393613 9.27836513,20.652259 C9.46534881,20.4652753 9.58111111,20.2070339 9.58111111,19.9219048 C9.58111111,19.6373397 9.46525799,19.3789196 9.27805238,19.191714 C9.09096558,19.0046272 8.83269431,18.8887302 8.54793651,18.8887302 Z" id="Shape" stroke="#1B2935" stroke-width="0.3" fill="#000000" fill-rule="nonzero"></path>
                        <path d="M45.527619,18.3061905 C45.9729427,18.3061905 46.3768276,18.487531 46.6694102,18.7801136 C46.9619928,19.0726963 47.1433333,19.4765811 47.1433333,19.9219048 C47.1433333,20.3677847 46.9620505,20.7719562 46.6695123,21.0647048 C46.3769262,21.3575013 45.9729971,21.5388889 45.527619,21.5388889 C45.0820249,21.5388889 44.678148,21.3575755 44.3856441,21.0648613 C44.0930911,20.7720979 43.9119048,20.3678591 43.9119048,19.9219048 C43.9119048,19.4765068 44.0931488,19.0725547 44.3857462,18.7799573 C44.6782466,18.4874569 45.0820793,18.3061905 45.527619,18.3061905 Z M45.527619,18.8887302 C45.2428612,18.8887302 44.98459,19.0046272 44.7975032,19.191714 C44.6102976,19.3789196 44.4944444,19.6373397 44.4944444,19.9219048 C44.4944444,20.2070339 44.6102067,20.4652753 44.7971904,20.652259 C44.9842927,20.8393613 45.2426825,20.9550794 45.527619,20.9550794 C45.8128449,20.9550794 46.0713373,20.8393905 46.2584951,20.6523672 C46.4456264,20.4653703 46.5614286,20.2070863 46.5614286,19.9219048 C46.5614286,19.6372874 46.4455356,19.3788246 46.2581821,19.1916058 C46.0710399,19.0045979 45.812666,18.8887302 45.527619,18.8887302 Z" id="Shape" stroke="#1B2935" stroke-width="0.3" fill="#000000" fill-rule="nonzero"></path>
                        <path d="M31.9263492,3.04714286 C32.0066649,3.04714286 32.079507,3.07981359 32.1322648,3.13257141 C32.1849474,3.18525401 32.217619,3.25800622 32.217619,3.3384127 C32.217619,3.41887861 32.185051,3.49170583 32.1323467,3.54441017 C32.0796423,3.59711451 32.0068151,3.62968254 31.9263492,3.62968254 L31.9263492,3.62968254 L26.9460317,3.62968254 C26.8657161,3.62968254 26.7928739,3.5970118 26.7401161,3.54425399 C26.6874335,3.49157139 26.6547619,3.41881918 26.6547619,3.3384127 L26.6547619,3.3384127 Z" id="Path" stroke="#1B2935" stroke-width="0.3" fill="#000000" fill-rule="nonzero"></path>
                        <path d="M34.0990476,5.53666667 C34.1793633,5.53666667 34.2522054,5.5693374 34.3049633,5.62209521 C34.3576459,5.67477782 34.3903175,5.74753003 34.3903175,5.82793651 C34.3903175,5.90825216 34.3576467,5.98109434 34.3048889,6.03385215 C34.2522063,6.08653475 34.1794541,6.11920635 34.0990476,6.11920635 L34.0990476,6.11920635 L29.1180952,6.11920635 C29.0378966,6.11920635 28.9652536,6.08661002 28.9126598,6.03394044 C28.8600215,5.98122628 28.8274603,5.90840055 28.8274603,5.82793651 L28.8274603,5.82793651 Z" id="Path" stroke="#1B2935" stroke-width="0.3" fill="#000000" fill-rule="nonzero"></path>
                    </g>
                </g>
            </g>
        </g>
    </g>
</svg>