<?xml version="1.0" encoding="utf-8"?>
<!-- Generator: Adobe Illustrator 19.2.0, SVG Export Plug-In . SVG Version: 6.00 Build 0)  -->
<svg version="1.1" id="Layer_1" xmlns="http://www.w3.org/2000/svg" xmlns:xlink="http://www.w3.org/1999/xlink" x="0px" y="0px"
	 viewBox="0 0 278.9 45.9" style="enable-background:new 0 0 278.9 45.9;" xml:space="preserve">
<style type="text/css">
	.st0{fill:none;}
	.st1{fill:#ED2026;}
	.st2{fill:#F26A21;}
	.st3{fill:#F99F1D;}
	.st4{fill:#0058A0;}
	.st5{fill:#FAA61A;}
	.st6{fill-rule:evenodd;clip-rule:evenodd;fill:#0078A9;}
	.st7{fill:#010101;}
	.st8{fill-rule:evenodd;clip-rule:evenodd;fill:#010101;}
	.st9{fill-rule:evenodd;clip-rule:evenodd;fill:#F26822;}
	.st10{fill-rule:evenodd;clip-rule:evenodd;fill:url(#SVGID_1_);}
</style>
<path class="st0" d="M0,0h278.9v45.9H0V0z"/>
<g>
	<path class="st1" d="M38.4,23c0-4.4,2.1-8.4,5.3-10.9c-2.4-1.9-5.4-3-8.6-3C27.3,9,21.1,15.3,21.1,23S27.3,36.9,35,36.9
		c3.3,0,6.3-1.1,8.6-3C40.4,31.3,38.4,27.4,38.4,23z"/>
	<path class="st2" d="M38.4,23c0,4.4,2.1,8.4,5.3,10.9c3.2-2.5,5.3-6.5,5.3-10.9s-2.1-8.4-5.3-10.9C40.4,14.6,38.4,18.5,38.4,23z"/>
	<path class="st3" d="M52.3,9c-3.3,0-6.3,1.1-8.6,3c3.2,2.5,5.3,6.5,5.3,10.9s-2.1,8.4-5.3,10.9c2.4,1.9,5.4,3,8.6,3
		c7.7,0,13.9-6.2,13.9-13.9S60,9,52.3,9z"/>
</g>
<g>
	<polygon class="st4" points="103,29.7 105.3,16.3 108.9,16.3 106.7,29.7 	"/>
	<path class="st4" d="M119.9,16.6c-0.7-0.3-1.9-0.6-3.3-0.6c-3.6,0-6.1,1.8-6.2,4.4c0,1.9,1.8,3,3.2,3.6c1.4,0.7,1.9,1.1,1.9,1.7
		c0,0.9-1.1,1.3-2.2,1.3c-1.5,0-2.2-0.2-3.4-0.7l-0.5-0.2l-0.5,3c0.9,0.4,2.4,0.7,4.1,0.7c3.8,0,6.3-1.8,6.3-4.6
		c0-1.5-1-2.7-3.1-3.6c-1.3-0.6-2.1-1-2-1.7c0-0.6,0.7-1.2,2.1-1.2c1.2,0,2.1,0.2,2.7,0.5l0.3,0.2L119.9,16.6"/>
	<path class="st4" d="M129.2,16.3h-2.8c-0.9,0-1.5,0.2-1.9,1.1l-5.4,12.3h3.8c0,0,0.6-1.7,0.8-2c0.4,0,4.1,0,4.7,0
		c0.1,0.5,0.4,2,0.4,2h3.4L129.2,16.3 M124.7,24.9c0.3-0.8,1.5-3.7,1.5-3.7c0,0,0.3-0.8,0.5-1.3l0.2,1.2c0,0,0.7,3.2,0.8,3.9H124.7z
		"/>
	<path class="st4" d="M100,16.3l-3.6,9.1L96,23.6c-0.7-2.1-2.7-4.5-5-5.6l3.3,11.7l3.9,0l5.7-13.4H100"/>
	<path class="st5" d="M93.1,16.3h-5.9l0,0.3c4.6,1.1,7.6,3.8,8.8,7l-1.3-6.2C94.5,16.6,93.9,16.3,93.1,16.3"/>
</g>
<path class="st6" d="M189.2,27.4c0,0.8-0.5,1.1-1.3,1.1h-1.6v-0.8h1.6c0.2,0,0.3,0,0.3-0.1c0.1-0.1,0.1-0.1,0.1-0.2
	c0-0.1-0.1-0.2-0.1-0.3c-0.1-0.1-0.1-0.1-0.3-0.1c-0.8,0-1.8,0-1.8-1.1c0-0.5,0.3-1.1,1.2-1.1h1.7v0.8h-1.6c-0.2,0-0.3,0-0.3,0.1
	c-0.1,0.1-0.1,0.2-0.1,0.3c0,0.1,0.1,0.2,0.2,0.3c0.1,0,0.2,0.1,0.3,0.1h0.5c0.5,0,0.8,0.1,1,0.3C189.1,26.9,189.2,27.1,189.2,27.4
	 M185.7,26.7c-0.2-0.2-0.5-0.3-1-0.3h-0.5c-0.1,0-0.2,0-0.3-0.1c-0.1,0-0.2-0.1-0.2-0.3c0-0.1,0-0.2,0.1-0.3
	c0.1-0.1,0.2-0.1,0.3-0.1h1.6V25H184c-0.9,0-1.2,0.6-1.2,1.1c0,1.1,1,1.1,1.8,1.1c0.2,0,0.3,0,0.3,0.1c0.1,0,0.1,0.1,0.1,0.3
	c0,0.1-0.1,0.2-0.1,0.2c-0.1,0.1-0.2,0.1-0.3,0.1h-1.6v0.8h1.6c0.9,0,1.3-0.4,1.3-1.1C185.9,27.1,185.8,26.9,185.7,26.7 M182.4,27.8
	h-2v-0.7h2v-0.7h-2v-0.6h2V25h-2.8v3.5h2.8V27.8z M178.7,25.2c-0.3-0.1-0.6-0.2-1-0.2h-1.9v3.5h0.9v-1.3h0.9c0.3,0,0.5,0,0.6,0.2
	c0.1,0.2,0.1,0.5,0.1,0.7v0.4h0.8v-0.7c0-0.3,0-0.5-0.1-0.6c-0.1-0.1-0.2-0.2-0.4-0.3c0.2-0.1,0.6-0.4,0.6-0.9
	C179.1,25.6,179,25.3,178.7,25.2 M173.9,25h-2.7l-1.1,1.2l-1-1.2h-3.4v3.5h3.4l1.1-1.2l1,1.2h1.6v-1.2h1.1c0.7,0,1.5-0.2,1.5-1.2
	C175.3,25.2,174.5,25,173.9,25 M178,26.5c-0.1,0.1-0.3,0.1-0.4,0.1l-1,0v-0.8h1c0.2,0,0.3,0,0.4,0.1c0.1,0.1,0.2,0.2,0.2,0.3
	C178.2,26.3,178.1,26.4,178,26.5 M173.9,26.7h-1.1v-0.9h1.1c0.3,0,0.5,0.1,0.5,0.4C174.4,26.5,174.2,26.7,173.9,26.7 M170.6,26.8
	l1.3-1.4v2.9L170.6,26.8z M168.6,27.8h-2.1v-0.7h1.9v-0.7h-1.9v-0.6h2.1l0.9,1L168.6,27.8z M186.9,22.5h-1.2l-1.6-2.7v2.7h-1.7
	l-0.3-0.8h-1.8l-0.3,0.8h-1c-0.4,0-0.9-0.1-1.2-0.4c-0.3-0.3-0.4-0.7-0.4-1.3c0-0.5,0.1-1,0.5-1.4c0.3-0.3,0.7-0.4,1.3-0.4h0.8v0.8
	H179c-0.3,0-0.5,0.1-0.7,0.2c-0.2,0.2-0.2,0.4-0.2,0.8c0,0.4,0.1,0.7,0.2,0.8c0.1,0.1,0.4,0.2,0.6,0.2h0.4l1.2-2.8h1.3l1.4,3.3v-3.3
	h1.3l1.5,2.5v-2.5h0.9V22.5z M176.8,18.9H176v3.5h0.9V18.9z M175,19.1c-0.3-0.2-0.6-0.2-1-0.2h-1.9v3.5h0.8v-1.3h0.9
	c0.3,0,0.5,0,0.6,0.1c0.1,0.2,0.1,0.5,0.1,0.7v0.4h0.9v-0.7c0-0.3,0-0.5-0.2-0.6c-0.1-0.1-0.2-0.2-0.4-0.3c0.2-0.1,0.6-0.4,0.6-0.9
	C175.5,19.5,175.3,19.2,175,19.1 M171.5,21.7h-2V21h2v-0.7h-2v-0.6h2v-0.7h-2.8v3.5h2.8V21.7z M168,18.9h-1.4l-1,2.4l-1.1-2.4h-1.4
	v3.3l-1.5-3.3h-1.3l-1.5,3.5h0.9l0.3-0.8h1.8l0.3,0.8h1.7v-2.8l1.2,2.8h0.7l1.2-2.8v2.8h0.9V18.9z M181.7,20.9l-0.6-1.4l-0.6,1.4
	H181.7z M174.4,20.4c-0.1,0.1-0.3,0.1-0.4,0.1h-1v-0.8h1c0.1,0,0.3,0,0.4,0.1c0.1,0.1,0.2,0.2,0.2,0.3
	C174.5,20.2,174.5,20.3,174.4,20.4 M160.4,20.9l0.6-1.4l0.6,1.4H160.4z M189,7.8h-30.1v12.8l1-2.4h2.2l0.3,0.6v-0.6h2.6l0.6,1.3
	l0.6-1.3h8.2c0.4,0,0.7,0.1,1,0.3v-0.3h2.3v0.3c0.4-0.2,0.9-0.3,1.4-0.3h3.3l0.3,0.6v-0.6h2.4l0.4,0.6v-0.6h2.3v5h-2.4l-0.5-0.8v0.8
	h-3l-0.3-0.8h-0.7l-0.3,0.8h-1.5c-0.6,0-1.1-0.1-1.4-0.3v0.3h-3.7V22c0-0.2,0-0.2-0.1-0.2h-0.1v1.3h-7.1v-0.6l-0.3,0.6h-1.5
	l-0.3-0.6v0.6h-2.9l-0.3-0.8h-0.7l-0.3,0.8h-1.5v15H189V29c-0.3,0.1-0.8,0.2-1.2,0.2h-2.2V29c-0.3,0.2-0.7,0.3-1.1,0.3h-6.9v-1.1
	c0-0.2,0-0.2-0.2-0.2h-0.1v1.3H175v-1.3c-0.4,0.2-0.8,0.2-1.2,0.2h-0.3v1.2h-2.8l-0.7-0.8l-0.7,0.8h-4.5v-5h4.5l0.6,0.8l0.7-0.8h3.1
	c0.4,0,0.9,0.1,1.2,0.3v-0.3h2.7c0.3,0,0.8,0.1,1.2,0.3v-0.3h4.1v0.3c0.2-0.2,0.7-0.3,1-0.3h2.3v0.3c0.3-0.2,0.6-0.3,1.1-0.3h1.6
	V7.8z"/>
<g>
	<path class="st7" d="M223.2,21.4c0,0,2.2,0.3,2.2-1.7v0c0-2-2.2-1.7-2.2-1.7V21.4z M222.2,17h1.7c1,0,2.6,0.9,2.6,2.6l0,0l0,0
		c0,1.7-1.5,2.6-2.6,2.6h-1.7V17z"/>
	<rect x="226.9" y="17" class="st8" width="1.1" height="5.3"/>
	<path class="st8" d="M231.2,18.2c0,0-0.4-0.4-0.8-0.4c-0.5,0-0.7,0.3-0.7,0.5c0,0.2,0,0.4,0.7,0.6c0.7,0.3,1.7,0.5,1.7,1.7
		s-0.9,1.8-1.8,1.8c-1.3,0-1.9-1-1.9-1l0.7-0.7c0,0,0.4,0.7,1.2,0.7c0.7,0,0.8-0.6,0.8-0.7c0-0.3-0.2-0.5-0.6-0.7
		c-0.5-0.2-1.7-0.3-1.7-1.5c0-1.1,0.8-1.6,1.7-1.6c0.8,0,1.5,0.6,1.5,0.6L231.2,18.2z"/>
	<path class="st8" d="M236.4,18.5c-0.3-0.3-0.8-0.6-1.3-0.6c-1,0-1.8,0.8-1.8,1.8s0.8,1.8,1.8,1.8c0.5,0,1-0.2,1.3-0.6l0,1.3
		c-0.4,0.2-0.8,0.3-1.3,0.3c-1.5,0-2.8-1.3-2.8-2.8s1.3-2.8,2.8-2.8c0.5,0,0.9,0.1,1.3,0.3V18.5z"/>
	<polygon class="st7" points="242.2,17 243.4,17 244.8,20.5 246.2,17 247.3,17 245.1,22.5 244.4,22.5 	"/>
	<path class="st7" d="M252.4,17.9v1.6h0.6c0.4,0,0.7-0.4,0.7-0.7v-0.1c0-0.3-0.3-0.7-0.7-0.7H252.4z M251.4,17h1.7
		c0.6,0,1.7,0.3,1.7,1.6c0,1.3-1.1,1.5-1.1,1.5l1.6,2.2H254l-1.4-2.1h-0.1v2.1h-1V17z"/>
	<polygon class="st7" points="250.6,19.1 250.6,20 248.8,20 248.8,21.4 250.7,21.4 250.7,22.3 247.7,22.3 247.7,17 250.7,17 
		250.7,18 248.8,18 248.8,19.1 	"/>
	<path class="st7" d="M257.8,35.2h-38.3V10.7h38.3V35.2z M219.9,34.9h37.6V11.1h-37.6V34.9z"/>
	<path class="st9" d="M227.9,34.9c0,0,10.9-1.9,18.1-4.8c7.1-2.6,11.5-5.8,11.5-5.8v10.7H227.9z"/>
	<path class="st8" d="M231.3,23.7l1.2,1.1c0,0,0.1,0.1,0.1,0.1c0,0,0.1,0.1,0.1,0.1v-1.3h0.3v1.9l-1.2-1.1c-0.1-0.1-0.1-0.1-0.2-0.2
		v1.3h-0.3V23.7z"/>
	<polygon class="st8" points="233.9,23.8 234.9,23.8 234.9,24 234.1,24 234.1,24.5 234.9,24.5 234.9,24.7 234.1,24.7 234.1,25.3 
		234.9,25.3 234.9,25.6 233.9,25.6 	"/>
	<polygon class="st8" points="236.2,25.6 235.9,25.6 235.9,24 235.5,24 235.5,23.8 236.6,23.8 236.6,24 236.2,24 	"/>
	<path class="st8" d="M237.6,23.8l0.3,0.9c0,0,0,0.1,0.1,0.1c0,0,0,0.1,0,0.1c0-0.1,0-0.1,0.1-0.2l0-0.1l0.4-1l0.4,1
		c0,0.1,0.1,0.2,0.1,0.3c0,0,0-0.1,0-0.1c0-0.1,0-0.1,0.1-0.2l0.3-0.9l0.3,0l-0.7,1.9l-0.4-1c0-0.1-0.1-0.2-0.1-0.3
		c0,0.1-0.1,0.2-0.1,0.3l-0.4,1l-0.7-1.9L237.6,23.8z"/>
	<path class="st8" d="M241.8,25.4c-0.2,0.2-0.4,0.3-0.7,0.3c-0.1,0-0.3,0-0.4-0.1c-0.1,0-0.2-0.1-0.3-0.2c-0.1-0.1-0.2-0.2-0.2-0.3
		c0-0.1-0.1-0.2-0.1-0.4c0-0.3,0.1-0.5,0.3-0.7c0.2-0.2,0.4-0.3,0.7-0.3c0.3,0,0.5,0.1,0.7,0.3c0.2,0.2,0.3,0.4,0.3,0.7
		C242.1,25,242,25.2,241.8,25.4z M241.6,24.2c-0.1-0.1-0.3-0.2-0.5-0.2s-0.3,0-0.4,0.1c-0.1,0.1-0.2,0.2-0.2,0.3c0,0.1,0,0.2,0,0.3
		c0,0.2,0.1,0.4,0.2,0.5c0.1,0.1,0.3,0.2,0.5,0.2c0.2,0,0.3-0.1,0.5-0.2c0.1-0.1,0.2-0.3,0.2-0.5C241.8,24.5,241.8,24.3,241.6,24.2z
		"/>
	<path class="st8" d="M243.1,25.6h-0.3v-1.8h0.4c0.1,0,0.2,0,0.3,0c0.1,0,0.1,0,0.2,0.1c0.1,0,0.1,0.1,0.1,0.2c0,0.1,0,0.1,0,0.2
		c0,0.3-0.1,0.5-0.4,0.5l0.6,0.8l-0.3,0l-0.6-0.8l0,0V25.6z M243.2,24.5c0.1,0,0.2,0,0.3,0s0.1-0.1,0.1-0.2c0-0.1,0-0.2-0.1-0.2
		c-0.1,0-0.2-0.1-0.3-0.1h-0.1L243.2,24.5L243.2,24.5z"/>
	<polygon class="st8" points="244.7,23.8 245,23.8 245,24.5 245.7,23.8 246,23.8 245.3,24.6 246.1,25.6 245.7,25.6 245,24.7 
		245,25.6 244.7,25.6 	"/>
	<radialGradient id="SVGID_1_" cx="239.6395" cy="19.7003" r="2.7584" gradientUnits="userSpaceOnUse">
		<stop  offset="0" style="stop-color:#FFFFFF"/>
		<stop  offset="1" style="stop-color:#F26822"/>
	</radialGradient>
	<circle class="st10" cx="239.6" cy="19.7" r="2.8"/>
</g>
</svg>
