<svg xmlns="http://www.w3.org/2000/svg" width="14" height="14" viewBox="0 0 14 14">
    <path d="M8.69 7.164a.264.264 0 010-.382l4.092-4.091a.59.59 0 00.163-.382.59.59 0 00-.163-.382l-.764-.763A.59.59 0 0011.636 1a.495.495 0 00-.381.164l-4.091 4.09a.264.264 0 01-.382 0L2.69 1.165A.59.59 0 002.309 1a.59.59 0 00-.382.164l-.763.763A.59.59 0 001 2.31c0 .11.055.273.164.382l4.09 4.09c.11.11.11.274 0 .383l-4.09 4.09a.59.59 0 00-.164.382c0 .11.055.273.164.382l.763.764a.59.59 0 00.382.163.59.59 0 00.382-.163L6.78 8.69c.11-.11.274-.11.383 0l4.09 4.09a.59.59 0 00.382.164.59.59 0 00.382-.163l.764-.764a.59.59 0 00.163-.382.59.59 0 00-.163-.381L8.69 7.164z" opacity=".6"/>
</svg>
