<svg id="Layer_1" data-name="Layer 1" xmlns="http://www.w3.org/2000/svg" viewBox="0 0 100 100"><defs><style>.cls-1{fill:#3ace94;}</style></defs><title>SeniorLiving_Engagement</title><polygon class="cls-1" points="20.87 32.19 15 53.15 23.38 53.98 27.57 34.7 20.87 32.19"/><path class="cls-1" d="M75.78,29.25c-1.68.84-4.19,1.68-5.87,2.52C75.78,36,80,49.37,80,49.37l5-1.67S78.29,30.93,75.78,29.25Z"/><path class="cls-1" d="M71.17,33.86a19.3,19.3,0,0,0-2.52-1.67,8.37,8.37,0,0,1-2.51.84c-.84,0-14.25-2.52-16.77-2.52s-9.22,3.35-10.06,3.35c-.43,0-2.87,1.79-5.14,3.52l-1,1c-.41.39-.78.78-1.24,1.16a3.08,3.08,0,0,0-.79,1.24A2.12,2.12,0,0,0,31,42.15a.59.59,0,0,0,.41.33,4.34,4.34,0,0,0,.75.13,12.93,12.93,0,0,0,3.22-.21,6.8,6.8,0,0,0,2.91-1.13c.85-.71,1.68-1.44,2.62-2.1a7.11,7.11,0,0,1,.74-.47,3.8,3.8,0,0,1,.86-.33c.56-.16,1.11-.28,1.65-.39,1.1-.23,2.19-.44,3.29-.64h.28l.1.09a28.4,28.4,0,0,0,3,2.24l3,2.14L60,46.05l1.53,1.05c.51.32,1.06.66,1.57,1,1,.69,2.07,1.41,3.07,2.16s2,1.52,2.93,2.36A17,17,0,0,1,70.49,54c.16.19.31.4.46.61,1.45-1.22,3.12-2.65,3.57-3.1A27,27,0,0,1,78.71,49S73.89,36.18,71.17,33.86Z"/><path class="cls-1" d="M40.25,63.67c0-.09.06-.19.08-.28a.19.19,0,0,0,0-.08,1.57,1.57,0,0,0,0-.28.69.69,0,0,0,0-.2c-.23-.93-2-1.9-2.83-2.07l-.17,0h-.11L37,60.8l-.06,0c-1.21.52-2.41,3.15-2.49,4.05s1.88,2.75,2.94,2.66c.87-.07,2.38-2.39,2.87-3.78C40.24,63.72,40.24,63.7,40.25,63.67Z"/><path class="cls-1" d="M35.38,61h0a1,1,0,0,0-.07-.39,1.22,1.22,0,0,0-.07-.17,1.92,1.92,0,0,0-.14-.29A1.37,1.37,0,0,0,35,60a2.75,2.75,0,0,0-.19-.28l-.17-.21-.22-.27L34.2,59,34,58.77l-.2-.15a1.5,1.5,0,0,0-.25-.19,1.74,1.74,0,0,0-.18-.11l-.23-.12a.53.53,0,0,0-.16,0,.77.77,0,0,0-.19,0h0a.83.83,0,0,0-.21.06l0,0-.19.11,0,0a1.74,1.74,0,0,0-.22.18h0a9.34,9.34,0,0,0-2.44,4,3.27,3.27,0,0,0,2.52,2.71c1.2,0,3.27-3.22,3.31-4.18Z"/><path class="cls-1" d="M68.68,53.14c-.93-.81-1.91-1.57-2.91-2.3s-2-1.43-3-2.1c-.53-.35-1-.66-1.58-1s-1-.68-1.56-1l-6.14-4.26-3.06-2.13c-1-.64-1.88-1.37-2.92-1.92-1,.14-2.08.28-3.11.46-.54.1-1.08.2-1.59.33a2.64,2.64,0,0,0-.7.25,5.15,5.15,0,0,0-.67.4c-.89.6-1.75,1.31-2.62,2a7.74,7.74,0,0,1-3.25,1.22,13.31,13.31,0,0,1-3.4.21,3.64,3.64,0,0,1-.89-.16,1.21,1.21,0,0,1-.82-.7,2.64,2.64,0,0,1,.11-1.87,3.61,3.61,0,0,1,1-1.52c.4-.34.8-.74,1.19-1.12l.6-.62-4-1.74L25.06,54l1.64,1.19a1.81,1.81,0,0,1,.23,0,3.93,3.93,0,0,1,3.28,2.55l1,.73a2.53,2.53,0,0,1,1.47-.93h.05a3.55,3.55,0,0,1,2,1.22,4.63,4.63,0,0,1,1.2,2,2,2,0,0,1,1.31-.6h.1C38.45,60.18,41,61.51,41,63a5.27,5.27,0,0,1-.66,2l.36.26a2.06,2.06,0,0,1,.7-.12c1.07,0,2.23,1.36,3.44,2.88.14.18.31.4.42.52l.45.32c.4.23,1,.52,1.43.71l1,.46a2.94,2.94,0,0,0,2-.12c.88-.44,2-1.17,1.45-1.64-.72-.67-1.47-1.31-2.23-1.94a22.28,22.28,0,0,0-2.33-1.8l0-.08A22.23,22.23,0,0,1,49.69,66c.81.56,1.61,1.15,2.4,1.75l.65.49c1.06.81,3.35.82,4.18,0,.52-.52,1-1.7.57-2.15s-.86-.87-1.4-1.41l-3.9-3.91.05-.06q2.19,1.69,4.3,3.47c.6.51,1.1.75,1.72,1.25A4.94,4.94,0,0,0,62,64.88c.57-.57,2.19-3.85.81-5.31-.54-.51-1.09-1-1.64-1.51q-1.9-1.7-3.87-3.32,2.2,1.29,4.37,2.65c.72.46,1.44.92,2.15,1.41l.76.54c1.36.77,3.16,1.48,4.12.51A5,5,0,0,0,70,55.41C70.11,55.28,69.14,53.54,68.68,53.14Z"/><path class="cls-1" d="M43.06,66.87,43,66.82l-.18-.19a.6.6,0,0,1-.08-.08l-.16-.15-.11-.09-.14-.11-.12-.09L42.1,66,42,65.94l-.11-.06-.14,0a.32.32,0,0,0-.09,0,.78.78,0,0,0-.21,0,2.59,2.59,0,0,0-2.23,2.48c0,1.08,1.84,2.51,3.5,2.51a24,24,0,0,0,4.22-.6,11.91,11.91,0,0,1-2-1.06C44.69,68.88,43.9,67.75,43.06,66.87Z"/><path class="cls-1" d="M28.73,56.63h0a3.14,3.14,0,0,0-.89-.65h0a2.2,2.2,0,0,0-.91-.21c-1.65,0-1.87,1.75-1.87,3.17a2.59,2.59,0,0,0,2.33,2.48c1,0,2.43-1.84,2.43-2.71A3.54,3.54,0,0,0,28.73,56.63Z"/></svg>