<?xml version="1.0" encoding="utf-8"?>
<!-- Generator: Adobe Illustrator 19.2.1, SVG Export Plug-In . SVG Version: 6.00 Build 0)  -->
<svg version="1.0" id="Layer_1" xmlns="http://www.w3.org/2000/svg" xmlns:xlink="http://www.w3.org/1999/xlink" x="0px" y="0px"
	 viewBox="0 0 165 165" enable-background="new 0 0 165 165" xml:space="preserve">
<circle fill="#E3EFD5" cx="81.6" cy="82.6" r="74.5"/>
<polyline fill="#FFFFFF" points="70.2,42.8 50.6,42.8 50.6,125.6 115.8,125.6 115.8,42.8 97.3,42.8 "/>
<line fill="none" stroke="#81B441" stroke-width="4" stroke-miterlimit="10" x1="71.2" y1="57.9" x2="104.3" y2="57.9"/>
<line fill="none" stroke="#81B441" stroke-width="4" stroke-miterlimit="10" x1="71.2" y1="110.1" x2="104.3" y2="110.1"/>
<line fill="none" stroke="#81B441" stroke-width="4" stroke-miterlimit="10" x1="65.2" y1="57.9" x2="59.1" y2="57.9"/>
<line fill="none" stroke="#81B441" stroke-width="4" stroke-miterlimit="10" x1="65.2" y1="110.1" x2="59.1" y2="110.1"/>
<polyline fill="none" stroke="#81B441" stroke-width="4" stroke-linejoin="round" stroke-miterlimit="10" points="68.2,40.8 
	48.6,40.8 48.6,123.6 114.8,123.6 114.8,40.8 95.3,40.8 "/>
<polygon fill="#FFFFFF" stroke="#81B441" stroke-width="4" stroke-miterlimit="10" points="87.7,36.3 87.7,30.3 75.7,30.3 
	75.7,36.3 67.7,36.3 67.7,46.3 95.8,46.3 95.8,36.3 "/>
<polygon fill="#FFFFFF" stroke="#81B441" stroke-width="4" stroke-miterlimit="10" points="125.1,77.5 82.8,119.8 78.5,132.6 
	91.3,128.3 133.6,86 "/>
<line fill="#FFFFFF" stroke="#81B441" stroke-width="4" stroke-miterlimit="10" x1="114.4" y1="88.2" x2="122.9" y2="96.7"/>
<path opacity="0.22" fill="#81B441" d="M96.4,72.6c-0.8-0.6-3.4-0.8-6.6-0.4c-5.9,2.7-11.4,7.2-13.3,15.7c-0.1,0.2-0.5-0.1-0.6-0.2
	c-0.9-3-1-6,1-9.9c0.3-0.3-0.4-1-0.5-0.8c-0.3,0.2-1.6,1.2-2.6,2.4C69,85,69.9,93.4,75.6,98.1c5.7,4.7,14.1,3.8,18.7-1.8
	C99.8,89.6,98.6,74.4,96.4,72.6z"/>
<g>
	<path fill="#81B441" d="M88.6,69.8c1.5,0,2.6,0.2,3.1,0.5c1.9,1.5,2.9,14.8-1.9,20.6c-2.3,2.8-5.6,4.2-8.9,4.2
		c-2.6,0-5.2-0.9-7.4-2.6c-4.9-4.1-5.7-11.4-1.6-16.3c0.9-1,2-1.9,2.3-2.1c0,0,0,0,0.1,0c0.2,0,0.6,0.5,0.4,0.7
		c-1.7,3.4-1.7,6-0.9,8.6c0.1,0.1,0.3,0.3,0.4,0.3c0,0,0.1,0,0.1-0.1c1.6-7.4,6.4-11.4,11.6-13.7C86.8,69.9,87.8,69.8,88.6,69.8
		 M88.6,65.8c-1,0-2.1,0.1-3.2,0.2c-0.4,0.1-0.8,0.2-1.1,0.3c-2.9,1.3-5.3,2.9-7.3,4.8c-0.7-0.6-1.6-1-2.7-1c0,0,0,0,0,0
		c-0.9,0-1.8,0.3-2.5,0.8c-0.6,0.4-1.8,1.4-2.9,2.6c-2.7,3.1-3.9,7.1-3.6,11.2c0.4,4.2,2.4,8.1,5.6,10.7c2.8,2.3,6.3,3.6,9.9,3.6
		c4.7,0,9-2.1,12-5.7c2.6-3.2,5.1-9.8,4.2-18.7c-0.5-5.1-1.9-6.8-2.9-7.6c0,0-0.1-0.1-0.1-0.1C93.3,66.6,91.8,65.8,88.6,65.8
		L88.6,65.8z"/>
</g>
</svg>
