<svg xmlns="http://www.w3.org/2000/svg" viewBox="0 0 66 66"><defs><style>.cls-1{fill:#fff;fill-rule:evenodd;}</style></defs><g id="Layer_2" data-name="Layer 2"><g id="Layer_1-2" data-name="Layer 1"><circle cx="33" cy="33" r="33"/><path class="cls-1" d="M36.56,27.74a.85.85,0,0,1-.85.84H28.87a.85.85,0,0,1-.84-.81.85.85,0,0,1-.85.81H22a.83.83,0,0,1-.68-.34l-2-2.61L24,21.81l3.79,5.31a.82.82,0,0,1,.24.53V12.35a.85.85,0,0,1,.85-.85h6.84a.85.85,0,0,1,.85.85v2.57H32.29a.85.85,0,0,0-.85.85.86.86,0,0,0,.85.86h4.27v1.7H34.43a.86.86,0,1,0,0,1.71h2.13v1.71H32.29a.86.86,0,0,0,0,1.71h4.27v1.71H34.43a.85.85,0,1,0,0,1.7h2.13v.84a.88.88,0,0,1,.16-.47l.42-.6a.81.81,0,0,0,.21-.3l3.38-4.77a3,3,0,0,1-.69-1,3.57,3.57,0,0,1,.05-2.81,6.43,6.43,0,0,1,.93-1.4c1-1.22,1.51-2,.61-3.41a.84.84,0,0,1,0-1,.87.87,0,0,1,.9-.34,6.43,6.43,0,0,1,4.94,7.18c-.26,2.21-1.56,3.74-3.28,4l-2.6,5.31a.85.85,0,0,1-.77.47H37.42a.86.86,0,0,1-.86-.84Zm7.69,14.51a4.27,4.27,0,1,0,0-8.54H43.4v8.54Zm0-10.25a6,6,0,0,1,0,12H43.4v4.27a4.28,4.28,0,0,1-4.28,4.27H23.75a4.28,4.28,0,0,1-4.27-4.27V31.15a.85.85,0,0,1,.85-.86H42.54a.86.86,0,0,1,.86.86V32ZM41.67,18.4a1.85,1.85,0,0,0-.06,1.49,1.83,1.83,0,0,0,.65.77l1.46.48c1.3,0,1.92-1.36,2.06-2.53a4.86,4.86,0,0,0-2-4.6,5,5,0,0,1-1.43,3.39A5,5,0,0,0,41.67,18.4Zm-22.61.06,3.66,2.18L18.58,24.1l-.8-4.77a.88.88,0,0,1,.36-.85A.83.83,0,0,1,19.06,18.46Z"/></g></g></svg>