<svg id="Layer_1" data-name="Layer 1" xmlns="http://www.w3.org/2000/svg" viewBox="0 0 1063.95 136.93"><defs><style>.cls-1,.cls-2{fill:#fff;}.cls-2{fill-rule:evenodd;}</style></defs><path class="cls-1" d="M524,136.42l-2.83-8h-14.5l-2.83,8h-4.75l12.38-34.11h5.25l12.49,34.11ZM515.37,112c-.61-1.66-1.06-3.18-1.47-4.65h-.1c-.4,1.47-.86,3-1.41,4.55l-4.6,12.89h12.13Z"/><path class="cls-1" d="M559.75,136.88c-10.66,0-16.93-6.27-16.93-16.68,0-10.66,6.27-18.34,18.34-18.34a31.85,31.85,0,0,1,9.45,1.46l-1,4.19a25.05,25.05,0,0,0-8.89-1.66c-9.2,0-12.94,6.47-12.94,13.64,0,8.49,4.7,13.34,12.64,13.34a19.91,19.91,0,0,0,6-.91V119H571v15.87A33.77,33.77,0,0,1,559.75,136.88Z"/><path class="cls-1" d="M596.7,136.42l-11.17-15.26h-.6v15.26h-4.65V102.31c2.32-.15,4.8-.2,8.54-.2,6.72,0,11.57,2.37,11.57,8.89,0,5.81-4.6,9.2-10,9.6,1,1.22,2.08,2.53,2.93,3.64l9.3,12.18ZM588,105.9c-1.16,0-2.17,0-3.08.1v11.62c.5,0,1.51.1,2.88.1,4.9,0,7.73-2.47,7.73-6.11C595.54,107.51,593,105.9,588,105.9Z"/><path class="cls-1" d="M621.25,136.93c-10.66,0-12.78-5.92-12.78-12V102.31h4.65V124.6c0,4.7,1.56,8.48,8.44,8.48,6,0,8.74-2.47,8.74-9.34V102.31h4.55v21.07C634.85,132.33,630.15,136.93,621.25,136.93Z"/><path class="cls-1" d="M665.42,136.42l-13.24-21.88a60.68,60.68,0,0,1-3.59-6.72c.2,3.59.36,13.29.36,19.1v9.5h-4.5V102.31h6.16l13.09,21.48c1.32,2.22,2.63,4.65,3.74,6.92-.15-4.24-.35-13.79-.35-19.71v-8.69h4.5v34.11Z"/><path class="cls-1" d="M689.89,136.62c-3.43,0-6.11-.2-8.64-.2V102.36c2.63,0,6.47-.2,10.21-.2,10.92,0,17.44,5.1,17.44,16.83S701.06,136.62,689.89,136.62ZM691,106c-1.77,0-3.84.1-5.11.15v26.28a32.91,32.91,0,0,0,4.5.3c8,0,13.59-4.14,13.59-13.39C704,110.6,699.85,106,691,106Z"/><path class="cls-1" d="M721.32,106.15v11.07h12.07V121H721.32v15.46h-4.65V102.31h17.38v3.84Z"/><path class="cls-1" d="M754.75,136.93c-10.26,0-15.21-6.83-15.21-17.14,0-11.42,7.28-18,16.17-18,10.26,0,15.21,6.83,15.21,17.14C770.92,130.36,763.6,136.93,754.75,136.93Zm.51-31c-5.91,0-10.77,4.75-10.77,13.19,0,8.18,3.49,13.69,10.72,13.69,5.91,0,10.76-4.7,10.76-13.14C766,111.46,762.43,105.9,755.26,105.9Z"/><path class="cls-1" d="M784.6,136.88a27.51,27.51,0,0,1-7.47-1l.55-4.44a19.68,19.68,0,0,0,7.18,1.36c3.94,0,7.38-1.61,7.38-5.81,0-7.68-15.42-4.65-15.42-15.51,0-5.61,4.25-9.65,11.93-9.65a28.33,28.33,0,0,1,6.16.65l-.55,4.1a20.44,20.44,0,0,0-5.86-.91c-4.65,0-6.88,2.12-6.88,5.3,0,7.33,15.62,4.7,15.62,15.42C797.24,132.53,792.24,136.88,784.6,136.88Z"/><path class="cls-1" d="M828.53,136.83c-11,0-15.52-7-15.52-16.63,0-10.41,5.16-18.19,16.68-18.19a28.57,28.57,0,0,1,7.83,1.06l-.76,4.24a24.09,24.09,0,0,0-7.58-1.31c-7.78,0-11.11,6-11.11,13.44,0,8.39,3.63,13.24,11.57,13.24a18.29,18.29,0,0,0,7.48-1.72l.76,4A25.31,25.31,0,0,1,828.53,136.83Z"/><path class="cls-1" d="M857.46,136.93c-10.26,0-15.21-6.83-15.21-17.14,0-11.42,7.27-18,16.17-18,10.25,0,15.21,6.83,15.21,17.14C873.63,130.36,866.3,136.93,857.46,136.93Zm.5-31c-5.91,0-10.76,4.75-10.76,13.19,0,8.18,3.48,13.69,10.71,13.69,5.91,0,10.76-4.7,10.76-13.14C868.67,111.46,865.14,105.9,858,105.9Z"/><path class="cls-1" d="M914.22,136.42l-2.88-19.76c-.51-3.69-.86-6.62-1.06-8.64h-.11c-.4,1.67-1,3.94-1.77,6.42l-7.27,22h-5l-6.93-20.56a73.67,73.67,0,0,1-2.17-7.84H887c-.15,2.83-.46,5.71-.91,9l-2.33,19.35H879l5-34.11h5.66l7.22,21.53c.61,1.72,1.37,4.45,2,6.77h0c.61-2.38,1.22-4.5,1.87-6.47l7.38-21.83h5.76l5.16,34.11Z"/><path class="cls-1" d="M934.6,123.64c-1.67,0-3.13-.16-3.13-.16v12.94h-4.65V102.31s4.5-.2,8.54-.2c7.88,0,12.18,3.89,12.18,10C947.54,118.84,942.69,123.64,934.6,123.64Zm.25-17.69c-1.82,0-3.38.1-3.38.1v13.44a21.55,21.55,0,0,0,3.53.3c5.21,0,7.74-2.82,7.74-7.12S940.21,106,934.85,106Z"/><path class="cls-1" d="M973.41,136.42l-2.83-8h-14.5l-2.83,8H948.5l12.38-34.11h5.25l12.48,34.11ZM964.82,112c-.61-1.66-1.06-3.18-1.47-4.65h-.1c-.4,1.47-.86,3-1.41,4.55l-4.6,12.89h12.13Z"/><path class="cls-1" d="M1005.76,136.42l-13.24-21.88a60.51,60.51,0,0,1-3.58-6.72c.2,3.59.35,13.29.35,19.1v9.5h-4.5V102.31H991l13.09,21.48c1.31,2.22,2.62,4.65,3.74,6.92-.16-4.24-.36-13.79-.36-19.71v-8.69h4.5v34.11Z"/><path class="cls-1" d="M1033.42,124.14v12.28h-4.65V124.14l-10.66-21.83h5.1l5.41,11.52c1,2,1.82,4,2.58,5.92h0c.81-2.08,1.87-4.3,2.93-6.52l5.26-10.92h4.85Z"/><path class="cls-2" d="M435.25,76.7H361.34c-10.39,0-7.19-11.16-7.19-11.16S369.51,25.86,374.92,12C379.43.45,389.54,0,390.51,0H462c.49,0,14,.41,8.79,14.6s-20,51.74-20,51.74S448,76.7,435.25,76.7Zm-32-52.92s-9.79,26-12.19,31.57,2,6.6,2,6.6h21.58a6.49,6.49,0,0,0,6.59-5s11.39-28,13.38-33.76-1.79-5.2-1.79-5.2h-23c-4.59,0-6.59,5.79-6.59,5.79Z"/><path class="cls-2" d="M205.38,76.7h-74c-10.39,0-7.19-11.17-7.19-11.17L149.72,0h32.83s-19,49.74-21.35,55.34,2,6.59,2,6.59h21.59c4.5,0,6.6-5,6.6-5S211.94,5.8,213.94,0h32.59L221,66.33s-2.72,10.37-15.6,10.37Z"/><path class="cls-2" d="M355.88,11.52s-9.2,23-12.8,32.81-16.8,7.6-16.8,7.6l10.2,24.77h-36l-8.81-25H278.28l-10,25h-32L265.48,0h77.4c17.2,0,13,11.52,13,11.52Zm-70.6,22.61h23.6c5.2,0,6-3.8,6-3.8s.59-1.6,2.4-6.2-1.81-4.6-1.81-4.6h-24.2l-6,14.6Z"/><path class="cls-2" d="M1050.7,44.33c-3.59,9.8-16.8,7.6-16.8,7.6l10.2,24.77h-36l-8.8-25H985.91l-10,25h-32L973.11,0h77.39c17.2,0,13,11.52,13,11.52S1054.3,34.53,1050.7,44.33Zm-57.8-10.2h23.6c5.2,0,6-3.8,6-3.8s.6-1.6,2.41-6.2-1.81-4.6-1.81-4.6H998.9l-6,14.6Z"/><path class="cls-2" d="M113.05,46.17,119,31.07H49.06l6.16-15.69h70l6-15.38H29.66L0,76.7H101.24l5.81-14.86L37.16,62l6-15.8,69.87-.07Z"/><path class="cls-2" d="M935.78,46.17c3.24-8.26,5.91-15.1,5.91-15.1h-69.9L878,15.38h70L954,0H852.39L822.74,76.7H924l5.81-14.86-69.89.2,6-15.8,69.87-.07Z"/><path class="cls-2" d="M717.29,0H668.75L618.43,76.7H645l9.2-13.3H696.5l2.73,13.3h30.68L717.29,0ZM666.16,44l21.48-33.06L693.43,44Z"/><polygon class="cls-2" points="622.64 0 648.66 0 597.99 76.7 559.78 76.7 554.99 28.42 516.64 76.7 485.14 76.7 482.05 0 513.9 0 516.02 43.83 548.14 0 590.11 0 591.83 44.17 622.64 0 622.64 0"/><polygon class="cls-2" points="738.61 22.39 746.98 0 834.63 0 825.63 22.39 802.72 22.39 782.13 76.7 745.43 76.7 766.8 22.39 738.61 22.39 738.61 22.39"/></svg>