<svg xmlns="http://www.w3.org/2000/svg" xmlns:xlink="http://www.w3.org/1999/xlink" viewBox="0 0 2428.77 457.41"><defs><style>.cls-1{fill:#565656;}.cls-2{fill:url(#linear-gradient);}.cls-3{fill:url(#linear-gradient-2);}.cls-4{fill:url(#linear-gradient-3);}.cls-5{fill:url(#linear-gradient-4);}.cls-6{fill:url(#linear-gradient-5);}.cls-7{fill:url(#linear-gradient-6);}</style><linearGradient id="linear-gradient" y1="97.2" x2="181.54" y2="97.2" gradientTransform="translate(72.24 -34.49) rotate(35.03)" gradientUnits="userSpaceOnUse"><stop offset="0" stop-color="#fb8d63"/><stop offset="1" stop-color="#fda96c"/></linearGradient><linearGradient id="linear-gradient-2" x1="0.74" y1="216.02" x2="182.27" y2="216.02" gradientTransform="translate(140.57 -13.39) rotate(35.03)" gradientUnits="userSpaceOnUse"><stop offset="0" stop-color="#fead6d"/><stop offset="0.37" stop-color="#fead6d"/><stop offset="1" stop-color="#feb26d"/></linearGradient><linearGradient id="linear-gradient-3" x1="1.47" y1="334.83" x2="183.01" y2="334.83" gradientTransform="translate(208.9 7.71) rotate(35.03)" gradientUnits="userSpaceOnUse"><stop offset="0.04" stop-color="#fdac6b"/><stop offset="0.95" stop-color="#fdbd7c"/></linearGradient><linearGradient id="linear-gradient-4" x1="127.11" y1="249.92" x2="86.32" y2="179.26" gradientUnits="userSpaceOnUse"><stop offset="0.15" stop-color="#feba7d"/><stop offset="0.76" stop-color="#febe7f"/></linearGradient><linearGradient id="linear-gradient-5" x1="40.11" y1="153.7" x2="161.67" y2="72.12" gradientUnits="userSpaceOnUse"><stop offset="0" stop-color="#feb16e"/><stop offset="1" stop-color="#ffb76e"/></linearGradient><linearGradient id="linear-gradient-6" x1="46.3" y1="403.6" x2="179.67" y2="270.23" gradientUnits="userSpaceOnUse"><stop offset="0.04" stop-color="#fca56c"/><stop offset="0.95" stop-color="#fea368"/></linearGradient></defs><title>Asset 2</title><g id="Layer_2" data-name="Layer 2"><g id="Layer_1-2" data-name="Layer 1"><path class="cls-1" d="M274.23,67.48H472.42v56.28H333.73v66.73h121.8v55.88H333.73V364.55h-59.5Z"/><path class="cls-1" d="M720.49,145.47V364.55H666.62V339.23c-16.08,17.28-39,30.55-70,30.55-63.51,0-108.53-50.66-108.53-115.78,0-65.92,46.23-114.16,108.53-114.16,31,0,53.47,13.67,70,31.75V145.47ZM667.43,254.81c0-34.17-25.33-63.12-61.51-63.12-36.58,0-61.1,28.95-61.1,63.12,0,35,24.92,63.51,61.1,63.51S667.43,289.38,667.43,254.81Z"/><path class="cls-1" d="M752,328l30.15-35.78c15.68,18.9,38.59,30.55,60.7,30.55,17.29,0,30.15-8.84,30.15-21.3,0-8-5.23-14.07-15.68-18.89-12.06-5.63-41-14.88-54.27-21.71-24.92-12.06-37.78-31.36-37.78-56.68,0-38.19,32.15-65.93,82-65.93,28.14,0,55.48,9.24,76.78,31.36l-28.14,36.57c-16.48-15.67-35.37-21.7-50.25-21.7-15.68,0-24.92,8.44-24.92,18.49,0,7.64,4.82,15.28,19.29,20.1,13.67,5.23,35.38,12.46,52.67,21.31,24.52,12.86,37,29.74,37,55.47,0,39.8-33.77,70.35-87.23,70.35C807.48,370.18,774.12,356.11,752,328Z"/><path class="cls-1" d="M1125.66,351.69c-17.29,11.65-42.21,18.09-64.72,18.09-50.25,0-76.38-29.75-76.38-86.43V192.9H948.78V145.47H985V67.88h56.28v77.59h72.36V192.9h-72.36v86.83c0,25.33,9.65,38.59,31,38.59,14.07,0,25.73-5.22,36.59-11.25Z"/><path class="cls-1" d="M1144.56,313.9l34.17-41.4c19.7,26.93,48.64,41.4,78.79,41.4,24.92,0,42.61-13.27,42.61-31.76,0-14.87-11.66-23.72-26.93-30.95-18.9-8.85-43.42-16.08-64.32-27.74-26.13-14.87-47-37-47-74,0-49,41-86.83,101.31-86.83,34.57,0,69.94,12.06,97.68,40.21l-31.76,43.41c-17.69-18.49-44.62-27.74-65.12-27.74-23.72,0-38.19,11.66-38.19,28.54,0,14.88,12.06,23.32,24.12,29.35,15.68,7.23,45.42,18.49,65.53,28.54,28.94,14.07,50.65,36.18,50.65,74,0,52.66-43.82,90.44-108.94,90.44C1211.69,369.37,1169.88,350.48,1144.56,313.9Z"/><path class="cls-1" d="M1636.6,254.81c0,63.51-45,115-108.14,115-30.55,0-52.66-13.27-68.74-30.55V454.6H1403V145.47h56.28V172.4c16.08-18.49,38.59-32.56,69.54-32.56C1591.57,139.84,1636.6,191.29,1636.6,254.81Zm-57.08.4c0-34.57-24.13-62.71-60.71-62.71-36.18,0-60.3,28.14-60.3,62.71s24.12,62.71,60.3,62.71C1555.39,317.92,1579.52,289.78,1579.52,255.21Z"/><path class="cls-1" d="M1675.32,145.47h54.26v29.34c13.67-24.12,34.57-35.38,60.3-35.38a80.59,80.59,0,0,1,26.53,4.83l-4.82,54.27a87,87,0,0,0-26.13-4.42c-29.75,0-53.47,18.49-53.47,66.32V364.55h-56.67Z"/><path class="cls-1" d="M1844.15,86c0-19.7,15.28-34.57,35-34.57s35,14.87,35,34.57c0,20.1-15.28,35-35,35S1844.15,106.07,1844.15,86Zm6.43,278.58V145.47h56.69V364.55Z"/><path class="cls-1" d="M1956.43,145.47h55.48V176c11.25-20.51,36.18-36.59,68.74-36.59,44.22,0,85.62,29.35,85.62,91.26V364.55h-56.68V246c0-35.37-18.89-54.27-46.23-54.27-29.75,0-50.25,22.52-50.25,55.48V364.55h-56.68Z"/><path class="cls-1" d="M2428.77,145.47V342.85c0,71.15-51.05,114.56-121.4,114.56-38.59,0-74.77-13.26-100.5-31.76L2229,383c19.7,13.27,47.44,25.73,76.78,25.73,44.63,0,68.34-26.53,68.34-60.7V336.81c-15.27,16.89-37,28.14-67.53,28.14-64.72,0-109.35-47.83-109.35-112.15,0-66.33,49.45-113,111.76-113,29.75,0,51.86,12.46,67.53,29.75V145.47ZM2375.71,253.2c0-35.38-25.73-61.51-60.7-61.51s-60.7,26.13-60.7,61.51c0,35.78,25.73,62.31,60.7,62.31S2375.71,288.58,2375.71,253.2Z"/><path class="cls-2" d="M40,57.48H203.44a0,0,0,0,1,0,0v17.6a61.85,61.85,0,0,1-61.85,61.85H-21.9a0,0,0,0,1,0,0v-17.6A61.85,61.85,0,0,1,40,57.48Z" transform="translate(-39.35 69.71) rotate(-35.03)"/><path class="cls-3" d="M40.69,176.29H204.17a0,0,0,0,1,0,0v17.6a61.85,61.85,0,0,1-61.85,61.85H-21.16a0,0,0,0,1,0,0v-17.6A61.85,61.85,0,0,1,40.69,176.29Z" transform="translate(-107.42 91.66) rotate(-35.03)"/><path class="cls-4" d="M41.43,295.1H204.91a0,0,0,0,1,0,0v17.6a61.85,61.85,0,0,1-61.85,61.85H-20.43a0,0,0,0,1,0,0V357A61.85,61.85,0,0,1,41.43,295.1Z" transform="translate(-175.48 113.6) rotate(-35.03)"/><path class="cls-5" d="M92.77,210A344.89,344.89,0,0,0,43.4,298.25l112.52-78.87a61.86,61.86,0,0,0,15.14-86.16l-1.44-2.05C142.14,155.77,115.34,181,92.77,210Z"/><path class="cls-6" d="M152,83c-37.76,26.15-84.32,35.71-125.86,55.29A262.32,262.32,0,0,0,.49,152.19,61.39,61.39,0,0,0,11.21,180l10.1,14.41,133.87-93.84a61.69,61.69,0,0,0,26.21-46.75A117.55,117.55,0,0,1,152,83Z"/><path class="cls-7" d="M180.89,271.46c-30.95,5.27-61.48,15.4-84.56,36.06-28.71,25.7-41.82,64.55-43,103.09l0,0,103.33-72.44A61.87,61.87,0,0,0,180.89,271.46Z"/></g></g></svg>