<svg xmlns="http://www.w3.org/2000/svg" xmlns:xlink="http://www.w3.org/1999/xlink" viewBox="0 0 538 144.46"><defs><style>.cls-1{fill:#565656;}.cls-2{fill:url(#linear-gradient);}.cls-3{fill:url(#linear-gradient-2);}.cls-4{fill:url(#linear-gradient-3);}.cls-5{fill:url(#linear-gradient-4);}.cls-6{fill:url(#linear-gradient-5);}.cls-7{fill:url(#linear-gradient-6);}</style><linearGradient id="linear-gradient" y1="21.53" x2="40.21" y2="21.53" gradientTransform="translate(16 -7.64) rotate(35.03)" gradientUnits="userSpaceOnUse"><stop offset="0" stop-color="#fb8d63"/><stop offset="1" stop-color="#fda96c"/></linearGradient><linearGradient id="linear-gradient-2" x1="0.16" y1="47.85" x2="40.38" y2="47.85" gradientTransform="translate(31.14 -2.97) rotate(35.03)" gradientUnits="userSpaceOnUse"><stop offset="0" stop-color="#fead6d"/><stop offset="0.37" stop-color="#fead6d"/><stop offset="1" stop-color="#feb26d"/></linearGradient><linearGradient id="linear-gradient-3" x1="0.33" y1="74.17" x2="40.54" y2="74.17" gradientTransform="translate(46.27 1.71) rotate(35.03)" gradientUnits="userSpaceOnUse"><stop offset="0.04" stop-color="#fdac6b"/><stop offset="0.95" stop-color="#fdbd7c"/></linearGradient><linearGradient id="linear-gradient-4" x1="28.16" y1="55.36" x2="19.12" y2="39.71" gradientUnits="userSpaceOnUse"><stop offset="0.15" stop-color="#feba7d"/><stop offset="0.76" stop-color="#febe7f"/></linearGradient><linearGradient id="linear-gradient-5" x1="8.88" y1="34.05" x2="35.81" y2="15.98" gradientUnits="userSpaceOnUse"><stop offset="0" stop-color="#feb16e"/><stop offset="1" stop-color="#ffb76e"/></linearGradient><linearGradient id="linear-gradient-6" x1="10.26" y1="89.4" x2="39.8" y2="59.86" gradientUnits="userSpaceOnUse"><stop offset="0.04" stop-color="#fca56c"/><stop offset="0.95" stop-color="#fea368"/></linearGradient></defs><g id="Layer_2" data-name="Layer 2"><g id="Expanded"><path class="cls-1" d="M190,111.21v28.08H185.6V111.21Z"/><path class="cls-1" d="M196,118.81h4.1v2.89a7.19,7.19,0,0,1,6.5-3.42c4.18,0,8.06,2.73,8.06,8.55v12.46h-4.22V128c0-3.84-2-5.86-4.9-5.86-3.16,0-5.36,2.44-5.36,5.93v11.21H196Z"/><path class="cls-1" d="M233.27,138.07a9.68,9.68,0,0,1-5.66,1.71c-4.52,0-6.73-2.85-6.73-7.82v-9.58h-3.53v-3.57h3.57v-7.26h4.14v7.26h7.07v3.57h-7.07V132c0,2.47.88,3.92,3.16,3.92a7.19,7.19,0,0,0,3.61-1.14Z"/><path class="cls-1" d="M254.65,130.67h-16c.57,2.92,2.58,5.35,6.8,5.35a13,13,0,0,0,6.95-2.2l1.75,3.08a15.16,15.16,0,0,1-8.86,2.85c-7.71,0-11-5.36-11-10.76,0-6.08,4.18-10.67,10.45-10.67,5.74,0,10,3.83,10,10.33A13.6,13.6,0,0,1,254.65,130.67Zm-16-3.42h11.93a5.67,5.67,0,0,0-5.82-5.32A6.12,6.12,0,0,0,238.66,127.25Z"/><path class="cls-1" d="M259.12,118.81h4v2.93a6.11,6.11,0,0,1,5.82-3.46,8.54,8.54,0,0,1,2.43.34l-.38,4.07a6.67,6.67,0,0,0-2.24-.38c-3,0-5.44,1.93-5.44,6.49v10.49h-4.18Z"/><path class="cls-1" d="M294,118.81v20.48h-4v-2.81a8.91,8.91,0,0,1-7,3.3c-5.92,0-10.22-4.74-10.22-10.86s4.33-10.6,10.22-10.6a8.91,8.91,0,0,1,7,3.34v-2.85ZM290.17,129a6.61,6.61,0,0,0-6.61-6.88c-4,0-6.57,3.16-6.57,6.92s2.58,6.88,6.57,6.88A6.62,6.62,0,0,0,290.17,129Z"/><path class="cls-1" d="M298.3,129.07c0-6.27,4.53-10.75,11-10.75a10.26,10.26,0,0,1,9.43,5.47l-3.46,1.94a6.93,6.93,0,0,0-5.93-3.58,6.71,6.71,0,0,0-6.8,6.92,6.6,6.6,0,0,0,6.65,6.84,7,7,0,0,0,6-3.5l3.45,2a10.61,10.61,0,0,1-9.46,5.32C302.79,139.75,298.3,135.26,298.3,129.07Z"/><path class="cls-1" d="M336.76,138.07a9.64,9.64,0,0,1-5.66,1.71c-4.52,0-6.72-2.85-6.72-7.82v-9.58h-3.53v-3.57h3.57v-7.26h4.14v7.26h7.06v3.57h-7.06V132c0,2.47.87,3.92,3.15,3.92a7.16,7.16,0,0,0,3.61-1.14Z"/><path class="cls-1" d="M339,113.26a2.77,2.77,0,0,1,2.89-2.77,2.71,2.71,0,0,1,2.77,2.77,2.75,2.75,0,0,1-2.77,2.85A2.81,2.81,0,0,1,339,113.26Zm.72,26V118.81h4.18v20.48Z"/><path class="cls-1" d="M368,118.81l-9,20.44h-3l-9-20.44h4.64l5.89,14.63,5.85-14.63Z"/><path class="cls-1" d="M389.24,130.67h-16c.57,2.92,2.58,5.35,6.8,5.35a13,13,0,0,0,6.95-2.2l1.75,3.08a15.15,15.15,0,0,1-8.85,2.85c-7.71,0-11-5.36-11-10.76,0-6.08,4.18-10.67,10.45-10.67,5.73,0,10,3.83,10,10.33A13.43,13.43,0,0,1,389.24,130.67Zm-16-3.42h11.93a5.66,5.66,0,0,0-5.81-5.32A6.13,6.13,0,0,0,373.25,127.25Z"/><path class="cls-1" d="M431.88,143.66a11.94,11.94,0,0,1-4.37.8,13,13,0,0,1-9.76-4.71h-.57a14.44,14.44,0,1,1,5.47-1,7.72,7.72,0,0,0,5.16,1.94,10.75,10.75,0,0,0,3.5-.65Zm-14.7-8.17a10.24,10.24,0,1,0-10-10.18A9.94,9.94,0,0,0,417.18,135.49Z"/><path class="cls-1" d="M436,130.89V118.81h4.18v12.05c0,3.07,1.75,5,4.79,5s4.79-2,4.79-5V118.81H454v12.08c0,5.59-3.42,8.89-9,8.89S436,136.4,436,130.89Z"/><path class="cls-1" d="M457.94,129a10.83,10.83,0,1,1,10.83,10.79A10.57,10.57,0,0,1,457.94,129Zm17.44,0a6.62,6.62,0,1,0-6.61,6.88A6.75,6.75,0,0,0,475.38,129Z"/><path class="cls-1" d="M497.23,138.07a9.66,9.66,0,0,1-5.66,1.71c-4.52,0-6.72-2.85-6.72-7.82v-9.58h-3.54v-3.57h3.57v-7.26H489v7.26h7.06v3.57H489V132c0,2.47.87,3.92,3.15,3.92a7.16,7.16,0,0,0,3.61-1.14Z"/><path class="cls-1" d="M518.62,130.67h-16c.57,2.92,2.58,5.35,6.8,5.35a13,13,0,0,0,6.95-2.2l1.75,3.08a15.15,15.15,0,0,1-8.85,2.85c-7.72,0-11-5.36-11-10.76,0-6.08,4.18-10.67,10.45-10.67,5.73,0,10,3.83,10,10.33A15.1,15.1,0,0,1,518.62,130.67Zm-16-3.42h11.93a5.66,5.66,0,0,0-5.81-5.32A6.13,6.13,0,0,0,502.62,127.25Z"/><path class="cls-1" d="M521.08,135.49l2.69-2.43a6.36,6.36,0,0,0,5.25,3.11c2.05,0,3.38-1.17,3.38-2.54a2.64,2.64,0,0,0-1.75-2.36c-1.21-.6-3.8-1.52-5-2.2a5.59,5.59,0,0,1-3.27-5c0-3.35,2.7-5.89,7-5.89a8.24,8.24,0,0,1,6.73,3.15l-2.43,2.58a5.83,5.83,0,0,0-4.49-2.24c-1.78,0-2.73,1.07-2.73,2.24a2.44,2.44,0,0,0,1.71,2.25c1.36.6,3.38,1.33,5,2.16,2.21,1.14,3.5,2.74,3.5,5.17,0,3.49-3,6.34-7.64,6.34A9,9,0,0,1,521.08,135.49Z"/><path class="cls-1" d="M60.75,15h43.9V27.41H73.92V42.19h27V54.57h-27V80.75H60.75Z"/><path class="cls-1" d="M159.6,32.22V80.75H147.66V75.14a20.55,20.55,0,0,1-15.49,6.77c-14.07,0-24-11.22-24-25.65,0-14.6,10.24-25.28,24-25.28a20.25,20.25,0,0,1,15.49,7V32.22ZM147.84,56.44c0-7.57-5.61-14-13.62-14s-13.54,6.41-13.54,14c0,7.75,5.52,14.07,13.54,14.07S147.84,64.1,147.84,56.44Z"/><path class="cls-1" d="M166.58,72.65l6.68-7.93a18,18,0,0,0,13.44,6.77c3.83,0,6.68-2,6.68-4.72,0-1.78-1.16-3.11-3.47-4.18-2.67-1.25-9.08-3.3-12-4.81-5.52-2.67-8.37-7-8.37-12.56,0-8.46,7.12-14.6,18.16-14.6a23,23,0,0,1,17,7l-6.23,8.1a16.46,16.46,0,0,0-11.13-4.81c-3.48,0-5.53,1.87-5.53,4.1,0,1.69,1.07,3.38,4.28,4.45a118.13,118.13,0,0,1,11.66,4.72c5.44,2.85,8.2,6.59,8.2,12.29,0,8.81-7.48,15.58-19.33,15.58A25.07,25.07,0,0,1,166.58,72.65Z"/><path class="cls-1" d="M249.35,77.9a26.94,26.94,0,0,1-14.34,4c-11.13,0-16.92-6.59-16.92-19.15v-20h-7.92V32.22h8V15h12.47V32.22h16V42.73h-16V62c0,5.61,2.13,8.55,6.85,8.55A16.48,16.48,0,0,0,245.61,68Z"/><path class="cls-1" d="M253.53,69.53l7.57-9.17a21.55,21.55,0,0,0,17.45,9.17c5.53,0,9.44-2.94,9.44-7,0-3.3-2.58-5.26-6-6.86-4.19-2-9.62-3.56-14.25-6.14-5.79-3.3-10.42-8.2-10.42-16.39,0-10.86,9.08-19.23,22.44-19.23a30,30,0,0,1,21.64,8.9l-7,9.62A21.08,21.08,0,0,0,280,26.26c-5.25,0-8.46,2.58-8.46,6.32,0,3.29,2.67,5.16,5.34,6.5,3.48,1.6,10.06,4.09,14.52,6.32,6.41,3.12,11.22,8,11.22,16.39,0,11.66-9.71,20-24.13,20C268.4,81.82,259.14,77.64,253.53,69.53Z"/><path class="cls-1" d="M362.52,56.44c0,14.07-10,25.47-23.95,25.47a20.13,20.13,0,0,1-15.23-6.77V100.7H310.79V32.22h12.47v6A19.76,19.76,0,0,1,338.66,31C352.55,31,362.52,42.37,362.52,56.44Zm-12.64.09c0-7.66-5.34-13.89-13.45-13.89s-13.35,6.23-13.35,13.89,5.34,13.89,13.35,13.89S349.88,64.19,349.88,56.53Z"/><path class="cls-1" d="M371.1,32.22h12v6.5a14.53,14.53,0,0,1,13.36-7.83A17.71,17.71,0,0,1,402.36,32l-1.07,12a19.07,19.07,0,0,0-5.79-1c-6.59,0-11.84,4.09-11.84,14.69V80.75H371.1Z"/><path class="cls-1" d="M408.5,19A7.75,7.75,0,0,1,424,19a7.75,7.75,0,1,1-15.49,0Zm1.42,61.71V32.22h12.56V80.75Z"/><path class="cls-1" d="M433.37,32.22h12.29V39c2.49-4.54,8-8.1,15.23-8.1,9.79,0,19,6.5,19,20.21V80.75H467.3V54.48c0-7.83-4.19-12-10.24-12-6.59,0-11.13,5-11.13,12.29v26H433.37Z"/><path class="cls-1" d="M538,32.22V75.94c0,15.76-11.31,25.38-26.89,25.38a39,39,0,0,1-22.26-7l4.89-9.44c4.37,2.94,10.51,5.7,17,5.7,9.89,0,15.14-5.88,15.14-13.45V74.61c-3.38,3.74-8.19,6.23-15,6.23-14.34,0-24.22-10.59-24.22-24.84,0-14.7,11-25,24.75-25a19.53,19.53,0,0,1,15,6.59V32.22ZM526.25,56.09c0-7.84-5.7-13.63-13.45-13.63s-13.45,5.79-13.45,13.63,5.7,13.8,13.45,13.8S526.25,63.92,526.25,56.09Z"/><path class="cls-2" d="M8.85,12.73H45.06a0,0,0,0,1,0,0v3.9a13.7,13.7,0,0,1-13.7,13.7H-4.85a0,0,0,0,1,0,0v-3.9a13.7,13.7,0,0,1,13.7-13.7Z" transform="translate(-8.72 15.44) rotate(-35.03)"/><path class="cls-3" d="M9,39.05H45.23a0,0,0,0,1,0,0v3.9a13.7,13.7,0,0,1-13.7,13.7H-4.69a0,0,0,0,1,0,0v-3.9A13.7,13.7,0,0,1,9,39.05Z" transform="translate(-23.79 20.3) rotate(-35.03)"/><path class="cls-4" d="M9.18,65.37H45.39a0,0,0,0,1,0,0v3.9A13.7,13.7,0,0,1,31.69,83H-4.52a0,0,0,0,1,0,0v-3.9a13.7,13.7,0,0,1,13.7-13.7Z" transform="translate(-38.87 25.16) rotate(-35.03)"/><path class="cls-5" d="M20.55,46.53A76.3,76.3,0,0,0,9.61,66.07L34.54,48.59a13.69,13.69,0,0,0,3.35-19.08l-.32-.46C31.49,34.5,25.55,40.08,20.55,46.53Z"/><path class="cls-6" d="M33.66,18.39C25.3,24.18,15,26.3,5.78,30.64A59.52,59.52,0,0,0,.11,33.71a13.61,13.61,0,0,0,2.37,6.16l2.24,3.19L34.37,22.28a13.66,13.66,0,0,0,5.81-10.36A26,26,0,0,1,33.66,18.39Z"/><path class="cls-7" d="M40.07,60.13c-6.86,1.17-13.62,3.41-18.73,8C15,73.81,12.07,82.42,11.81,91h0l22.89-16A13.71,13.71,0,0,0,40.07,60.13Z"/></g></g></svg>