<?xml version="1.0" encoding="UTF-8"?>
<svg width="18px" height="18px" viewBox="0 0 18 18" version="1.1" xmlns="http://www.w3.org/2000/svg" xmlns:xlink="http://www.w3.org/1999/xlink">
    <title>8131BF63-72FE-48EB-8FA5-D2976F566FD4@1x</title>
    <defs>
        <path d="M11.292316,16.6012399 C12.4030183,15.1061859 13.1452512,12.5396061 13.2236038,9.52938062 L16.9157094,9.52938062 C16.6933572,12.8773697 14.3946588,15.6641841 11.292316,16.6012399 L11.292316,16.6012399 Z M1.08634939,9.52938062 L4.77739615,9.52938062 C4.85574884,12.5396061 5.59798171,15.1061859 6.70868396,16.6012399 C3.60739998,15.6641841 1.30870161,12.8773697 1.08634939,9.52938062 L1.08634939,9.52938062 Z M6.70868396,1.39976013 C5.59798171,2.89481407 4.85574884,5.46139392 4.77739615,8.47056056 L1.08634939,8.47056056 C1.30870161,5.1225715 3.60739998,2.33575707 6.70868396,1.39976013 L6.70868396,1.39976013 Z M5.83621622,8.47056056 C5.95692171,4.07857491 7.55574002,1.05882007 8.99997059,1.05882007 C10.44526,1.05882007 12.0440783,4.07857491 12.1658426,8.47056056 L5.83621622,8.47056056 Z M8.99997059,16.9411211 C7.55574002,16.9411211 5.95692171,13.9224251 5.83621622,9.52938062 L12.1658426,9.52938062 C12.0440783,13.9224251 10.44526,16.9411211 8.99997059,16.9411211 L8.99997059,16.9411211 Z M16.9157094,8.47056056 L13.2236038,8.47056056 C13.1452512,5.46139392 12.4030183,2.89481407 11.292316,1.39976013 C14.3946588,2.33575707 16.6933572,5.1225715 16.9157094,8.47056056 L16.9157094,8.47056056 Z M8.99997059,-1.13686838e-13 C4.03728092,-1.13686838e-13 0,4.03833974 0,8.99997059 C0,13.9626603 4.03728092,17.9999412 8.99997059,17.9999412 C13.9626603,17.9999412 18.001,13.9626603 18.001,8.99997059 C18.001,4.03833974 13.9626603,-1.13686838e-13 8.99997059,-1.13686838e-13 L8.99997059,-1.13686838e-13 Z" id="path-1"></path>
    </defs>
    <g id="B2B-v4b" stroke="none" stroke-width="1" fill="none" fill-rule="evenodd">
        <g id="Menu-B2B-v4---00---log1" transform="translate(-42.000000, -15.000000)">
            <g id="IDIOMA-Copy" transform="translate(42.000000, 12.000000)">
                <g id="icono/accion/MUNDO" transform="translate(0.000000, 3.000000)">
                    <mask id="mask-2" fill="white">
                        <use xlink:href="#path-1"></use>
                    </mask>
                    <g id="Rectangle" fill-rule="nonzero"></g>
                    <g id="color/black" mask="url(#mask-2)" fill="#232323">
                        <g transform="translate(-3.000000, -3.000000)" id="Change-Fill-Color">
                            <rect x="0" y="0" width="24" height="24"></rect>
                        </g>
                    </g>
                </g>
            </g>
        </g>
    </g>
</svg>