<?xml version="1.0" encoding="utf-8"?>
<!-- Generator: Adobe Illustrator 22.1.0, SVG Export Plug-In . SVG Version: 6.00 Build 0)  -->
<svg version="1.1" id="Layer_1" xmlns="http://www.w3.org/2000/svg" xmlns:xlink="http://www.w3.org/1999/xlink" x="0px" y="0px"
	 viewBox="0 0 120 100" style="enable-background:new 0 0 120 100;" xml:space="preserve">
<style type="text/css">
	.st0{fill:#B90B3A;}
	.st1{fill-rule:evenodd;clip-rule:evenodd;fill:#FFFFFF;}
</style>
<rect class="st0" width="120" height="100"/>
<g>
	<g>
		<g>
			<path class="st1" d="M61.6,48.8c-3,0-5.9,1.3-7.8,3.4l-0.9,1c-1.1,1.6-1.7,3.3-1.7,5c0,3.7,2.7,6.2,7,6.2c2.6,0,5.1-0.8,7-2.5
				c2.3-1.9,3.5-4.4,3.5-6.8C68.7,51.3,66.1,48.8,61.6,48.8z M59,62.1c-1.6,0-2.6-1.2-2.6-3.5c0-4.6,2.4-7.7,4.6-7.7
				c1.6,0,2.4,1.3,2.4,3.7C63.5,59.1,61.3,62.1,59,62.1z"/>
		</g>
	</g>
	<path class="st1" d="M42.2,54.1c0,0-9.2,0-9.2,0l-0.2,1.1l1.5,1.5c-0.3,1.8-0.4,2.9-0.7,4.6c-1,0.4-2,0.6-2.9,0.6
		c-3.6,0-6-2.6-6-6.8c0-4.9,3.4-8.2,8.1-8.2c1.7,0,2.5,0.3,4,1l1.1,2.2l1.1,0.3c0.7-1.6,1.4-3.2,2-4.7c-2.2-1-4.8-1.6-7.5-1.6
		c-4,0-7.5,1.1-10.1,3.1c-3.2,2.4-5,5.7-5,8.9c0,5.3,4.3,8.8,11.3,8.8c3.6,0,5.7-0.4,9.1-2.1l1.4-6.1l1.6-1.3
		c-0.8,3.9-1.7,8.9-1.7,8.9s6.7,0,6.7,0l0.2-1l-1.8-1.2c0.8-6.6,3.4-10.4,5.2-10.4c0.2,0,0.2,0,0.5,0.1l0.3,1.2l0.6,0.1
		c0,0,1.9-2.9,2.5-3.9c-0.6-0.3-1.2-0.5-1.8-0.5c-2.1,0-3.9,0.3-5.2,2.8c0,0,0.6-2.7,0.6-2.7l-6.4,0l-0.2,0.9l1.5,1.1
		C42.6,51.6,42.2,54.1,42.2,54.1z"/>
	<path class="st1" d="M79.1,48.9L79,49.8l1.5,1c-1,7.1-2.5,10.5-5.1,10.5c-1,0-1.5-0.6-1.5-1.8c0-1.5,0.9-4.9,2.1-10.6
		c0,0-5,0-6.7,0l-0.1,0.9l1.5,1c-0.6,4.3-1.8,7.8-1.8,9.5c0,2.4,1.6,4.1,4,4.1c2.1,0,4.3-1.3,6.4-4c-0.3,1.3-0.6,2.8-1,3.9h5.9
		l0.2-1l-1.3-1.2c0.4-2.1,1.3-7,2.5-12.3l1.7,1.1c-1.2,6.4-4.5,20.3-4.5,20.3s7.7,0,7.7,0l0.2-0.9l-2.1-1.6c0.3-1.7,0.5-2.7,0.9-4.6
		c0.9,0.2,2.2,0.3,2.9,0.3c2.2,0,4-1,5.9-3c2-2.1,3.1-4.5,3.1-6.7c0-3.4-2.1-5.8-4.7-5.8c-1.5,0-3.1,0.9-4.9,2.7
		c0.3-1.1,0.6-2,0.8-2.7L79.1,48.9z M90.1,61.4l1.1-4.7c0.7-3.1,1.9-4.7,3.4-4.7c1,0,1.8,1,1.8,2.7c0,2.1-0.7,4.3-1.6,5.7
		c-0.7,1.1-1.5,1.6-2.5,1.6C91.7,62,91,61.8,90.1,61.4L90.1,61.4z"/>
	<path class="st1" d="M64.2,30c0,0.8-1.1,1.5-2.3,1.4c-1.2-0.1-2.1-0.8-2.1-1.6c0-0.8,1.1-1.5,2.3-1.4C63.3,28.5,64.2,29.2,64.2,30z
		"/>
	<path class="st1" d="M63.6,35.8c0,0.7-0.9,1.2-1.8,1.2c-1,0-1.7-0.6-1.7-1.3c0-0.7,0.9-1.2,1.8-1.2C62.9,34.6,63.6,35.2,63.6,35.8z
		"/>
	<path class="st1" d="M63.1,40.7c0,0.5-0.6,0.9-1.4,0.9c-0.7,0-1.3-0.5-1.3-1c0-0.5,0.6-0.9,1.4-0.9C62.6,39.7,63.2,40.1,63.1,40.7z
		"/>
	<path class="st1" d="M62.7,44.4c0,0.4-0.6,0.8-1.2,0.8c-0.6,0-1.1-0.4-1.1-0.9c0-0.4,0.6-0.8,1.2-0.8C62.2,43.6,62.7,44,62.7,44.4z
		"/>
	<path class="st1" d="M38.6,39.9c-0.3,0.8-1.5,1.1-2.6,0.7c-1.1-0.4-1.8-1.4-1.5-2.2c0.3-0.8,1.5-1.1,2.6-0.7
		C38.3,38.1,39,39.1,38.6,39.9z"/>
	<path class="st1" d="M44.2,40.6c-0.2,0.6-1.2,0.9-2.1,0.5c-0.9-0.3-1.4-1.1-1.2-1.8c0.2-0.6,1.2-0.9,2.1-0.5
		C44,39.2,44.5,40,44.2,40.6z"/>
	<path class="st1" d="M49.2,42.5c-0.2,0.5-0.9,0.7-1.6,0.4c-0.7-0.3-1.1-0.9-0.9-1.3c0.2-0.5,0.9-0.7,1.6-0.4
		C49,41.4,49.4,42,49.2,42.5z"/>
	<path class="st1" d="M52.4,44.9c-0.2,0.4-0.8,0.6-1.4,0.4c-0.6-0.2-0.9-0.7-0.8-1.2c0.2-0.4,0.8-0.6,1.4-0.3
		C52.2,43.9,52.6,44.4,52.4,44.9z"/>
	<path class="st1" d="M55.2,47.2c-0.1,0.3-0.6,0.4-1.1,0.3c-0.5-0.2-0.7-0.6-0.6-0.9c0.1-0.3,0.6-0.4,1.1-0.3
		C55,46.5,55.3,46.9,55.2,47.2z"/>
	<g>
		<path class="st1" d="M88.9,42.9c0.1,0.8-0.7,1.7-1.9,1.9c-1.2,0.2-2.2-0.3-2.4-1.2c-0.1-0.8,0.7-1.7,1.9-1.9
			C87.7,41.6,88.8,42.1,88.9,42.9z"/>
		<path class="st1" d="M82.8,43c0.1,0.7-0.6,1.3-1.5,1.5c-0.9,0.2-1.8-0.3-1.9-0.9c-0.1-0.7,0.6-1.3,1.5-1.5
			C81.8,41.9,82.7,42.3,82.8,43z"/>
		<path class="st1" d="M77.1,43.8c0.1,0.5-0.4,1-1.2,1.1c-0.7,0.1-1.4-0.2-1.5-0.7c-0.1-0.5,0.5-1,1.2-1.1
			C76.3,43,77,43.3,77.1,43.8z"/>
		<path class="st1" d="M72.6,45.2c0.1,0.4-0.4,0.9-1,1c-0.6,0.1-1.2-0.2-1.3-0.6c-0.1-0.4,0.4-0.9,1-1C72,44.4,72.6,44.7,72.6,45.2z
			"/>
		<path class="st1" d="M69.2,46.8c0.1,0.4-0.3,0.7-0.8,0.8c-0.5,0.1-0.9-0.1-1-0.5c-0.1-0.4,0.3-0.7,0.8-0.8
			C68.7,46.2,69.1,46.5,69.2,46.8z"/>
	</g>
	<path class="st1" d="M48.1,32.5c0.2,0.8-0.7,1.6-1.9,1.8c-1.2,0.1-2.3-0.4-2.4-1.3c-0.2-0.8,0.7-1.6,1.9-1.8
		C46.9,31.1,48,31.6,48.1,32.5z"/>
	<path class="st1" d="M52.5,35.6c0.1,0.7-0.5,1.3-1.5,1.4c-1,0.1-1.8-0.4-1.9-1c-0.1-0.7,0.5-1.3,1.5-1.4
		C51.5,34.5,52.4,34.9,52.5,35.6z"/>
	<path class="st1" d="M55.6,38.7c0.1,0.5-0.4,1-1.1,1.1c-0.7,0.1-1.4-0.3-1.5-0.8c-0.1-0.5,0.4-1,1.1-1.1
		C54.9,37.8,55.5,38.2,55.6,38.7z"/>
	<path class="st1" d="M57.4,42.1c0.1,0.5-0.4,0.9-1,0.9c-0.6,0.1-1.2-0.2-1.3-0.7c-0.1-0.4,0.4-0.9,1-0.9
		C56.7,41.3,57.3,41.6,57.4,42.1z"/>
	<path class="st1" d="M58.3,45c0.1,0.4-0.3,0.7-0.7,0.8c-0.5,0.1-0.9-0.2-1-0.6c-0.1-0.4,0.3-0.7,0.7-0.8
		C57.8,44.3,58.2,44.6,58.3,45z"/>
	<path class="st1" d="M82.4,36.7c-0.4,0.8-1.6,1.1-2.7,0.8c-1.1-0.4-1.7-1.3-1.3-2.1c0.4-0.8,1.6-1.1,2.7-0.8
		C82.2,34.9,82.8,35.9,82.4,36.7z"/>
	<path class="st1" d="M76.2,38.4C75.9,39,75,39.3,74.1,39c-0.9-0.3-1.4-1.1-1.1-1.7c0.3-0.6,1.3-0.9,2.2-0.6
		C76.1,37,76.5,37.8,76.2,38.4z"/>
	<path class="st1" d="M71.2,40.4c-0.2,0.5-1,0.7-1.6,0.5c-0.7-0.2-1-0.8-0.8-1.3c0.2-0.5,1-0.7,1.6-0.5
		C71.1,39.4,71.4,39.9,71.2,40.4z"/>
	<path class="st1" d="M68.5,43.1c-0.2,0.4-0.8,0.6-1.4,0.4c-0.6-0.2-0.9-0.7-0.7-1.1c0.2-0.4,0.8-0.6,1.4-0.4
		C68.3,42.1,68.6,42.6,68.5,43.1z"/>
	<path class="st1" d="M66.1,45.4c-0.2,0.3-0.7,0.5-1.1,0.3c-0.4-0.1-0.7-0.5-0.5-0.9c0.2-0.3,0.7-0.5,1.1-0.3
		C66.1,44.7,66.3,45.1,66.1,45.4z"/>
	<path class="st1" d="M92.5,71.6c0.6,0,1-0.4,1-1c0-0.6-0.4-1-1-1c-0.6,0-1,0.4-1,1C91.5,71.2,92,71.6,92.5,71.6L92.5,71.6z
		 M92.5,71.4c-0.5,0-0.8-0.4-0.8-0.8c0-0.5,0.4-0.8,0.8-0.8c0.5,0,0.8,0.4,0.8,0.8C93.4,71.1,93,71.4,92.5,71.4L92.5,71.4z
		 M92.7,70.6c0.2,0,0.3-0.1,0.3-0.3c0-0.2-0.2-0.3-0.4-0.3h-0.5v1.1h0.2v-0.5h0.2l0.3,0.5H93L92.7,70.6L92.7,70.6z M92.3,70.5v-0.3
		h0.3c0.1,0,0.3,0,0.3,0.1c0,0.2-0.2,0.2-0.4,0.2H92.3L92.3,70.5z"/>
</g>
</svg>
