<svg xmlns="http://www.w3.org/2000/svg" viewBox="0 0 39 40" width="39" height="40"><defs><style>.cls-1{fill:#258197;}</style></defs><g id="Group_93" data-name="Group 93"><path id="Path_546" data-name="Path 546" class="cls-1" d="M19.5,0,0,11.09v4H3V28.89H35.51V15.1h3.05V11.2ZM31.77,25.38H7V11.54L19.5,4.18l12.27,7.36Z"/><rect id="Rectangle_1142" data-name="Rectangle 1142" class="cls-1" x="12.83" y="13.4" width="12.98" height="3.4"/><rect id="Rectangle_1143" data-name="Rectangle 1143" class="cls-1" x="12.83" y="18.47" width="12.98" height="3.4"/><path id="Path_547" data-name="Path 547" class="cls-1" d="M22.18,35.12H19.89v4.34h2.23c1.79,0,2.82-.38,2.82-2.09S23.8,35.12,22.18,35.12Zm-.11,3.4h-1V36.05h1.08a1.34,1.34,0,0,1,1.47,1.19v.13c0,1-.65,1.16-1.57,1.16Z"/><path id="Path_548" data-name="Path 548" class="cls-1" d="M36.63,36.5c0-1-.49-1.38-1.68-1.38H31.8v4.34H33V37.65h1.14l1.25,1.81h1.3l-1.25-1.81C36.25,37.54,36.63,37.21,36.63,36.5Zm-1.91.22H33v-.66h1.79c.49,0,.7.06.7.33s-.16.33-.76.33Z"/><path id="Path_549" data-name="Path 549" class="cls-1" d="M17,37.81,14.7,35.12H13.34v4.34h1.14V36.83l2.28,2.63h1.36V35.12H17Z"/><path id="Path_550" data-name="Path 550" class="cls-1" d="M3.34,35.12H2.15v4.34H6.44v-.93l-3.1-.06Z"/><path id="Path_551" data-name="Path 551" class="cls-1" d="M7.67,39.46h4.18v-.93H8.92v-.94h2.44v-.88H8.92v-.66h2.93v-.93H7.67Z"/><path id="Path_552" data-name="Path 552" class="cls-1" d="M26.28,39.46l4.13-.05v-.88H27.48v-.94H30v-.88h-2.5v-.66h2.93v-.93H26.28Z"/><path id="Path_553" data-name="Path 553" class="cls-1" d="M12.67,30.15h-.92l-1.09,3.9h.79l.24-.87h1l.24.87h.85Zm-.81,2.38L12.19,31l.38,1.54Z"/><path id="Path_554" data-name="Path 554" class="cls-1" d="M7.21,32.46v-.82c0-.93-.21-1.59-1.3-1.59s-1.3.55-1.3,1.53v1.05c0,1.32.76,1.37,3,1.37l.05-.27L7,33.51A1.93,1.93,0,0,0,7.21,32.46Zm-.81.17c0,.71-.06.88-.49.88s-.49-.23-.49-.94v-.93c0-.72,0-.94.54-.94s.44.11.44.88Z"/><path id="Path_555" data-name="Path 555" class="cls-1" d="M28.07,33.51c-.33,0-.55-.23-.65-.6l-.66.11c0,.6.38,1.1,1.25,1.1A1.29,1.29,0,0,0,29.37,33c0-.94-1.74-1.38-1.74-2,0-.22.22-.33.44-.33s.49.22.65.55l.54-.22a1.1,1.1,0,0,0-1.19-1H28c-.65,0-1.19.33-1.19,1,0,1.1,1.74,1.37,1.74,2.08C28.56,33.4,28.39,33.51,28.07,33.51Z"/><path id="Path_556" data-name="Path 556" class="cls-1" d="M23.48,32.63V31.42c0-1-.27-1.38-1.3-1.38-.81,0-1.3.44-1.3,1.49v1.26c0,.93.27,1.32,1.3,1.32S23.48,33.67,23.48,32.63Zm-1.79,0V31.47c0-.49,0-.82.49-.82s.49.38.49.82v1.16c0,.65-.17.87-.49.87S21.69,33.23,21.69,32.68Z"/><path id="Path_557" data-name="Path 557" class="cls-1" d="M35.38,30.65c.38,0,.6.27.65.66l.55-.22A1.1,1.1,0,0,0,35.43,30h-.1c-1.09,0-1.3.6-1.3,1.43v1.16c0,1.15.32,1.48,1.41,1.48.84,0,1.08-.4,1.08-.83V32H35.38v.6h.38v.44c0,.33-.1.5-.38.5-.54,0-.6-.39-.6-.94v-.88C34.78,31.09,34.84,30.65,35.38,30.65Z"/><path id="Path_558" data-name="Path 558" class="cls-1" d="M26.38,30.15h-.76v2.26c0,.87-.06,1.1-.49,1.1s-.49-.33-.49-1.16v-2.2h-.82V32.4c0,1.32.23,1.74,1.37,1.74.87,0,1.19-.47,1.19-1.63Z"/><path id="Path_559" data-name="Path 559" class="cls-1" d="M33.63,34.05v-3.9H33v2.42l-.87-2.42h-1v3.9h.65V31.42l.92,2.63Z"/><path id="Path_560" data-name="Path 560" class="cls-1" d="M8,30.15v2.36c0,1.1.11,1.59,1.2,1.59,1.25,0,1.3-.59,1.3-1.69V30.15H9.74v2.31c0,.77-.11,1-.49,1s-.49-.22-.49-1.1v-2.2Z"/><path id="Path_561" data-name="Path 561" class="cls-1" d="M20.32,34.05v-3.9h-.76v1.49h-.93V30.15h-.76v3.9h.76V32.3h.93v1.76Z"/><path id="Path_562" data-name="Path 562" class="cls-1" d="M4.05,30.76v-.6H2.1v3.9H4.05v-.6H2.86v-1.1H3.94v-.55H2.86v-1Z"/><path id="Path_563" data-name="Path 563" class="cls-1" d="M14.1,30.15v3.9h1.79v-.6H14.75v-3.3Z"/><rect id="Rectangle_1144" data-name="Rectangle 1144" class="cls-1" x="29.77" y="30.15" width="0.71" height="3.9"/></g></svg>