<svg width="133" height="37" viewBox="0 0 133 37" version="1.1" xmlns="http://www.w3.org/2000/svg"><title>imgAndroid</title><defs><linearGradient x1="50%" y1="0%" x2="50%" y2="100%" id="a"><stop stop-color="#1E79AF" offset="0%"/><stop stop-color="#63FFD3" offset="100%"/></linearGradient><linearGradient x1="84.718%" y1="14.446%" x2="5.244%" y2="96.562%" id="b"><stop stop-color="#DC4057" offset="0%"/><stop stop-color="#9E36BB" offset="100%"/></linearGradient><linearGradient x1="50%" y1="0%" x2="50%" y2="97.826%" id="c"><stop stop-color="#FF9676" offset="0%"/><stop stop-color="#FFD074" offset="100%"/></linearGradient><linearGradient x1="17.444%" y1="0%" x2="100%" y2="100%" id="d"><stop stop-color="#51C6AD" offset="0%"/><stop stop-color="#D5FFA1" offset="100%"/></linearGradient></defs><g stroke="none" stroke-width="1" fill="none" fill-rule="evenodd"><g><rect fill="#000" x="0" y="0" width="133" height="37" rx="5.184"/><path d="M.949.28C.522.414.245.854.245 1.52l.003 20.962c0 .658.268 1.092.683 1.237l11.525-11.73L.949.28" fill="url(#a)" transform="translate(8.233 6.53)"/><path d="M.931 23.72c.299.103.674.055 1.082-.173l14.064-7.872-3.621-3.685L.931 23.72" fill="url(#b)" transform="translate(8.233 6.53)"/><path d="M16.079 15.675l4.796-2.683c.972-.546.972-1.435 0-1.98L16.06 8.32l-3.605 3.669 3.623 3.687" fill="url(#c)" transform="translate(8.233 6.53)"/><path d="M16.06 8.319L2.014.459C1.615.235 1.247.184.95.278l11.506 11.709 3.605-3.67" fill="url(#d)" transform="translate(8.233 6.53)"/><path d="M64.554 19.428c-2.272.011-4.106 1.868-4.099 4.15.007 2.282 1.853 4.127 4.125 4.124 2.272-.004 4.111-1.855 4.112-4.137a4.088 4.088 0 0 0-1.196-2.95 4.05 4.05 0 0 0-2.942-1.187zm0 6.648a2.498 2.498 0 0 1-2.43-1.422 2.52 2.52 0 0 1 .425-2.793 2.492 2.492 0 0 1 2.743-.628 2.511 2.511 0 0 1 1.588 2.332 2.4 2.4 0 0 1-.636 1.748 2.379 2.379 0 0 1-1.69.763zm-9.021-6.648c-2.273.006-4.112 1.86-4.108 4.143.003 2.284 1.848 4.132 4.12 4.13 2.274-.001 4.116-1.853 4.116-4.136a4.088 4.088 0 0 0-1.196-2.95 4.05 4.05 0 0 0-2.942-1.187h.01zm0 6.648a2.498 2.498 0 0 1-2.437-1.415 2.52 2.52 0 0 1 .419-2.796 2.492 2.492 0 0 1 2.743-.632 2.511 2.511 0 0 1 1.59 2.332 2.4 2.4 0 0 1-.635 1.748 2.379 2.379 0 0 1-1.69.763h.01zm-10.746-5.373v1.752h4.186a3.677 3.677 0 0 1-.969 2.21 4.273 4.273 0 0 1-3.226 1.285c-2.57 0-4.651-2.092-4.651-4.672 0-2.58 2.082-4.672 4.65-4.672 1.18-.02 2.32.432 3.17 1.255l1.23-1.236a6.08 6.08 0 0 0-4.39-1.82 6.398 6.398 0 0 0-5.754 3.14 6.459 6.459 0 0 0 0 6.578 6.398 6.398 0 0 0 5.754 3.14 5.8 5.8 0 0 0 4.467-1.8 5.856 5.856 0 0 0 1.512-4.108 5.739 5.739 0 0 0-.097-1.1l-5.882.048zm43.904 1.363a3.878 3.878 0 0 0-3.527-2.638 3.868 3.868 0 0 0-2.83 1.225 3.904 3.904 0 0 0-1.046 2.912 4.059 4.059 0 0 0 1.17 2.941 4.022 4.022 0 0 0 2.919 1.196 4.094 4.094 0 0 0 3.43-1.83l-1.405-.974a2.352 2.352 0 0 1-2.025 1.149 2.092 2.092 0 0 1-1.996-1.256l5.513-2.287-.203-.438zm-5.62 1.382a2.274 2.274 0 0 1 .57-1.66 2.254 2.254 0 0 1 1.581-.754 1.597 1.597 0 0 1 1.53.876l-3.681 1.538zm-4.477 4.01h1.812V15.292h-1.812v12.166zm-2.965-7.105h-.068a2.901 2.901 0 0 0-2.17-.973 4.138 4.138 0 0 0-3.928 4.141 4.138 4.138 0 0 0 3.928 4.142 2.804 2.804 0 0 0 2.17-.974h.059v.594c0 1.587-.843 2.434-2.2 2.434a2.278 2.278 0 0 1-2.074-1.47l-1.579.662a3.924 3.924 0 0 0 3.653 2.443c2.122 0 3.876-1.256 3.876-4.312v-7.368h-1.667v.681zm-2.073 5.723a2.517 2.517 0 0 1-2.29-2.511c0-1.307.994-2.397 2.29-2.511a2.322 2.322 0 0 1 1.626.79c.415.472.621 1.093.573 1.721a2.323 2.323 0 0 1-.57 1.73 2.302 2.302 0 0 1-1.639.781h.01zm23.623-10.784h-4.331v12.166h1.812v-4.613h2.529a3.764 3.764 0 0 0 3.488-1.806 3.8 3.8 0 0 0 0-3.942 3.764 3.764 0 0 0-3.488-1.805h-.01zm0 5.84H94.65v-4.147h2.568c1.148 0 2.078.935 2.078 2.088s-.93 2.088-2.078 2.088l-.039-.03zm11.172-1.752a3.389 3.389 0 0 0-3.227 1.859l1.609.671c.324-.6.97-.95 1.647-.895.465-.055.932.08 1.296.375.365.295.596.724.642 1.192v.126a3.987 3.987 0 0 0-1.89-.467c-1.734 0-3.488.974-3.488 2.735.035.76.374 1.472.94 1.976.565.504 1.31.757 2.064.701.93.067 1.821-.38 2.326-1.168h.058v.973h1.744v-4.681c0-2.132-1.609-3.368-3.672-3.368l-.049-.03zm-.223 6.667c-.59 0-1.414-.302-1.414-1.032 0-.973 1.027-1.294 1.937-1.294a3.205 3.205 0 0 1 1.648.409 2.194 2.194 0 0 1-2.122 1.946l-.049-.029zm10.3-6.375l-2.073 5.275h-.058l-2.152-5.275h-1.937l3.226 7.378-1.84 4.097h1.889l4.96-11.475h-2.015zm-16.288 7.786h1.812V15.292h-1.812v12.166z" fill="#FFF" fill-rule="nonzero"/><path d="M38.133 8.855c0-1.68 1.243-2.76 2.788-2.76 1.036 0 1.712.495 2.135 1.103l-.757.44a1.711 1.711 0 0 0-1.378-.711c-1.05 0-1.832.8-1.832 1.928 0 1.111.781 1.927 1.832 1.927.542 0 1.02-.248 1.258-.48v-.824h-1.592v-.824h2.516v1.992a2.864 2.864 0 0 1-2.182.976c-1.545 0-2.788-1.095-2.788-2.767zm6.123 2.664V6.182h3.64v.825h-2.709v1.375h2.653v.824h-2.653v1.488h2.708v.825h-3.64zm6.218 0V7.007h-1.609v-.825h4.15v.825h-1.61v4.512h-.931zm5.779-5.337h.931v5.337h-.931V6.182zm3.527 5.337V7.007h-1.61v-.825h4.15v.825h-1.609v4.512h-.931zm5.548-2.664c0-1.593 1.122-2.76 2.716-2.76 1.584 0 2.716 1.167 2.716 2.76 0 1.591-1.132 2.76-2.716 2.76-1.594 0-2.716-1.169-2.716-2.76zm4.476 0c0-1.105-.693-1.928-1.76-1.928-1.076 0-1.76.823-1.76 1.928 0 1.095.684 1.927 1.76 1.927 1.067 0 1.76-.832 1.76-1.927zm5.747 2.664L72.78 7.702v3.817h-.931V6.182h.956l2.715 3.697V6.182h.932v5.337h-.9z" fill="#FFF"/></g></g></svg>