<?xml version="1.0" encoding="UTF-8"?>
<svg width="133px" height="37px" viewBox="0 0 133 37" version="1.1" xmlns="http://www.w3.org/2000/svg" xmlns:xlink="http://www.w3.org/1999/xlink">
    <!-- Generator: Sketch 51 (57462) - http://www.bohemiancoding.com/sketch -->
    <title>imgApple</title>
    <desc>Created with Sketch.</desc>
    <defs></defs>
    <g id="Page-1" stroke="none" stroke-width="1" fill="none" fill-rule="evenodd">
        <g id="1.Home-notloggedin" transform="translate(-938.000000, -3841.000000)">
            <g id="FOOTER" transform="translate(105.000000, 3537.000000)">
                <g id="Group-28" transform="translate(18.000000, 41.000000)"></g>
                <g id="Group-28-Copy-2" transform="translate(541.000000, 195.000000)">
                    <g id="apple" transform="translate(292.000000, 109.000000)">
                        <rect id="bg" fill="#000000" x="0" y="0" width="133" height="37" rx="5.18400007"></rect>
                        <path d="M48.3286974,28.8573563 L46.2678454,28.8573563 L45.1389595,25.2919303 L41.2150829,25.2919303 L40.1397374,28.8573563 L38.1333333,28.8573563 L42.0209114,16.7190373 L44.4220625,16.7190373 L48.3286974,28.8573563 L48.3286974,28.8573563 Z M44.7986603,23.796075 L41.5562896,23.796075 L42.5590379,20.6265034 C42.8222026,19.6186252 43.0136776,18.8561038 43.1325554,18.3398513 L43.168854,18.3398513 C43.4674099,19.540184 43.6697745,20.3027054 43.7777627,20.6265034 L44.7986603,23.796075 Z M58.3262341,24.3734386 C58.3262341,25.8619971 57.9260423,27.0386151 57.1256585,27.9023803 C56.4087616,28.6712865 55.5185389,29.0552835 54.4558979,29.0552835 C53.3088627,29.0552835 52.4848849,28.6411869 51.983057,27.8129939 L51.9467585,27.8129939 L51.9467585,32.4236944 L50.0120441,32.4236944 L50.0120441,22.986124 C50.0120441,22.0503023 49.9875425,21.0898537 49.9403544,20.1047782 L51.6418504,20.1047782 L51.7498387,21.4920929 L51.7861372,21.4920929 C52.4313445,20.4468183 53.4104988,19.9250932 54.7245074,19.9250932 C55.7517572,19.9250932 56.6093112,20.332805 57.2953544,21.1491407 C57.9832125,21.9663885 58.3262341,23.0408504 58.3262341,24.3734386 Z M56.3552212,24.444583 C56.3552212,23.5926751 56.1646536,22.8903528 55.7817036,22.337616 C55.3633624,21.7611644 54.8016419,21.4729386 54.0974494,21.4729386 C53.6201231,21.4729386 53.186355,21.6334694 52.7988677,21.9499705 C52.4104728,22.269208 52.1563828,22.6860408 52.0375049,23.2022933 C51.9776123,23.4430896 51.9476659,23.6401047 51.9476659,23.7951629 L51.9476659,25.2545339 C51.9476659,25.8911846 52.1418633,26.4284155 52.5302582,26.867139 C52.918653,27.3058624 53.4232033,27.5247681 54.043909,27.5247681 C54.772603,27.5247681 55.3397683,27.2420149 55.745405,26.6783328 C56.1519491,26.1137387 56.3552212,25.3694594 56.3552212,24.444583 Z M68.3419202,24.3734386 C68.3419202,25.8619971 67.9417283,27.0386151 67.1404371,27.9023803 C66.4244476,28.6712865 65.5342249,29.0552835 64.4715839,29.0552835 C63.3245488,29.0552835 62.500571,28.6411869 61.9996506,27.8129939 L61.963352,27.8129939 L61.963352,32.4236944 L60.0286376,32.4236944 L60.0286376,22.986124 C60.0286376,22.0503023 60.004136,21.0898537 59.9569479,20.1047782 L61.6584439,20.1047782 L61.7664322,21.4920929 L61.8027308,21.4920929 C62.4470306,20.4468183 63.4261848,19.9250932 64.7411009,19.9250932 C65.7674433,19.9250932 66.6249973,20.332805 67.3128554,21.1491407 C67.9979911,21.9663885 68.3419202,23.0408504 68.3419202,24.3734386 Z M66.3709072,24.444583 C66.3709072,23.5926751 66.1794322,22.8903528 65.7964822,22.337616 C65.378141,21.7611644 64.8182354,21.4729386 64.1131355,21.4729386 C63.6349016,21.4729386 63.2020411,21.6334694 62.8136462,21.9499705 C62.4252514,22.269208 62.1720688,22.6860408 62.053191,23.2022933 C61.9942058,23.4430896 61.963352,23.6401047 61.963352,23.7951629 L61.963352,25.2545339 C61.963352,25.8911846 62.1575494,26.4284155 62.5441293,26.867139 C62.9325241,27.3049503 63.4370744,27.5247681 64.059595,27.5247681 C64.7882891,27.5247681 65.3554544,27.2420149 65.761091,26.6783328 C66.1676352,26.1137387 66.3709072,25.3694594 66.3709072,24.444583 Z M79.5400325,25.4533732 C79.5400325,26.4858783 79.183399,27.3259288 78.4674094,27.9744368 C77.6806377,28.6831439 76.585328,29.0370414 75.1778505,29.0370414 C73.8783613,29.0370414 72.836592,28.7852998 72.0480053,28.2809047 L72.4962928,26.6600907 C73.3456796,27.1763432 74.2776457,27.4353816 75.2930985,27.4353816 C76.0217925,27.4353816 76.5889579,27.2693781 76.9964094,26.9391954 C77.4020461,26.6090127 77.6044107,26.1657288 77.6044107,25.612992 C77.6044107,25.1204542 77.4374372,24.7054456 77.1025828,24.3688781 C76.7695433,24.0323107 76.2132675,23.719458 75.4364779,23.4303201 C73.3220855,22.6376992 72.2657968,21.476587 72.2657968,19.9497201 C72.2657968,18.9518751 72.6360424,18.1337152 73.3774409,17.4970645 C74.116117,16.8595018 75.1016235,16.5411765 76.3339603,16.5411765 C77.4328999,16.5411765 78.3458092,16.733631 79.0745032,17.117628 L78.5908246,18.7028699 C77.9102262,18.3307303 77.1406963,18.1446604 76.2795125,18.1446604 C75.5989141,18.1446604 75.0671398,18.3134002 74.6860047,18.6490556 C74.3638548,18.9491388 74.2023261,19.3148936 74.2023261,19.7481444 C74.2023261,20.2279127 74.3865414,20.6246792 74.756787,20.9366197 C75.0789369,21.2248455 75.6642515,21.5367861 76.5136383,21.8733536 C77.5526852,22.2938349 78.3158629,22.7854605 78.8068012,23.3491426 C79.2959246,23.9110004 79.5400325,24.6142349 79.5400325,25.4533732 Z M85.93675,21.5641493 L83.8042084,21.5641493 L83.8042084,25.8136555 C83.8042084,26.8945022 84.1798987,27.4344695 84.9330942,27.4344695 C85.2788382,27.4344695 85.565597,27.40437 85.7924632,27.3441709 L85.8460036,28.820872 C85.4648685,28.9640728 84.9630406,29.0361292 84.3414274,29.0361292 C83.5773422,29.0361292 82.9802306,28.8017178 82.5491849,28.3338069 C82.1199542,27.864984 81.9039776,27.0787478 81.9039776,25.9741863 L81.9039776,21.5623251 L80.6335273,21.5623251 L80.6335273,20.102954 L81.9039776,20.102954 L81.9039776,18.5003821 L83.8042084,17.9239306 L83.8042084,20.102954 L85.93675,20.102954 L85.93675,21.5641493 Z M95.5585965,24.4090108 C95.5585965,25.7543685 95.1756464,26.85893 94.4115613,27.7226953 C93.6102701,28.6119995 92.5467217,29.0552835 91.220916,29.0552835 C89.9432059,29.0552835 88.9259382,28.6293296 88.1672978,27.7774217 C87.4086575,26.9255138 87.0293373,25.8501398 87.0293373,24.5540358 C87.0293373,23.1977328 87.4195471,22.0867866 88.202689,21.2230213 C88.9840159,20.358344 90.0384897,19.9260053 91.3642954,19.9260053 C92.6420055,19.9260053 93.6701628,20.3519592 94.4460449,21.2047792 C95.1883509,22.0320602 95.5585965,23.1001374 95.5585965,24.4090108 Z M93.5512849,24.4719462 C93.5512849,23.6647316 93.3797741,22.9724424 93.0322152,22.3950787 C92.6265786,21.6964048 92.0467087,21.34798 91.2953281,21.34798 C90.517631,21.34798 89.9268716,21.6973169 89.5212349,22.3950787 C89.173676,22.9733545 89.0021652,23.6765889 89.0021652,24.5084305 C89.0021652,25.3156451 89.173676,26.0079343 89.5212349,26.5843858 C89.9395761,27.2830597 90.5239832,27.6314846 91.2780863,27.6314846 C92.0167624,27.6314846 92.5966322,27.2757629 93.0149734,26.5661437 C93.3716069,25.9778347 93.5512849,25.2782487 93.5512849,24.4719462 Z M101.847326,21.8149787 C101.655851,21.7794065 101.451671,21.7611644 101.23751,21.7611644 C100.556911,21.7611644 100.030582,22.0192907 99.6603362,22.5364553 C99.3381862,22.9925088 99.1766576,23.5689603 99.1766576,24.2648979 L99.1766576,28.8573563 L97.2428506,28.8573563 L97.2609999,22.8611654 C97.2609999,21.8523751 97.2364984,20.9338834 97.1884028,20.1056903 L98.8735644,20.1056903 L98.9443466,21.7803187 L98.997887,21.7803187 C99.2020666,21.2047792 99.5242165,20.7414289 99.9652442,20.3939161 C100.39629,20.0810634 100.861819,19.9250932 101.363647,19.9250932 C101.542418,19.9250932 101.703946,19.9378627 101.847326,19.9606653 L101.847326,21.8149787 Z M110.5,24.0669707 C110.5,24.4153956 110.477313,24.709094 110.429218,24.9489781 L104.625075,24.9489781 C104.647761,25.8136555 104.928168,26.474933 105.467202,26.9309865 C105.956325,27.3386983 106.588828,27.5430102 107.365618,27.5430102 C108.224986,27.5430102 109.009036,27.4052821 109.714136,27.1289137 L110.017229,28.4788319 C109.193251,28.8400263 108.220449,29.0197113 107.097915,29.0197113 C105.747608,29.0197113 104.68769,28.6202085 103.916345,27.8221149 C103.146815,27.0240214 102.761142,25.9522957 102.761142,24.6078501 C102.761142,23.2880314 103.119591,22.1889426 103.837395,21.3124078 C104.588776,20.3765861 105.604229,19.9086752 106.881939,19.9086752 C108.136962,19.9086752 109.087078,20.3765861 109.732285,21.3124078 C110.243188,22.0557749 110.5,22.9751787 110.5,24.0669707 Z M108.655125,23.5625756 C108.667829,22.986124 108.541692,22.4881136 108.279434,22.0676323 C107.94458,21.5267529 107.430047,21.2567693 106.737652,21.2567693 C106.105149,21.2567693 105.590617,21.5203682 105.197685,22.0493902 C104.875535,22.4698715 104.68406,22.9742666 104.625075,23.5616635 L108.655125,23.5616635 L108.655125,23.5625756 Z" id="app-store" fill="#FFFFFF"></path>
                        <path d="M43.0207984,9.25056588 C43.0207984,10.3264824 42.6997572,11.1363906 42.0585844,11.6802906 C41.4647037,12.1821412 40.6207202,12.4335235 39.5275432,12.4335235 C38.9855021,12.4335235 38.5216749,12.4097565 38.1333333,12.3622224 L38.1333333,6.48353176 C38.6399053,6.40126118 39.1855844,6.35921176 39.7749177,6.35921176 C40.8162551,6.35921176 41.6011235,6.58682706 42.1304321,7.04205765 C42.7234033,7.55670588 43.0207984,8.29257059 43.0207984,9.25056588 Z M42.0158395,9.27707529 C42.0158395,8.57960353 41.8321276,8.04484471 41.4647037,7.67188471 C41.0972798,7.29983882 40.5606955,7.11335882 39.8540412,7.11335882 C39.5539177,7.11335882 39.298358,7.13346941 39.0864527,7.17551882 L39.0864527,11.64464 C39.2037737,11.6629224 39.4184074,11.6711494 39.7303539,11.6711494 C40.4597449,11.6711494 41.0227037,11.4673012 41.4192305,11.0596047 C41.8157572,10.6519082 42.0158395,10.0577318 42.0158395,9.27707529 Z M48.3493539,10.1902788 C48.3493539,10.8530141 48.1610947,11.396 47.7845761,11.8219788 C47.3898683,12.2598412 46.8669259,12.4783153 46.21393,12.4783153 C45.5845802,12.4783153 45.083465,12.2689824 44.7096749,11.8484882 C44.3367942,11.4289082 44.1503539,10.8996341 44.1503539,10.26158 C44.1503539,9.59427412 44.342251,9.04671765 44.7278642,8.62165294 C45.1134774,8.19658824 45.6318724,7.98359882 46.2848683,7.98359882 C46.9142181,7.98359882 47.4198807,8.19293176 47.8027654,8.61251176 C48.1665514,9.02020824 48.3493539,9.54674 48.3493539,10.1902788 Z M47.3607654,10.2213588 C47.3607654,9.82371765 47.2752757,9.48275176 47.1052058,9.19846118 C46.9051235,8.85475294 46.6204609,8.68289882 46.2503086,8.68289882 C45.8674239,8.68289882 45.5763951,8.85475294 45.3763128,9.19846118 C45.2053333,9.48275176 45.1207531,9.82920235 45.1207531,10.2387271 C45.1207531,10.6363682 45.2062428,10.9773341 45.3763128,11.2616247 C45.5827613,11.6053329 45.8701523,11.7771871 46.241214,11.7771871 C46.605,11.7771871 46.890572,11.6025906 47.0961111,11.2524835 C47.2725473,10.9627082 47.3607654,10.619 47.3607654,10.2213588 Z M55.4941111,8.07135412 L54.1526502,12.3805047 L53.2795638,12.3805047 L52.7238807,10.5093059 C52.5829136,10.0421918 52.468321,9.57782 52.3791934,9.11710471 L52.3619136,9.11710471 C52.2791523,9.59061765 52.1645597,10.0540753 52.0172263,10.5093059 L51.4269835,12.3805047 L50.543893,12.3805047 L49.282465,8.07135412 L50.2619588,8.07135412 L50.7467037,10.1198918 C50.8640247,10.6043741 50.960428,11.0660035 51.0377325,11.5029518 L51.0550123,11.5029518 C51.1259506,11.1427894 51.2432716,10.6839024 51.4087942,10.1290329 L52.0172263,8.07226824 L52.7939095,8.07226824 L53.3768765,10.0851553 C53.5178436,10.5760365 53.6324362,11.0486353 53.7206543,11.5038659 L53.7470288,11.5038659 C53.8116008,11.0605188 53.9089136,10.58792 54.0380576,10.0851553 L54.5582716,8.07226824 L55.4941111,8.07226824 L55.4941111,8.07135412 Z M60.4352346,12.3805047 L59.4821152,12.3805047 L59.4821152,9.91238706 C59.4821152,9.15184118 59.1947243,8.77156824 58.6181235,8.77156824 C58.3352798,8.77156824 58.1070041,8.87577765 57.9296584,9.08511059 C57.7541317,9.29444353 57.6650041,9.54125529 57.6650041,9.82371765 L57.6650041,12.3795906 L56.7118848,12.3795906 L56.7118848,9.30267059 C56.7118848,8.92422588 56.7000617,8.51378706 56.6773251,8.06952588 L57.5149424,8.06952588 L57.5595062,8.74323059 L57.5858807,8.74323059 C57.6968354,8.53389765 57.862358,8.36112941 58.0797202,8.22309765 C58.3380082,8.06221294 58.6272181,7.98085647 58.9437119,7.98085647 C59.3438765,7.98085647 59.6767407,8.11066118 59.9413951,8.37118471 C60.2706214,8.69021176 60.4352346,9.16646706 60.4352346,9.79903647 L60.4352346,12.3805047 Z M62.1113786,6.09411765 L63.0635885,6.09411765 L63.0635885,12.3805047 L62.1113786,12.3805047 L62.1113786,6.09411765 Z M68.6749877,10.1902788 C68.6749877,10.8530141 68.4867284,11.396 68.1102099,11.8219788 C67.7155021,12.2598412 67.1916502,12.4783153 66.5395638,12.4783153 C65.9093045,12.4783153 65.4081893,12.2689824 65.0353086,11.8484882 C64.662428,11.4289082 64.4759877,10.8996341 64.4759877,10.26158 C64.4759877,9.59427412 64.6678848,9.04671765 65.0534979,8.62165294 C65.4391111,8.19658824 65.9575062,7.98359882 66.6095926,7.98359882 C67.2398519,7.98359882 67.7446049,8.19293176 68.1283992,8.61251176 C68.4921852,9.02020824 68.6749877,9.54674 68.6749877,10.1902788 Z M67.6854897,10.2213588 C67.6854897,9.82371765 67.6,9.48275176 67.42993,9.19846118 C67.2307572,8.85475294 66.9451852,8.68289882 66.5759424,8.68289882 C66.1921481,8.68289882 65.9011193,8.85475294 65.7019465,9.19846118 C65.5309671,9.48275176 65.4463868,9.82920235 65.4463868,10.2387271 C65.4463868,10.6363682 65.5318765,10.9773341 65.7019465,11.2616247 C65.9083951,11.6053329 66.195786,11.7771871 66.5668477,11.7771871 C66.9306337,11.7771871 67.2152963,11.6025906 67.4208354,11.2524835 C67.5981811,10.9627082 67.6854897,10.619 67.6854897,10.2213588 Z M73.2877942,12.3805047 L72.4319877,12.3805047 L72.3610494,11.8841388 L72.3346749,11.8841388 C72.0418272,12.2799518 71.6243827,12.4783153 71.0823416,12.4783153 C70.6776296,12.4783153 70.3502222,12.3475965 70.1037572,12.0879871 C69.8800288,11.8521447 69.7681646,11.5587129 69.7681646,11.2104341 C69.7681646,10.6839024 69.9864362,10.2826047 70.4257078,10.0047129 C70.86407,9.72682118 71.4806872,9.59061765 72.2746502,9.59701647 L72.2746502,9.51657412 C72.2746502,8.94890706 71.9781646,8.66553059 71.384284,8.66553059 C70.9613827,8.66553059 70.5885021,8.77248235 70.2665514,8.98455765 L70.0728354,8.35564471 C70.4711811,8.10791882 70.9632016,7.98359882 71.5434403,7.98359882 C72.6639012,7.98359882 73.2259506,8.57777529 73.2259506,9.76612824 L73.2259506,11.3530365 C73.2259506,11.7835859 73.2468683,12.12638 73.2877942,12.3805047 Z M72.2982963,10.8996341 L72.2982963,10.2350706 C71.2469547,10.2167882 70.721284,10.5065635 70.721284,11.1034824 C70.721284,11.3283553 70.7813086,11.4965529 70.9040864,11.6089894 C71.0268642,11.7214259 71.1832922,11.7771871 71.3697325,11.7771871 C71.5789095,11.7771871 71.7744444,11.7104565 71.9526996,11.5779094 C72.1318642,11.4444482 72.2419095,11.2753365 72.2828354,11.0678318 C72.2928395,11.0212118 72.2982963,10.9645365 72.2982963,10.8996341 Z M78.7036584,12.3805047 L77.857856,12.3805047 L77.8132922,11.6885176 L77.7869177,11.6885176 C77.5168066,12.2150494 77.0566173,12.4783153 76.4099877,12.4783153 C75.8934115,12.4783153 75.4632346,12.2744671 75.1221852,11.8667706 C74.7811358,11.4590741 74.6110658,10.9298 74.6110658,10.2798624 C74.6110658,9.58239059 74.7956872,9.01746588 75.166749,8.58600235 C75.5259877,8.18379059 75.9661687,7.98268471 76.4900206,7.98268471 C77.0657119,7.98268471 77.4686049,8.17739176 77.6977901,8.56772 L77.7159794,8.56772 L77.7159794,6.09411765 L78.6700082,6.09411765 L78.6700082,11.2195753 C78.6700082,11.6391553 78.6809218,12.0258271 78.7036584,12.3805047 Z M77.7159794,10.5632388 L77.7159794,9.84474235 C77.7159794,9.72042235 77.7068848,9.61986941 77.6896049,9.54308353 C77.6359465,9.31272588 77.5204444,9.11893294 77.3449177,8.96261882 C77.167572,8.80630471 76.9538477,8.72769059 76.7073827,8.72769059 C76.3517819,8.72769059 76.0734856,8.86937882 75.868856,9.15366941 C75.6660453,9.43796 75.5632757,9.80086471 75.5632757,10.2442118 C75.5632757,10.6701906 75.6605885,11.0157271 75.8561235,11.2817353 C76.062572,11.5651118 76.3408683,11.7068 76.6891934,11.7068 C77.0020494,11.7068 77.2521523,11.5888788 77.4422305,11.3521224 C77.6259424,11.1336482 77.7159794,10.8703824 77.7159794,10.5632388 Z M86.8551934,10.1902788 C86.8551934,10.8530141 86.6669342,11.396 86.2904156,11.8219788 C85.8957078,12.2598412 85.3736749,12.4783153 84.7197695,12.4783153 C84.0913292,12.4783153 83.590214,12.2689824 83.2155144,11.8484882 C82.8426337,11.4289082 82.6561934,10.8996341 82.6561934,10.26158 C82.6561934,9.59427412 82.8480905,9.04671765 83.2337037,8.62165294 C83.6193169,8.19658824 84.1377119,7.98359882 84.7916173,7.98359882 C85.4200576,7.98359882 85.9266296,8.19293176 86.3086049,8.61251176 C86.6723909,9.02020824 86.8551934,9.54674 86.8551934,10.1902788 Z M85.8675144,10.2213588 C85.8675144,9.82371765 85.7820247,9.48275176 85.6119547,9.19846118 C85.410963,8.85475294 85.1272099,8.68289882 84.7561481,8.68289882 C84.3741728,8.68289882 84.083144,8.85475294 83.8821523,9.19846118 C83.7111728,9.48275176 83.6265926,9.82920235 83.6265926,10.2387271 C83.6265926,10.6363682 83.7120823,10.9773341 83.8821523,11.2616247 C84.0886008,11.6053329 84.3759918,11.7771871 84.7470535,11.7771871 C85.1108395,11.7771871 85.397321,11.6025906 85.6028601,11.2524835 C85.7783868,10.9627082 85.8675144,10.619 85.8675144,10.2213588 Z M91.9800288,12.3805047 L91.0278189,12.3805047 L91.0278189,9.91238706 C91.0278189,9.15184118 90.740428,8.77156824 90.1629177,8.77156824 C89.8800741,8.77156824 89.6517984,8.87577765 89.4753621,9.08511059 C89.2989259,9.29444353 89.2107078,9.54125529 89.2107078,9.82371765 L89.2107078,12.3795906 L88.256679,12.3795906 L88.256679,9.30267059 C88.256679,8.92422588 88.2457654,8.51378706 88.2230288,8.06952588 L89.0597366,8.06952588 L89.1043004,8.74323059 L89.1306749,8.74323059 C89.2425391,8.53389765 89.4080617,8.36112941 89.6245144,8.22309765 C89.8837119,8.06221294 90.1720123,7.98085647 90.4894156,7.98085647 C90.8886708,7.98085647 91.221535,8.11066118 91.4861893,8.37118471 C91.8163251,8.69021176 91.9800288,9.16646706 91.9800288,9.79903647 L91.9800288,12.3805047 Z M98.3944856,8.78893647 L97.344963,8.78893647 L97.344963,10.8822659 C97.344963,11.4142824 97.5314033,11.6802906 97.9006461,11.6802906 C98.0716255,11.6802906 98.2135021,11.6656647 98.3253663,11.6354988 L98.3499218,12.3622224 C98.1616626,12.4335235 97.9142881,12.4691741 97.6096173,12.4691741 C97.2330988,12.4691741 96.940251,12.3539953 96.7283457,12.1236376 C96.5155309,11.89328 96.4100329,11.5056941 96.4100329,10.9617941 L96.4100329,8.78893647 L95.7834115,8.78893647 L95.7834115,8.07135412 L96.4100329,8.07135412 L96.4100329,7.28155647 L97.3440535,6.99818 L97.3440535,8.07044 L98.3935761,8.07044 L98.3935761,8.78893647 L98.3944856,8.78893647 Z M103.440198,12.3805047 L102.486169,12.3805047 L102.486169,9.93066941 C102.486169,9.15824 102.198778,8.77156824 101.623086,8.77156824 C101.181086,8.77156824 100.879144,8.99552706 100.713621,9.44344471 C100.685428,9.53759882 100.669058,9.65277765 100.669058,9.78806706 L100.669058,12.3795906 L99.7168477,12.3795906 L99.7168477,6.09411765 L100.669058,6.09411765 L100.669058,8.69112588 L100.687247,8.69112588 C100.98737,8.21852706 101.417547,7.98268471 101.975049,7.98268471 C102.369757,7.98268471 102.696255,8.11248941 102.955453,8.37301294 C103.278313,8.69752471 103.440198,9.18017882 103.440198,9.81823294 L103.440198,12.3805047 Z M108.645066,10.0220812 C108.645066,10.1939353 108.632333,10.3383659 108.609597,10.4562871 L105.751148,10.4562871 C105.763881,10.8822659 105.9003,11.2067776 106.164955,11.4316506 C106.406872,11.6327565 106.718819,11.7333094 107.100794,11.7333094 C107.523695,11.7333094 107.909309,11.6656647 108.256724,11.5294612 L108.405877,12.1949388 C107.999346,12.3722776 107.520967,12.4609471 106.967103,12.4609471 C106.303193,12.4609471 105.780251,12.2644118 105.401914,11.8713412 C105.021757,11.4782706 104.833498,10.9508247 104.833498,10.2890035 C104.833498,9.63906588 105.009025,9.09790824 105.362807,8.66644471 C105.732049,8.20572941 106.231346,7.97537176 106.861605,7.97537176 C107.478222,7.97537176 107.946597,8.20572941 108.263091,8.66644471 C108.51865,9.03209176 108.645066,9.48458 108.645066,10.0220812 Z M107.735601,9.77435529 C107.742877,9.49006471 107.680123,9.24508118 107.550979,9.03849059 C107.385457,8.77248235 107.133535,8.63902118 106.792486,8.63902118 C106.481449,8.63902118 106.227708,8.76882588 106.033992,9.02934941 C105.875745,9.23685412 105.78207,9.48458 105.751148,9.77435529 L107.735601,9.77435529 Z" id="download-on-the" fill="#FFFFFF"></path>
                        <path d="M25.0964361,19.1992958 C25.1260611,22.6829119 28.1298598,23.8344982 28.1666667,23.8471233 C28.1487121,23.9282844 27.6962571,25.5091229 26.5696081,27.1143098 C25.6287889,28.5274153 24.6430833,29.9089581 23.0774452,29.9342083 C21.5566936,29.9693781 21.0449885,29.0351233 19.3007025,29.0351233 C17.5402574,29.0351233 16.9953364,29.9089581 15.536528,29.9693781 C14.0454014,30.0243873 12.9061842,28.4606828 11.9312513,27.0602024 C9.98228332,24.2006251 8.46512258,19.0018037 10.4993748,15.4640801 C11.4850804,13.7290354 13.2823324,12.6117171 15.2034708,12.5819581 C16.6963929,12.5512972 18.0815876,13.5946686 18.9990658,13.5946686 C19.8985895,13.5946686 21.611455,12.3465908 23.3772865,12.5332614 C24.1161168,12.5549044 26.2185964,12.8263433 27.5750638,14.8129874 C27.4655409,14.8788181 25.0704019,16.2928254 25.0964361,19.1992958 Z M22.2237057,10.6521267 C21.4049775,11.6224531 20.095192,12.3646266 18.8195202,12.2690368 C18.6525427,10.9596372 19.2989071,9.56727287 20.022476,8.71778635 C20.8403065,7.75377245 22.2605125,7.01520614 23.3961388,6.96470588 C23.5451617,8.32550754 23.0083202,9.66646981 22.2237057,10.6521267 Z" fill="#FFFFFF"></path>
                    </g>
                </g>
            </g>
        </g>
    </g>
</svg>