<?xml version="1.0" encoding="utf-8"?>
<!-- Generator: Adobe Illustrator 19.1.0, SVG Export Plug-In . SVG Version: 6.00 Build 0)  -->
<svg version="1.1" id="Layer_1" xmlns="http://www.w3.org/2000/svg" xmlns:xlink="http://www.w3.org/1999/xlink" x="0px" y="0px"
	 viewBox="-231 62.773 535.59 125.227" enable-background="new -231 62.773 535.59 125.227" xml:space="preserve">
<path fill="#F15D22" d="M-88.305,89.774h8.491l16.221,26.073h0.109V89.774h8.001v38.865h-8.545l-16.166-26.018h-0.111v26.018h-7.999
	V89.774H-88.305z M-49.108,109.153c0.437-7.24,6.915-9.417,13.227-9.417c5.608,0,12.357,1.252,12.357,8.001v14.643
	c0,2.557,0.273,5.116,0.981,6.259h-7.839c-0.271-0.87-0.49-1.796-0.544-2.721c-2.45,2.557-6.041,3.484-9.47,3.484
	c-5.335,0-9.581-2.668-9.581-8.438c0-6.368,4.79-7.892,9.581-8.545c4.734-0.708,9.144-0.544,9.144-3.702
	c0-3.32-2.286-3.809-5.009-3.809c-2.939,0-4.843,1.198-5.118,4.246h-7.729V109.153z M-31.253,114.868
	c-1.307,1.143-4.028,1.198-6.423,1.633c-2.395,0.49-4.572,1.307-4.572,4.137c0,2.885,2.231,3.593,4.736,3.593
	c6.041,0,6.259-4.79,6.259-6.478L-31.253,114.868L-31.253,114.868z M-7.732,100.496h5.66v5.173h-5.66v13.935
	c0,2.612,0.653,3.265,3.265,3.265c0.817,0,1.58-0.054,2.395-0.218v6.043c-1.305,0.218-2.994,0.271-4.518,0.271
	c-4.736,0-8.873-1.088-8.873-6.694v-16.602h-4.681v-5.173h4.681V92.06h7.73v8.436H-7.732z M9.581,96.143H1.853v-6.368h7.728V96.143z
	 M1.853,100.496h7.728v28.142H1.853V100.496z M29.341,99.735c8.87,0,14.586,5.879,14.586,14.859c0,8.927-5.717,14.806-14.586,14.806
	c-8.816,0-14.533-5.879-14.533-14.806C14.808,105.614,20.525,99.735,29.341,99.735z M29.341,123.577
	c5.279,0,6.858-4.519,6.858-8.982c0-4.518-1.579-9.035-6.858-9.035c-5.225,0-6.803,4.518-6.803,9.035
	C22.538,119.058,24.116,123.577,29.341,123.577z M48.941,100.496h7.348v3.92h0.164c1.96-3.158,5.335-4.681,8.6-4.681
	c8.22,0,10.287,4.627,10.287,11.594v17.309h-7.728v-15.894c0-4.627-1.361-6.913-4.954-6.913c-4.19,0-5.986,2.341-5.986,8.056v14.752
	h-7.73L48.941,100.496L48.941,100.496z M80.898,109.153c0.437-7.24,6.915-9.417,13.229-9.417c5.606,0,12.355,1.252,12.355,8.001
	v14.643c0,2.557,0.273,5.116,0.979,6.259h-7.837c-0.271-0.87-0.49-1.796-0.544-2.721c-2.45,2.557-6.041,3.484-9.47,3.484
	c-5.335,0-9.581-2.668-9.581-8.438c0-6.368,4.79-7.892,9.581-8.545c4.734-0.708,9.144-0.544,9.144-3.702
	c0-3.32-2.286-3.809-5.009-3.809c-2.939,0-4.843,1.198-5.116,4.246h-7.731V109.153z M98.754,114.868
	c-1.307,1.143-4.03,1.198-6.423,1.633c-2.395,0.49-4.572,1.307-4.572,4.137c0,2.885,2.231,3.593,4.736,3.593
	c6.041,0,6.259-4.79,6.259-6.478V114.868z M112.695,89.774h7.728v38.865h-7.728V89.774z M142.476,89.774h8.545v14.914h15.731V89.774
	h8.545v38.865h-8.545v-16.765h-15.731v16.765h-8.545V89.774z M188.369,116.446c0.218,4.9,2.612,7.131,6.913,7.131
	c3.103,0,5.606-1.906,6.097-3.647h6.804c-2.177,6.641-6.804,9.472-13.172,9.472c-8.873,0-14.371-6.097-14.371-14.806
	c0-8.436,5.824-14.859,14.371-14.859c9.579,0,14.206,8.056,13.66,16.71L188.369,116.446L188.369,116.446z M200.942,111.546
	c-0.706-3.919-2.395-5.986-6.15-5.986c-4.9,0-6.314,3.809-6.423,5.986H200.942z M212.926,109.153
	c0.435-7.24,6.913-9.417,13.227-9.417c5.604,0,12.355,1.252,12.355,8.001v14.643c0,2.557,0.273,5.116,0.981,6.259h-7.839
	c-0.271-0.87-0.491-1.796-0.544-2.721c-2.45,2.557-6.041,3.484-9.472,3.484c-5.333,0-9.579-2.668-9.579-8.438
	c0-6.368,4.791-7.892,9.579-8.545c4.736-0.708,9.146-0.544,9.146-3.702c0-3.32-2.286-3.809-5.009-3.809
	c-2.939,0-4.843,1.198-5.116,4.246h-7.729V109.153z M230.779,114.868c-1.307,1.143-4.028,1.198-6.423,1.633
	c-2.395,0.49-4.572,1.307-4.572,4.137c0,2.885,2.23,3.593,4.736,3.593c6.041,0,6.259-4.79,6.259-6.478V114.868z M244.719,89.774
	h7.728v38.865h-7.728V89.774z M268.344,100.496h5.66v5.173h-5.66v13.935c0,2.612,0.653,3.265,3.265,3.265
	c0.817,0,1.58-0.054,2.395-0.218v6.043c-1.307,0.218-2.994,0.271-4.518,0.271c-4.736,0-8.875-1.088-8.875-6.694v-16.602h-4.679
	v-5.173h4.679V92.06h7.732v8.436H268.344z M277.71,89.774h7.728v14.643h0.164c1.96-3.158,5.335-4.681,8.22-4.681
	c8.219,0,10.287,4.627,10.287,11.594v17.309h-7.73v-15.895c0-4.627-1.36-6.913-4.953-6.913c-4.19,0-5.988,2.341-5.988,8.056v14.752
	h-7.728V89.774z"/>
<path fill="#808285" d="M-86.838,160.328c-0.107,5.263,3.688,6.874,8.343,6.874c2.684,0,6.766-1.469,6.766-5.192
	c0-2.899-2.901-4.046-5.266-4.618l-5.691-1.397c-3.006-0.752-5.764-2.184-5.764-6.157c0-2.506,1.612-7.196,8.806-7.196
	c5.049,0,9.49,2.721,9.454,7.948h-2.436c-0.143-3.903-3.364-5.872-6.981-5.872c-3.329,0-6.407,1.289-6.407,5.083
	c0,2.399,1.789,3.403,3.866,3.903l6.229,1.539c3.616,0.967,6.624,2.543,6.624,6.731c0,1.754-0.717,7.304-9.775,7.304
	c-6.05,0-10.49-2.721-10.203-8.95C-89.273,160.328-86.838,160.328-86.838,160.328z M-63.999,143.179h17.649v2.076h-15.215v9.236
	h14.25v2.077h-14.25v10.097h15.395v2.077h-17.829L-63.999,143.179L-63.999,143.179z M-41.341,143.179h11.707
	c4.225,0,7.769,2.039,7.769,6.659c0,3.221-1.682,5.872-4.975,6.515v0.072c3.329,0.43,4.296,2.721,4.475,5.764
	c0.107,1.754,0.107,5.262,1.18,6.552h-2.684c-0.609-1.002-0.609-2.901-0.68-3.973c-0.215-3.581-0.502-7.556-5.12-7.376h-9.238
	v11.349h-2.434L-41.341,143.179L-41.341,143.179z M-38.907,155.316h9.093c2.973,0,5.514-1.862,5.514-4.977
	c0-3.114-1.862-5.083-5.514-5.083h-9.093V155.316z M-18.651,143.179h2.614l8.306,22.876h0.07l8.235-22.876h2.578l-9.488,25.562
	h-2.829L-18.651,143.179z M7.011,143.179h2.437v25.562H7.011V143.179z M34.9,150.913c-0.859-3.938-4.118-6.194-7.84-6.194
	c-6.766,0-9.63,5.657-9.63,11.242s2.864,11.242,9.63,11.242c4.724,0,7.733-3.653,8.198-8.198h2.435
	c-0.682,6.265-4.654,10.275-10.632,10.275c-8.055,0-12.065-6.337-12.065-13.318c0-6.981,4.01-13.318,12.065-13.318
	c4.832,0,9.628,2.899,10.273,8.271H34.9V150.913z M42.844,143.179h17.649v2.076H45.278v9.236h14.25v2.077h-14.25v10.097h15.395
	v2.077H42.844L42.844,143.179L42.844,143.179z M66.647,160.328c-0.107,5.263,3.688,6.874,8.343,6.874
	c2.684,0,6.767-1.469,6.767-5.192c0-2.899-2.901-4.046-5.264-4.618l-5.692-1.397c-3.008-0.752-5.764-2.184-5.764-6.157
	c0-2.506,1.612-7.196,8.808-7.196c5.048,0,9.486,2.721,9.452,7.948h-2.436c-0.143-3.903-3.364-5.872-6.981-5.872
	c-3.329,0-6.407,1.289-6.407,5.083c0,2.399,1.789,3.403,3.864,3.903l6.231,1.539c3.616,0.967,6.624,2.543,6.624,6.731
	c0,1.754-0.717,7.304-9.775,7.304c-6.05,0-10.49-2.721-10.203-8.95C64.214,160.328,66.647,160.328,66.647,160.328z M100.869,143.179
	h8.843c7.696,0.178,11.742,4.403,11.742,12.781c0,8.378-4.046,12.601-11.742,12.781h-8.843V143.179z M103.303,166.665h5.192
	c7.339,0.035,10.525-3.079,10.525-10.705c0-7.626-3.186-10.742-10.525-10.705h-5.192V166.665z M127,143.179h2.436v25.562H127
	V143.179z M136.2,143.179h11.707c4.225,0,7.769,2.039,7.769,6.659c0,3.221-1.684,5.872-4.975,6.515v0.072
	c3.329,0.43,4.296,2.721,4.475,5.764c0.107,1.754,0.107,5.262,1.18,6.552h-2.684c-0.609-1.002-0.609-2.901-0.68-3.973
	c-0.215-3.581-0.502-7.556-5.12-7.376h-9.237v11.349H136.2V143.179z M138.634,155.316h9.093c2.973,0,5.514-1.862,5.514-4.977
	c0-3.114-1.862-5.083-5.514-5.083h-9.093V155.316z M161.507,143.179h17.649v2.076h-15.215v9.236h14.25v2.077h-14.25v10.097h15.395
	v2.077h-17.829L161.507,143.179L161.507,143.179z M202.855,150.913c-0.86-3.938-4.118-6.194-7.841-6.194
	c-6.767,0-9.63,5.657-9.63,11.242s2.864,11.242,9.63,11.242c4.725,0,7.733-3.653,8.198-8.198h2.436
	c-0.682,6.265-4.655,10.275-10.634,10.275c-8.056,0-12.066-6.337-12.066-13.318c0-6.981,4.01-13.318,12.066-13.318
	c4.833,0,9.63,2.899,10.275,8.271h-2.434V150.913z M208.04,143.179h20.266v2.076h-8.915v23.486h-2.434v-23.485h-8.917V143.179z
	 M242.838,142.642c8.019,0,12.029,6.337,12.029,13.318s-4.01,13.318-12.029,13.318c-8.056,0-12.066-6.337-12.066-13.318
	S234.782,142.642,242.838,142.642z M242.838,167.202c6.729,0,9.595-5.657,9.595-11.242s-2.866-11.242-9.595-11.242
	c-6.767,0-9.632,5.657-9.632,11.242C233.206,161.545,236.071,167.202,242.838,167.202z M260.091,143.179h11.705
	c4.227,0,7.77,2.039,7.77,6.659c0,3.221-1.682,5.872-4.975,6.515v0.072c3.329,0.43,4.296,2.721,4.475,5.764
	c0.107,1.754,0.107,5.262,1.18,6.552h-2.684c-0.609-1.002-0.609-2.901-0.68-3.973c-0.215-3.581-0.502-7.556-5.122-7.376h-9.236
	v11.349h-2.434v-25.562H260.091z M262.525,155.316h9.093c2.973,0,5.514-1.862,5.514-4.977c0-3.114-1.862-5.083-5.514-5.083h-9.093
	V155.316z M292.06,158.216L282,143.179h2.899l8.413,12.961l8.378-12.961h2.899l-10.095,15.037v10.525h-2.434V158.216z"/>
<path fill="#F15D22" d="M-228.559,186.704c-2.737-2.104-3.251-6.036-1.141-8.771l0,0l16.7-21.702
	c2.105-2.737,6.036-3.25,8.771-1.141l0,0c2.737,2.104,3.246,6.03,1.141,8.765l0,0l-16.702,21.708
	c-1.233,1.599-3.086,2.438-4.96,2.438l0,0C-226.081,188-227.423,187.577-228.559,186.704L-228.559,186.704z M-173.902,62.773
	c-26.532,0.005-48.031,21.499-48.031,48.032c0,26.527,21.499,48.026,48.03,48.026c7.626-0.021,15.701-2.005,22.38-6.492
	c6.652-4.389,11.855-11.992,11.784-21.573c0.016-7.27-2.821-14.1-7.883-18.989c-5.051-4.91-12.246-7.792-20.407-7.776l-0.265,0.001
	V89.867c0-2.961-2.397-5.363-5.358-5.363s-5.363,2.402-5.363,5.363v14.122c-1.131-0.003-2.278-0.004-3.414-0.004
	c-5.771,0-11.118,0.034-11.118,0.034c-3.115,0.021-5.63,2.562-5.609,5.683c0.021,3.122,2.562,5.632,5.685,5.611
	c0.011,0,5.314-0.034,11.043-0.034c1.137,0,2.284,0.002,3.413,0.004v14.171c0,2.961,2.403,5.363,5.363,5.363
	c2.961,0,5.358-2.402,5.358-5.363v-14.158l0.277-0.001c5.572,0.018,9.699,1.86,12.536,4.595c2.827,2.751,4.438,6.474,4.449,10.875
	c-0.071,5.589-2.521,9.199-6.825,12.225c-4.277,2.933-10.457,4.572-16.045,4.546c-20.289-0.038-36.698-16.447-36.737-36.731
	c0.039-20.289,16.448-36.7,36.737-36.737c20.286,0.037,36.695,16.448,36.732,36.737c0,1.36-0.037,2.128-0.16,3.498
	c-0.296,3.105,1.983,5.861,5.088,6.152c3.105,0.296,5.859-1.983,6.155-5.088c0.151-1.623,0.211-2.972,0.211-4.562
	C-125.881,84.277-147.373,62.778-173.902,62.773z"/>
</svg>
