<?xml version="1.0" encoding="utf-8"?>
<!-- Generator: Adobe Illustrator 19.1.0, SVG Export Plug-In . SVG Version: 6.00 Build 0)  -->
<svg version="1.1" id="Layer_1" xmlns="http://www.w3.org/2000/svg" xmlns:xlink="http://www.w3.org/1999/xlink" x="0px" y="0px"
	 viewBox="0 0 444.197 109.563" enable-background="new 0 0 444.197 109.563" xml:space="preserve">
<g>
	<path fill="#F5896B" d="M347.399,28.788c-6.538,6.017-18.745,4.457-23.43-3.262c-6.648-10.96,8.9-20.679,18.102-19.217
		c7.477,1.188,10.155,7.892,9.063,15.265C350.684,24.623,349.314,27.026,347.399,28.788"/>
	<path fill="#F6B76D" d="M387.7,29.554c-1.85,1.178-4.112,1.953-6.797,2.162c-6.092,0.47-13.224-0.872-17.519-5.722
		c-5.54-6.257-5.32-15.514,0.515-21.219c7.29-7.127,20.707-6.125,26.752,1.993C395.633,13.464,395.206,24.769,387.7,29.554"/>
	<path fill="#E25553" d="M314.396,37.274c-2.777,4.42-9.857,3.978-11.512-1.753c-1.153-3.988,1.913-7.508,5.573-8.112
		c4.62-0.763,8.165,3.707,6.655,8.327C314.928,36.301,314.684,36.814,314.396,37.274"/>
	<g>
		<path fill="#1E4759" d="M42.808,72.641c0,1.598-0.252,3.784-0.588,6.055l-4.71,29.857H24.726l4.541-28.931
			c0.084-0.841,0.252-1.935,0.252-2.944c-0.084-2.018-0.925-3.447-3.784-3.447c-2.776,0-5.635,1.429-7.822,3.027l-5.13,32.295H0
			l9.503-60.47h12.868l-3.027,18.838c3.196-2.186,7.822-4.204,12.952-4.204C40.116,62.718,42.808,66.587,42.808,72.641z"/>
		<path fill="#1E4759" d="M64.164,89.968c-0.757,0-1.598,0-2.355-0.085c0,6.392,3.112,8.999,9.168,8.999
			c4.037,0,7.822-1.514,11.185-3.197l-1.598,10.934c-3.364,1.681-8.074,2.858-13.54,2.858c-13.12,0-18.167-8.241-18.167-18.501
			c0-13.12,7.317-28.259,23.633-28.259c8.999,0,13.793,4.878,13.793,11.607C86.282,85.342,75.013,89.968,64.164,89.968z
			 M62.313,81.641c0.505,0.085,1.094,0.085,1.598,0.085c5.046,0,11.354-1.851,11.354-6.476c0-2.44-1.345-3.617-3.784-3.617
			C66.939,71.632,62.902,76.426,62.313,81.641z"/>
		<path fill="#1E4759" d="M90.146,91.649c0-13.036,6.644-28.931,20.69-28.931c3.868,0,7.401,1.177,10.092,3.617l1.093-2.86h10.934
			l-5.214,33.22c-0.337,2.103-0.085,3.701,1.934,3.701c1.177,0,2.607-0.422,3.616-0.674l-1.177,8.412
			c-2.439,0.84-4.878,1.344-7.654,1.344c-4.71,0-7.317-2.018-8.578-4.961c-2.859,2.523-6.308,4.878-12.279,4.878
			C95.277,109.395,90.146,103.423,90.146,91.649z M108.733,99.387c2.187,0,4.373-0.926,5.971-2.103l3.701-22.876
			c-1.515-1.261-3.28-2.103-5.299-2.103c-7.653,0-9.756,12.616-9.756,18.42C103.351,96.442,105.033,99.387,108.733,99.387z"/>
		<path fill="#1E4759" d="M147.246,48.084h12.868l-6.897,43.817c-0.168,1.094-0.336,2.271-0.336,3.364
			c0,2.018,0.588,3.617,3.112,3.617c1.43,0,4.205-0.337,6.644-1.431l-1.514,10.093c-3.617,1.429-7.317,1.934-10.513,1.934
			c-8.495,0-11.27-3.7-11.27-9.587c0-1.261,0.084-2.607,0.336-4.037L147.246,48.084z"/>
		<path fill="#1E4759" d="M185.089,72.474l-3.364,20.521c-0.085,0.924-0.252,1.766-0.252,2.607c0,2.101,0.924,3.363,3.363,3.363
			c1.767,0,4.794-0.672,6.896-1.597l-1.429,10.176c-2.86,1.261-7.402,1.934-11.102,1.934c-7.989,0-11.017-4.121-11.017-9.504
			c0-1.514,0.168-2.69,0.337-3.867l3.784-23.633h-5.887l1.43-8.999h5.803l1.429-8.158l13.625-5.383l-2.187,13.54h9.504l-1.346,8.999
			H185.089z"/>
		<path fill="#1E4759" d="M239.582,72.641c0,1.598-0.251,3.784-0.588,6.055l-4.71,29.857h-12.783l4.541-28.931
			c0.084-0.841,0.252-1.935,0.252-2.944c-0.084-2.018-0.925-3.447-3.784-3.447c-2.776,0-5.635,1.429-7.822,3.027l-5.13,32.295
			h-12.783l9.503-60.47h12.868l-3.027,18.838c3.196-2.186,7.822-4.204,12.952-4.204C236.892,62.718,239.582,66.587,239.582,72.641z"
			/>
	</g>
	<g>
		<path fill="#E25553" d="M277.695,67.091l2.944-19.007h5.635l-9.505,60.47h-5.298l0.672-4.373
			c-3.278,2.775-7.568,5.215-12.783,5.215c-7.399,0-12.025-4.878-12.025-15.391c0-13.12,5.886-30.782,20.437-30.782
			C272.228,63.222,274.92,64.988,277.695,67.091z M261.211,104.348c4.121,0,8.41-2.271,11.187-4.541l4.289-27.585
			c-2.607-2.355-5.467-3.954-9.334-3.954c-10.345,0-14.046,17.409-14.046,25.567C253.305,101.32,255.661,104.348,261.211,104.348z"
			/>
		<path fill="#E25553" d="M303.762,64.147l-6.981,44.407h-5.552l6.983-44.407H303.762z M303.342,48.841
			c2.269,0,3.363,1.261,3.363,3.195c0,2.524-1.766,4.878-4.626,4.878c-2.018,0-3.197-1.429-3.197-3.447
			C298.882,51.027,300.565,48.841,303.342,48.841z"/>
		<path fill="#E25553" d="M341.941,70.286l-5.13,2.355c-0.757-2.438-1.515-4.037-4.373-4.037c-3.364,0-7.568,3.195-10.176,5.719
			l-5.384,34.229h-5.635l6.983-44.407h5.296l-0.755,4.71c3.195-3.027,7.149-5.635,11.69-5.635
			C339.334,63.222,341.269,66.922,341.941,70.286z"/>
		<path fill="#E25553" d="M349.002,87.948c-0.168,1.598-0.252,3.112-0.252,4.543c0,7.401,2.944,12.11,10.43,12.11
			c4.541,0,8.578-1.597,11.69-3.11l-0.841,5.466c-2.775,1.431-6.727,2.607-12.279,2.607c-11.102,0-14.719-7.821-14.719-17.409
			c0-11.942,5.552-28.931,21.026-28.931c7.738,0,11.607,4.373,11.607,10.008C375.663,85.594,359.347,87.695,349.002,87.948z
			 M369.775,73.651c0-3.617-2.354-5.55-6.812-5.55c-7.401,0-12.027,8.578-13.036,15.391
			C356.907,83.491,369.775,81.221,369.775,73.651z"/>
		<path fill="#E25553" d="M410.224,101.405l-0.841,5.467c-3.112,1.514-7.484,2.69-12.614,2.69c-11.774,0-15.391-8.073-15.391-17.072
			c0-12.953,5.381-29.268,21.026-29.268c8.998,0,11.605,6.896,11.942,12.446l-5.213,1.178c-0.506-4.626-2.44-8.662-7.57-8.662
			c-10.682,0-14.299,15.054-14.299,23.379c0,8.747,2.861,13.12,10.345,13.12C401.814,104.685,406.355,103.339,410.224,101.405z"/>
		<path fill="#E25553" d="M431.918,68.69l-4.375,27.417c-0.251,1.597-0.505,3.28-0.505,4.541c0,2.607,0.926,4.037,3.954,4.037
			c2.271,0,5.13-1.009,7.149-1.934l-0.757,5.13c-1.766,0.84-5.13,1.681-8.158,1.681c-5.72,0-7.905-2.86-7.905-7.738
			c0-1.009,0.083-2.103,0.252-3.28l4.793-29.856h-5.718l0.672-4.543h5.718l1.178-7.233l6.055-3.195l-1.681,10.428h11.607
			l-0.674,4.543H431.918z"/>
	</g>
</g>
<g>
</g>
<g>
</g>
<g>
</g>
<g>
</g>
<g>
</g>
<g>
</g>
</svg>
