<svg enable-background="new 0 0 520.7 93.1" viewBox="0 0 520.7 93.1" xmlns="http://www.w3.org/2000/svg"><g fill="#fff"><path d="m158.2 20.8 17.1 51h-9.4l-3.6-11.3h-17.6l-3.5 11.3h-9.4l17.1-51zm-11 31.3h12.4l-6.3-19.7z"/><path d="m182.4 71.8v-50.9h21.6c8.8 0 14.1 5.4 14.1 11.2v10.8c0 4.1-2.8 8-7.5 9.9l8.6 18.9h-9.9l-8.1-17.8h-9.4v17.8h-9.4zm9.5-42.4v16.2h11.4c3 0 5.5-1.7 5.5-4.7v-6.7c0-3.1-2.6-4.8-5.9-4.8z"/><path d="m236.8 71.8v-42.5h-12.6v-8.3h33.6v8.3h-11.6v42.5z"/><path d="m269.1 57.3v3.3c0 4.5 4.2 7.9 9.6 7.9h6c5.6 0 9.9-2.7 9.9-7.4v-3.6c0-7.8-28.1-9.3-28.1-22.7v-4.6c0-5.1 4.9-9.6 11.4-9.6h6.7c7.3 0 12.7 4.9 12.7 10.4v4.6h-4.2v-3.8c0-4.2-3.9-7.4-8.8-7.4h-5.8c-4.3 0-7.8 2.8-7.8 6.5v3.7c0 10 28.1 11.3 28.1 22.3v4.9c0 6.4-5.9 10.4-13.8 10.4h-6.5c-7.9 0-13.7-5.1-13.7-11v-3.9z"/><path d="m319.9 71.8v-47.1h-14.2v-3.7h32v3.7h-13.6v47.1z"/><path d="m360.3 20.7 17.9 51.1h-4.2l-5.7-16.3h-20.3l-5.6 16.3h-4.3l18-51.1zm-11 31h17.7l-8.8-25.6z"/><path d="m393.1 71.8v-47.1h-14.2v-3.7h32v3.7h-13.6v47.1z"/><path d="m420.3 71.8v-50.8h4.2v50.8z"/><path d="m450.6 72.2c-7 0-12-5.1-12-11v-29.6c0-5.9 5.1-11 12-11h10.1c6.9 0 11.9 5.1 11.9 11v29.6c0 5.9-5 11-11.9 11zm9.7-3.8c4.5 0 8.1-3.4 8.1-7.9v-28.2c0-4.5-3.6-7.9-8.1-7.9h-9.5c-4.5 0-8.1 3.4-8.1 7.9v28.3c0 4.5 3.6 7.9 8.1 7.9h9.5z"/><path d="m486.7 71.8v-50.8h4.4l25.5 43.4v-43.5h4.2v50.8h-4.4l-25.5-43.4v43.4h-4.2z"/></g><g fill="#13aff0"><path d="m0 71.8 8.9 15.4c1.8 3.5 5.4 5.9 9.5 5.9h59.3l-12.2-21.3z"/><path d="m105.8 71.9c0-2.1-.6-4.1-1.7-5.8l-34.8-60.4c-1.8-3.4-5.3-5.7-9.4-5.7h-18.4l53.7 93 8.5-14.7c1.6-2.8 2.1-4 2.1-6.4z"/><path d="m56.7 56.6-24-41.5-24 41.5z"/></g></svg>