<?xml version="1.0" encoding="utf-8"?>
<!-- Generator: Adobe Illustrator 23.0.0, SVG Export Plug-In . SVG Version: 6.00 Build 0)  -->
<svg version="1.1" id="Layer_1" xmlns="http://www.w3.org/2000/svg" xmlns:xlink="http://www.w3.org/1999/xlink" x="0px" y="0px"
	 viewBox="0 0 999.3 174.9" style="enable-background:new 0 0 999.3 174.9;" xml:space="preserve">
<style type="text/css">
	.st0{fill:#FFFFFF;}
</style>
<g>
	<g>
		<g>
			<g>
				<g>
					<g>
						<path class="st0" d="M410,109.4v43.8c0,6.5-4.7,11.2-11.2,11.2c-4.5,0-10.7-4.7-10.7-11.2c-9.6,8-20.3,11.2-33.1,11.2
							c-31.5,0-56.6-23.5-56.6-55s25-56.6,56.6-56.6S410,77.9,410,109.4z M388.1,109.4c0-18.8-14.3-34.6-33.1-34.6
							c-18.8,0-34.6,15.9-34.6,34.6c0,18.8,15.9,33.1,34.6,33.1C373.8,142.5,388.1,128.2,388.1,109.4z"/>
					</g>
					<g>
						<path class="st0" d="M515.1,153.4c0,6-4.9,11.2-11,11.2h-69.5c-4.2,0-8.3-2.5-10.1-6.3c-2-4-1.6-8.5,1.1-11.8l55.9-72h-47.4
							c-6,0-11-5.1-11-11.2c0-6,4.9-11,11-11h69.5c4.2,0,8.3,2.2,10.1,6.3c2,3.8,1.6,8.3-1.1,11.6l-55.9,72.2h47.4
							C510.2,142.5,515.1,147.4,515.1,153.4z"/>
					</g>
					<g>
						<path class="st0" d="M632.7,108.5c0,6-4.9,11-11.2,11h-77.1c4.7,13.4,17.2,23,32.2,23c5.1,0,14.3-0.4,25-7.4
							c5.1-3.4,12.1-0.2,14.8,5.1c2.7,5.6-0.2,11.4-5.4,14.8c-14.8,9.8-26.2,9.6-34.4,9.6c-31.1,0-56.1-25.3-56.1-56.1
							c0-31.1,25-56.1,56.1-56.1C603.6,52.4,632.7,72,632.7,108.5z M544.4,97.3H609c-4.7-15.6-19-22.8-32.4-22.8
							C561.6,74.5,549.1,84.1,544.4,97.3z"/>
					</g>
					<g>
						<path class="st0" d="M713.2,63.6c0,6-4.9,11.2-11.2,11.2c-18.8,0-34,15.2-34,34v44.9c0,6-4.9,11.2-11,11.2
							c-6.3,0-11.2-5.1-11.2-11.2v-44.9c0-31.1,25.3-56.1,56.1-56.1C708.2,52.6,713.2,57.5,713.2,63.6z"/>
					</g>
					<g>
						<path class="st0" d="M726.4,153.6v-90c0-6,4.9-11,11.2-11c6,0,11,4.9,11,11v90.1c0,6.3-4.9,11.2-11,11.2
							C731.3,164.8,726.4,159.9,726.4,153.6z"/>
					</g>
					<g>
						<path class="st0" d="M761.7,108.5c0-31.1,25.3-56.1,56.1-56.1c31.1,0,56.1,25,56.1,56.1c0,30.8-25,56.1-56.1,56.1
							C786.9,164.6,761.7,139.3,761.7,108.5z M783.8,108.5c0,18.6,15.2,34,34,34s34-15.4,34-34c0-18.8-15.2-34-34-34
							S783.8,89.7,783.8,108.5z"/>
					</g>
					<g>
						<path class="st0" d="M999.3,108.5v44.9c0,6.3-4.9,11.2-11.2,11.2c-6,0-11-4.9-11-11.2v-44.9c0-18.8-15.2-34-34-34
							s-34,15.2-34,34v44.9c0,6.3-4.9,11.2-11.2,11.2c-6,0-11-4.9-11-11.2v-44.9c0-31.1,25.3-56.1,56.1-56.1
							C974,52.4,999.3,77.4,999.3,108.5z"/>
					</g>
				</g>
				<g>
					<path class="st0" d="M729.7,36.7c-2-2-3.4-4.9-3.4-7.8s1.3-5.8,3.4-7.8c2-2,4.9-3.4,7.8-3.4s5.8,1.3,7.8,3.4
						c2,2,3.1,4.9,3.1,7.8s-1.1,5.8-3.1,7.8s-4.9,3.1-7.8,3.1S731.7,38.7,729.7,36.7z"/>
				</g>
			</g>
		</g>
	</g>
	<g>
		<path class="st0" d="M192.6,112c0.3,0.3,0.4,0.5,0.6,0.8c3,4.6,4.9,9.6,5.4,15c0.4,4.7-0.3,9.3-2.1,13.7
			c-3.5,8.4-9.3,14.6-17.4,18.7c-6.2,3.2-12.8,4.5-19.7,4.1c-8.1-0.5-15.3-3.3-21.6-8.4c-0.6-0.5-1.1-0.9-1.6-1.4
			c-9.3-9.6-15.4-20.9-18.1-34c-0.9-4.5-1.3-9.1-1.3-13.8c0-6.3,0-12.7,0-19c0-3.9-0.7-7.7-2.1-11.3c-3.8-9.4-12.2-16.2-22.2-17.9
			C76.3,55.9,62.2,66.4,59,81.1c-0.6,2.5-0.7,5.1-0.6,7.6c0,0.7,0.1,1.3,0.1,2c-0.3,0.2-0.4-0.1-0.5-0.2c-1.4-2-2.7-4.2-3.8-6.4
			c-2.9-5.6-4.7-11.5-5.6-17.7C47,55,49,44.4,54.8,34.4c7.1-12.4,17.6-20.8,31-25.6c4.1-1.5,8.4-2.5,12.7-3
			c4.8-0.5,9.6-0.5,14.3,0.1c5.8,0.8,11.3,2.4,16.6,4.9c1.1,0.5,2.3,1.1,3.3,1.8C153,24.8,167.5,45,172.7,68c1.1,5,1.8,10,2,15.1
			c0.1,1.9,0.1,3.8,0.1,5.7c0,5.9,0.1,11.8,0.1,17.6c0,1,0.1,2,0.3,2.9c1,3.7,3.4,6.2,7.2,7c3.7,0.8,6.9-0.4,9.3-3.3
			c0.1-0.1,0.2-0.3,0.3-0.4C192.2,112.4,192.3,112.3,192.6,112z"/>
		<path class="st0" d="M102.9,1.5c-0.4,0-0.7,0.1-1.1,0.1c-3.1,0.1-6.1,0.3-9.2,0.8C84.1,3.8,76.2,6.9,69,11.6
			C60.6,17,53.9,24,49,32.7c-3.3,5.9-5.5,12.2-6.5,19c-0.7,4.9-0.9,9.8-0.3,14.7c1.7,14,7.6,25.9,17.4,36c3.8,3.9,8,7.2,12.6,10
			c4,2.4,8.3,3.9,12.9,4.2c7.8,0.6,14.7-1.6,20.8-6.5c1.2-1,2.4-2.1,3.7-3.1c0.2-0.2,0.5-0.3,0.7-0.5c0.3,0.2,0.2,0.4,0.2,0.6
			c0,1.4,0,2.8,0,4.2c-0.1,2.4,0.3,4.9,0.6,7.3c1.2,7.4,3.4,14.5,6.7,21.2c3.6,7.3,8.3,13.9,14.1,19.7c0.6,0.7,1.3,1.3,1.9,2
			c-3,2.7-15.1,8.1-22.8,10.3c-12.8,3.6-25.8,4.2-38.9,1.9c-13.6-2.4-25.9-7.8-37-16C1,131.9-9.1,86.8,8.5,49.9
			c9-18.8,23-32.6,41.7-41.6C68.1-0.3,87.6-1.6,102.9,1.5z"/>
		<path class="st0" d="M154.7,167.6c1,0.2,2,0.4,2.9,0.5c6.9,1.1,13.7,0.6,20.4-1.8c10.5-3.8,18.4-10.6,23.5-20.6
			c2.5-4.9,3.8-10.2,3.8-15.8c0-5.5-1.2-10.8-3.6-15.8c-2.4-5-5.7-9.3-9.7-13.1c-4.4-4-7.3-9-8.6-14.8c-3.5-15.5,5.7-30.5,20.5-34.6
			c10.3-2.9,21.1,0.1,28.5,7.5c9.6,9.7,15.7,21.2,18.4,34.5c0.9,4.2,1.3,8.5,1.3,12.8c0,2.4,0,4.7-0.2,7c-0.6,5.6-1.8,11.1-3.7,16.4
			c-7.7,21.4-25.6,37.5-47.7,42.9c-6.7,1.6-13.5,2.2-20.4,1.8c-8.5-0.5-16.7-2.6-24.4-6.3C155.4,168.2,155,168.1,154.7,167.6z"/>
	</g>
</g>
</svg>
