<?xml version="1.0" encoding="utf-8"?>
<!-- Generator: Adobe Illustrator 16.0.0, SVG Export Plug-In . SVG Version: 6.00 Build 0)  -->
<!DOCTYPE svg PUBLIC "-//W3C//DTD SVG 1.1//EN" "http://www.w3.org/Graphics/SVG/1.1/DTD/svg11.dtd">
<svg version="1.1" id="Layer_1" xmlns="http://www.w3.org/2000/svg" xmlns:xlink="http://www.w3.org/1999/xlink" x="0px" y="0px"
	 width="786.666px" height="206.757px" viewBox="0 0 786.666 206.757" enable-background="new 0 0 786.666 206.757"
	 xml:space="preserve">
<g>
	<path fill="#FFFFFF" d="M383.734,100.608h-6.811l0.208-7.793h-8.284l-2.541,7.793h-6.197l14.447-42.953h9.879L383.734,100.608z
		 M370.735,86.986h6.504l0.578-21.722L370.735,86.986z"/>
	<path fill="#FFFFFF" d="M403.3,57.164c6.564,0,9.248,3.927,8.036,10.799l-0.238,1.351h-6.382l0.313-1.779
		c0.541-3.069-0.48-4.234-2.628-4.234c-2.146,0-3.58,1.165-4.121,4.234c-1.558,8.836,11.342,10.493,9.179,22.765
		c-1.213,6.873-5.341,10.8-11.967,10.8c-6.628,0-9.371-3.927-8.159-10.8l0.465-2.639h6.381l-0.541,3.069
		c-0.541,3.067,0.614,4.172,2.762,4.172s3.692-1.105,4.233-4.172c1.558-8.836-11.342-10.493-9.178-22.766
		C392.667,61.091,396.734,57.164,403.3,57.164z"/>
	<path fill="#FFFFFF" d="M414.404,67.963c1.211-6.872,5.523-10.799,12.15-10.799s9.555,3.927,8.344,10.799l-3.938,22.336
		c-1.213,6.873-5.525,10.8-12.152,10.8s-9.554-3.927-8.342-10.8L414.404,67.963z M417.139,90.729
		c-0.541,3.067,0.603,4.234,2.75,4.234s3.704-1.167,4.245-4.234l4.089-23.195c0.541-3.069-0.604-4.234-2.751-4.234
		c-2.147,0-3.703,1.165-4.244,4.234L417.139,90.729z"/>
	<path fill="#FFFFFF" d="M455.591,84.593l-1.006,5.707c-1.212,6.873-5.342,10.8-11.968,10.8c-6.627,0-9.371-3.927-8.158-10.8
		l3.938-22.336c1.211-6.872,5.34-10.799,11.967-10.799c6.626,0,9.371,3.927,8.159,10.799l-0.735,4.174h-6.382l0.812-4.603
		c0.541-3.069-0.604-4.234-2.751-4.234c-2.147,0-3.703,1.165-4.244,4.234l-4.09,23.195c-0.541,3.067,0.613,4.172,2.762,4.172
		s3.692-1.105,4.233-4.172l1.082-6.137H455.591z"/>
	<path fill="#FFFFFF" d="M464.145,57.655h6.75l-7.574,42.953h-6.75L464.145,57.655z"/>
	<path fill="#FFFFFF" d="M489.767,100.608h-6.812l0.208-7.793h-8.282l-2.541,7.793h-6.198l14.447-42.953h9.879L489.767,100.608z
		 M476.768,86.986h6.504l0.578-21.722L476.768,86.986z"/>
	<path fill="#FFFFFF" d="M514.927,84.593l-1.006,5.707c-1.212,6.873-5.342,10.8-11.969,10.8s-9.37-3.927-8.157-10.8l3.938-22.336
		c1.211-6.872,5.34-10.799,11.967-10.799c6.626,0,9.371,3.927,8.159,10.799l-0.735,4.174h-6.383l0.812-4.603
		c0.541-3.069-0.604-4.234-2.751-4.234c-2.147,0-3.703,1.165-4.244,4.234l-4.09,23.195c-0.541,3.067,0.614,4.172,2.762,4.172
		c2.148,0,3.692-1.105,4.233-4.172l1.082-6.137H514.927z"/>
	<path fill="#FFFFFF" d="M523.481,57.655h6.75l-7.574,42.953h-6.75L523.481,57.655z"/>
	<path fill="#FFFFFF" d="M532.463,67.963c1.211-6.872,5.523-10.799,12.15-10.799s9.556,3.927,8.344,10.799l-3.938,22.336
		c-1.211,6.873-5.525,10.8-12.152,10.8s-9.554-3.927-8.342-10.8L532.463,67.963z M535.198,90.729
		c-0.541,3.067,0.604,4.234,2.751,4.234c2.147,0,3.703-1.167,4.244-4.234l4.09-23.195c0.541-3.069-0.604-4.234-2.751-4.234
		c-2.146,0-3.703,1.165-4.244,4.234L535.198,90.729z M553.369,48.573l-7.459,6.812h-4.541l5.374-6.812H553.369z"/>
	<path fill="#FFFFFF" d="M562.75,69.499l-5.485,31.11h-6.075l7.574-42.953h8.467l2.4,25.71l4.533-25.71h6.014l-7.574,42.953h-6.934
		L562.75,69.499z"/>
	<path fill="#FFFFFF" d="M593.924,57.655h10.677c6.749,0,9.403,3.743,8.19,10.615l-3.829,21.722
		c-1.212,6.873-5.187,10.616-11.936,10.616H586.35L593.924,57.655z M599.591,63.791l-5.41,30.681h3.804
		c2.147,0,3.63-1.104,4.171-4.172l3.938-22.336c0.541-3.067-0.553-4.172-2.7-4.172L599.591,63.791L599.591,63.791z"/>
	<path fill="#FFFFFF" d="M622.21,75.757h9.265l-1.082,6.137h-9.265l-2.219,12.578h11.658l-1.082,6.137h-18.408l7.574-42.953h18.408
		l-1.082,6.136H624.32L622.21,75.757z"/>
	<path fill="#FFFFFF" d="M664.955,84.593l-1.006,5.707c-1.212,6.873-5.341,10.8-11.968,10.8s-9.37-3.927-8.159-10.8l3.938-22.336
		c1.212-6.872,5.34-10.799,11.967-10.799c6.626,0,9.371,3.927,8.159,10.799l-0.736,4.174h-6.382l0.811-4.603
		c0.541-3.069-0.604-4.234-2.751-4.234c-2.146,0-3.703,1.165-4.244,4.234l-4.09,23.195c-0.541,3.067,0.615,4.172,2.763,4.172
		c2.146,0,3.691-1.105,4.232-4.172l1.082-6.137H664.955z"/>
	<path fill="#FFFFFF" d="M673.51,57.655h6.749l-6.491,36.816h11.104l-1.081,6.137h-17.855L673.51,57.655z"/>
	<path fill="#FFFFFF" d="M700.446,57.655l-5.843,33.135c-0.541,3.068,0.615,4.173,2.762,4.173c2.148,0,3.692-1.105,4.233-4.173
		l5.843-33.135h6.382l-5.767,32.706c-1.212,6.872-5.34,10.8-11.968,10.8c-6.626,0-9.371-3.928-8.158-10.8l5.767-32.706H700.446
		L700.446,57.655z"/>
	<path fill="#FFFFFF" d="M736.564,67.535l-0.271,1.534c-0.779,4.418-2.626,7.241-5.883,8.651c3.371,1.413,4.209,4.664,3.408,9.205
		l-0.616,3.498c-1.169,6.627-5.293,10.186-12.043,10.186h-10.616l7.574-42.953h10.188C735.3,57.655,737.733,60.907,736.564,67.535z
		 M720.703,81.28l-2.326,13.192h3.865c2.271,0,3.682-1.043,4.244-4.234l0.661-3.743c0.703-3.988-0.369-5.215-3.438-5.215H720.703z
		 M723.786,63.791l-2.002,11.352h2.64c2.516,0,4.246-1.104,4.852-4.54l0.421-2.394c0.542-3.067-0.264-4.418-2.658-4.418H723.786z"/>
	<path fill="#FFFFFF" d="M746.282,75.757h9.266l-1.081,6.137h-9.268l-2.218,12.578h11.658l-1.082,6.137H735.15l7.573-42.953h18.409
		l-1.082,6.136h-11.658L746.282,75.757z"/>
	<path fill="#FFFFFF" d="M774.166,57.164c6.565,0,9.248,3.927,8.036,10.799l-0.236,1.351h-6.382l0.312-1.779
		c0.541-3.069-0.481-4.234-2.629-4.234c-2.148,0-3.579,1.165-4.12,4.234c-1.559,8.836,11.343,10.493,9.179,22.765
		c-1.212,6.873-5.341,10.8-11.968,10.8s-9.371-3.927-8.158-10.8l0.465-2.639h6.382l-0.541,3.069
		c-0.541,3.067,0.613,4.172,2.762,4.172c2.147,0,3.691-1.105,4.231-4.172c1.561-8.836-11.342-10.493-9.178-22.766
		C763.533,61.091,767.602,57.164,774.166,57.164z"/>
	<path fill="#FFFFFF" d="M379.202,111.697c6.688,0,9.042,4.051,7.874,10.678l-3.819,21.66c-1.158,6.565-4.94,10.615-11.628,10.615
		h-10.063l7.574-42.953H379.202L379.202,111.697z M372.335,150.294c3.437,0,5.472-2.147,6.164-6.075l3.896-22.091
		c0.692-3.926-0.586-6.074-4.083-6.074h-5.155l-6.036,34.24H372.335z"/>
	<path fill="#FFFFFF" d="M405.056,130.72l-0.757,4.295h-10.493l-2.694,15.279h12.886l-0.768,4.355h-17.672l7.574-42.953h17.672
		l-0.77,4.357h-12.886l-2.586,14.666H405.056z"/>
	<path fill="#FFFFFF" d="M442.564,121.578l-0.271,1.532c-0.778,4.418-2.627,7.241-5.883,8.652c3.372,1.411,4.209,4.663,3.409,9.204
		l-0.617,3.498c-1.168,6.629-5.294,10.187-12.044,10.187h-10.614l7.573-42.953h10.187
		C441.3,111.697,443.732,114.951,442.564,121.578z M426.702,135.322l-2.325,13.193h3.864c2.271,0,3.683-1.043,4.245-4.234
		l0.66-3.742c0.703-3.99-0.369-5.217-3.437-5.217H426.702z M429.786,117.833l-2.001,11.352h2.639c2.516,0,4.245-1.104,4.851-4.54
		l0.422-2.394c0.541-3.067-0.265-4.418-2.658-4.418H429.786z"/>
	<path fill="#FFFFFF" d="M462.994,154.65h-6.811l0.208-7.793h-8.284l-2.541,7.793h-6.197l14.447-42.953h9.878L462.994,154.65z
		 M449.995,141.028h6.505l0.577-21.722L449.995,141.028z M467.568,102.616l-7.46,6.812h-4.54l5.373-6.812H467.568z"/>
	<path fill="#FFFFFF" d="M482.561,111.207c6.564,0,9.248,3.928,8.036,10.799l-0.238,1.352h-6.382l0.314-1.779
		c0.54-3.068-0.48-4.233-2.629-4.233c-2.147,0-3.58,1.165-4.121,4.233c-1.559,8.836,11.343,10.492,9.179,22.766
		c-1.212,6.873-5.34,10.8-11.967,10.8c-6.628,0-9.371-3.927-8.159-10.8l0.465-2.639h6.381l-0.541,3.068
		c-0.541,3.066,0.614,4.172,2.762,4.172c2.148,0,3.692-1.105,4.233-4.172c1.558-8.836-11.342-10.493-9.178-22.766
		C471.927,115.132,475.994,111.207,482.561,111.207z"/>
	<path fill="#FFFFFF" d="M493.666,122.005c1.211-6.873,5.523-10.799,12.15-10.799s9.555,3.928,8.343,10.799l-3.938,22.336
		c-0.422,2.394-1.208,4.419-2.35,6.015c0.166,0.797,0.637,0.92,1.739,0.92h0.614l-1.062,6.013h-0.92
		c-3.006,0-4.714-1.104-5.31-2.944c-1.438,0.489-3.085,0.798-4.865,0.798c-6.627,0-9.555-3.928-8.343-10.801L493.666,122.005z
		 M496.4,144.772c-0.541,3.067,0.604,4.233,2.751,4.233c2.147,0,3.703-1.168,4.244-4.233l4.09-23.194
		c0.541-3.07-0.604-4.234-2.751-4.234c-2.146,0-3.703,1.164-4.244,4.234L496.4,144.772z"/>
	<path fill="#FFFFFF" d="M526.471,111.697l-5.843,33.137c-0.541,3.066,0.613,4.172,2.762,4.172c2.147,0,3.692-1.105,4.232-4.172
		l5.844-33.137h6.381l-5.768,32.706c-1.212,6.873-5.34,10.8-11.967,10.8s-9.371-3.927-8.159-10.8l5.768-32.706H526.471
		L526.471,111.697z"/>
	<path fill="#FFFFFF" d="M547.699,129.798h9.267l-1.082,6.138h-9.267l-2.218,12.579h11.658l-1.082,6.136h-18.408l7.574-42.953
		h18.408l-1.082,6.136H549.81L547.699,129.798z"/>
	<path fill="#FFFFFF" d="M564.452,111.697h20.862l-1.082,6.137h-7.056l-6.492,36.816h-6.749l6.492-36.816h-7.058L564.452,111.697z"
		/>
	<path fill="#FFFFFF" d="M606.4,121.578l-0.271,1.532c-0.778,4.418-2.626,7.241-5.883,8.652c3.372,1.411,4.209,4.663,3.409,9.204
		l-0.617,3.498c-1.168,6.629-5.293,10.187-12.043,10.187H580.38l7.573-42.953h10.187C605.135,111.697,607.568,114.951,606.4,121.578
		z M590.537,135.322l-2.325,13.193h3.865c2.271,0,3.682-1.043,4.244-4.234l0.659-3.742c0.704-3.99-0.369-5.217-3.437-5.217H590.537z
		 M593.621,117.833l-2.002,11.352h2.64c2.516,0,4.245-1.104,4.851-4.54l0.422-2.394c0.541-3.067-0.265-4.418-2.658-4.418H593.621z"
		/>
	<path fill="#FFFFFF" d="M610.19,122.005c1.212-6.873,5.524-10.799,12.151-10.799s9.555,3.928,8.343,10.799l-3.938,22.336
		c-1.211,6.873-5.523,10.801-12.15,10.801s-9.556-3.928-8.343-10.801L610.19,122.005z M612.926,144.772
		c-0.541,3.067,0.603,4.233,2.75,4.233c2.146,0,3.703-1.168,4.244-4.233l4.09-23.194c0.541-3.07-0.604-4.234-2.75-4.234
		c-2.148,0-3.704,1.164-4.245,4.234L612.926,144.772z"/>
	<path fill="#FFFFFF" d="M636.552,111.697h6.75l-6.492,36.817h11.104l-1.082,6.136h-17.854L636.552,111.697z"/>
</g>
<path fill="#FFFFFF" d="M198.37,112.817c-2.129,8.41-8.973,12.675-17.5,12.675c-11.889-0.111-19.521-10.212-19.521-21.761
	c0-13.017,7.74-21.879,19.521-21.879c8.417,0,14.36,3.591,17.165,11.557c6.843,0,12.903,0,19.742,0
	c-3.026-20.977-20.639-29.841-36.906-29.841c-15.767,0-31.662,8.399-37.713,25.073c-4.958-13.435-16.854-24.091-35.705-24.174
	H77.836v63.843L47.831,63.457h-8.639L3.855,140.078v2.916h19.633l4.598-9.871h30.964l4.6,9.871h14.188h5.443h24.173
	c18.851-0.084,30.747-10.742,35.705-24.177c6.051,16.669,21.947,25.052,37.713,24.962c16.715,0,34.328-8.749,37.246-30.96
	C211.272,112.817,205.102,112.817,198.37,112.817z M34.593,115.958l8.862-20.644l9.086,20.644H34.593z M107.452,124.708h-9.537
	v-41.96h9.537C132.467,82.748,132.467,124.708,107.452,124.708z"/>
<path fill="#00BFED" d="M224.624,1c-37.531,0-71.874,21.168-89.288,54.477c4.838-3.444,10.392-6.288,16.584-8.493l0.024-0.035
	l0.586-0.248l1.151-0.322c12.487-4.131,24.687-4.752,30.839-4.752c3.157,0,5.031,0.155,5.108,0.162l0.542,0.096
	c27.124,1.68,46.413,15.485,61.929,26.591c11.999,8.59,22.363,16.009,33.548,16.661l1.206,0.069l0.224,1.188
	c0.629,3.321,1.055,6.756,1.271,10.207l0.104,1.644h-67.687c0.104,1.405,0.158,2.801,0.158,4.174c0,1.488-0.065,3.014-0.192,4.556
	h67.721l-0.104,1.646c-0.216,3.45-0.642,6.885-1.271,10.203l-0.224,1.188l-1.206,0.069c-11.188,0.655-21.549,8.072-33.548,16.664
	c-15.537,11.118-34.853,24.944-62.021,26.599l-0.45,0.085c-0.077,0.007-1.958,0.16-5.122,0.16c-6.15,0-18.343-0.618-30.884-4.767
	l-0.412-0.11c-0.228-0.064-0.455-0.127-0.687-0.196l-0.534-0.158l-0.086-0.125c-6.186-2.206-11.734-5.049-16.571-8.491
	c17.414,33.309,51.757,54.479,89.289,54.479c54.971,0,100.249-45.204,100.932-100.767l0.012-1.107l-0.012-0.58
	C324.872,46.203,279.594,1,224.624,1z M281.272,74.625c-7.109-2.121-14.801-7.625-23.707-13.999
	C239.787,47.9,217.657,32.061,184.66,32.061c-5.014,0-10.197,0.376-15.413,1.117l-5.76,0.818l4.759-3.699
	c0.204-0.156,20.869-15.649,43.763-15.649c4.923,0,9.644,0.723,14.031,2.146c7.617,2.728,16.263,7.873,25.744,15.308
	c15.021,11.787,25.576,25.407,31.374,40.489l1.129,2.936L281.272,74.625z M257.266,24.254c-3.572-2.786-7.403-5.484-11.388-8.017
	l-6.154-3.914l7.212,1.077c1.04,0.156,25.617,3.999,40.038,21.279c14.03,16.808,13.347,26.29,13.09,29.859l-0.033,0.47
	c-0.217,4.138-1.771,7.016-4.618,8.558l-1.613,0.875l-0.591-1.739C286.974,54.293,274.88,37.993,257.266,24.254z M212.012,190.572
	c-22.893,0-43.562-15.494-43.765-15.65l-0.203-0.158l-4.214-3.494l5.418,0.771c5.215,0.739,10.399,1.116,15.412,1.116
	c32.996,0,55.125-15.838,72.905-28.563c8.903-6.374,16.595-11.879,23.707-14l3.016-0.899l-1.129,2.937
	c-5.798,15.08-16.353,28.701-31.374,40.488c-9.48,7.435-18.125,12.578-25.699,15.295
	C221.653,189.851,216.933,190.572,212.012,190.572z M286.974,170.539c-14.42,17.28-38.998,21.123-40.038,21.279l-7.202,1.075
	l6.144-3.912c3.996-2.541,7.826-5.239,11.389-8.019c17.614-13.733,29.708-30.035,35.942-48.449l0.591-1.739l1.613,0.876
	c2.847,1.543,4.401,4.422,4.618,8.559l0.033,0.471C300.321,144.25,301.003,153.729,286.974,170.539z M315.876,108.626
	c-0.583,8.531-2.334,16.914-5.196,24.916l-1.652,4.608l-1.297-4.72c-0.295-1.075-0.67-2.092-1.116-3.018
	c-1.861-3.887-4.975-6.744-9.254-8.49l-1.168-0.475l0.231-1.24c0.716-3.828,1.195-7.789,1.423-11.775l0.083-1.46h18.062
	L315.876,108.626z M297.93,98.245l-0.083-1.46c-0.228-3.988-0.707-7.949-1.423-11.777l-0.231-1.24l1.168-0.476
	c4.276-1.743,7.39-4.597,9.254-8.486c0.446-0.928,0.821-1.945,1.117-3.02l1.299-4.718l1.649,4.608
	c2.861,8.002,4.612,16.384,5.196,24.915l0.116,1.654H297.93z"/>
</svg>
