<?xml version="1.0" encoding="utf-8"?>
<!-- Generator: Adobe Illustrator 20.0.0, SVG Export Plug-In . SVG Version: 6.00 Build 0)  -->
<svg version="1.1" id="Layer_1" xmlns="http://www.w3.org/2000/svg" xmlns:xlink="http://www.w3.org/1999/xlink" x="0px" y="0px"
	 viewBox="0 0 50 50" style="enable-background:new 0 0 50 50;" xml:space="preserve">
<style type="text/css">
	.st0{fill:none;stroke:#000000;stroke-miterlimit:10;}
	.st1{fill:#101010;stroke:#000000;stroke-width:0.25;stroke-miterlimit:10;}
</style>
<g>
	<g>
		<path d="M35.87953,18.0611V31.9389H14.12045V18.0611H35.87953 M36.87953,17.0611H13.12045V32.9389h23.75908V17.0611
			L36.87953,17.0611z"/>
	</g>
	<polyline class="st0" points="36.47511,17.46691 25.0007,25.85168 13.52628,17.46691 	"/>
</g>
<g>
	<g>
		<path class="st1" d="M25.09361,49.91912c-13.7633,0-24.96012-11.19682-24.96012-24.95931S11.33031,0.00049,25.09361,0.00049
			c13.76249,0,24.95932,11.19682,24.95932,24.95931S38.8561,49.91912,25.09361,49.91912z M25.09361,2.47435
			c-12.39913,0-22.48625,10.08713-22.48625,22.48545s10.08713,22.48545,22.48625,22.48545
			c12.39832,0,22.48545-10.08713,22.48545-22.48545S37.49193,2.47435,25.09361,2.47435z"/>
	</g>
	<g>
		<path class="st1" d="M25.09361,45.79923c-11.49075,0-20.83942-9.34948-20.83942-20.84023
			c0-11.48995,9.34867-20.83701,20.83942-20.83701S45.93222,13.46905,45.93222,24.959
			C45.93222,36.44975,36.58436,45.79923,25.09361,45.79923z M25.09361,4.94822c-11.03496,0-20.01319,8.97662-20.01319,20.01078
			c0,11.03496,8.97824,20.01239,20.01319,20.01239S45.10599,35.99395,45.10599,24.959
			C45.10599,13.92484,36.12856,4.94822,25.09361,4.94822z"/>
	</g>
</g>
</svg>
