<svg version="1.1" id="Layer_1" xmlns="http://www.w3.org/2000/svg" x="0" y="0" viewBox="0 0 129 129" xml:space="preserve"><style>.st1{fill:#f1f2f2}.st3{fill:#f98c32}.st4{fill:#ffa561}</style><path fill="#c6610e" d="M1 53.5L64.5.9 128 53.5v74.6H1z"/><path class="st1" d="M107.3 98.2H21.7c-.6 0-1.2-.5-1.2-1.2V12.9c0-.6.5-1.2 1.2-1.2h85.5c.6 0 1.2.5 1.2 1.2V97c0 .7-.5 1.2-1.1 1.2z"/><path d="M107.3 11.8H21.7c-.6 0-1.2.5-1.2 1.2v.9c0-.6.5-1.2 1.2-1.2h85.5c.6 0 1.2.5 1.2 1.2V13c0-.8-.5-1.2-1.1-1.2z" fill="#fff"/><path class="st3" d="M1 53.5l52.6 37.3L1 128.1z"/><path class="st4" d="M1 53.5v.8l51.6 36.5L1 127.3v.8l52.6-37.3z"/><path class="st3" d="M128 53.5L75.3 90.8l52.7 37.3z"/><path class="st4" d="M128 53.5v.8L76.3 90.8l51.7 36.5v.8L75.3 90.8z"/><path fill="#e3720d" d="M75.4 90.8H53.6L1 128.1h127z"/><path class="st1" d="M55.5 104.7s1.3-.5 2.7-.5c1.4 0 4.7 3.9 6.2 3.8 3.9-.2 2.1.3.9 1.3-2.3.8-9.8-4.6-9.8-4.6zm9.4 18.1s1.3-9.8 8.6-18.1c-.5-.8-2.4-.7-3.1-.3-6.9 11.1-5.5 18.4-5.5 18.4z"/><path class="st1" d="M64.9 122.8s-.3-1.6-1.2-4.1c-.5-5 4.5-10.6 4.5-10.6s-5.2 6.1-8.6 1.7c-1.7-2.1-1.7-2.1-4-5 3-1.1 5.5 3.2 8.9 3.2 3.3 0 5.2-4.8 8.2-3.6-7.4 9.5-7.8 18.4-7.8 18.4z"/><path class="st1" d="M64.7 99.2c1.7 0 3 1.3 3 3s-1.3 3-3 3c-1.6 0-3-1.3-3-3 .1-1.7 1.4-3 3-3z"/><path class="st1" d="M66.8 100.9c.8.8.7 2.2-.1 3.1-.9.9-2.2 1-2.9.2-.8-.8 1.8-.6 2.6-1.6.9-.8-.4-2.5.4-1.7z"/><path d="M64.5 28.9c-13.1 0-23.7 10.6-23.7 23.7s10.6 23.7 23.7 23.7 23.7-10.6 23.7-23.7-10.6-23.7-23.7-23.7zm3 42.4h-6v-6h6v6zm0-12.4v3.4h-6V56c0-1.5 1.2-2.6 2.6-2.6 3 .1 5.7-2 6.3-5 .3-3.3-2.2-6.2-5.5-6.5-3.3-.3-6.2 2.2-6.5 5.5h-6c0-5.6 3.8-10.4 9.2-11.7 6.4-1.5 12.9 2.4 14.4 8.8 1.6 6.4-2.2 12.8-8.5 14.4z" fill="#be1931"/></svg>