<svg width="46" height="32" viewBox="0 0 46 32" fill="none" xmlns="http://www.w3.org/2000/svg">
<g clip-path="url(#clip0)">
<path d="M45.0364 3.55812C45.0364 2.70569 44.1884 2.05668 43.274 2.07433H8.4438C6.87799 2.07433 6.09079 3.67762 7.20545 4.60789L20.0137 15.3003L7.19273 26.2178C6.09629 27.1516 6.88452 28.741 8.4438 28.741H43.2771C44.2403 28.741 45.0336 28.0792 45.036 27.2636C45.036 27.2621 45.0364 27.261 45.0364 27.2595V3.55812ZM41.5179 23.6545L31.7073 15.3003L41.5179 7.1105V23.6545ZM12.7176 5.03729H39.0034L25.8605 16.0089L12.7176 5.03729ZM22.5124 17.3862L24.6218 19.1472C25.3076 19.7196 26.413 19.7196 27.0988 19.1472L29.2082 17.3862L39.0632 25.778H12.6578L22.5124 17.3862Z" fill="#18B394"/>
<path d="M3.9868 11.2593H8.4437C9.41542 11.2593 10.203 10.5962 10.203 9.77787C10.203 8.95958 9.41542 8.29639 8.4437 8.29639H3.9868C3.01508 8.29639 2.22754 8.95958 2.22754 9.77787C2.22754 10.5962 3.01543 11.2593 3.9868 11.2593Z" fill="#18B394"/>
<path d="M7.97542 15.4075C7.97542 14.5892 7.18788 13.926 6.21616 13.926H1.75926C0.787543 13.926 0 14.5892 0 15.4075C0 16.2258 0.787543 16.889 1.75926 16.889H6.21616C7.18754 16.889 7.97542 16.2258 7.97542 15.4075Z" fill="#18B394"/>
<path d="M10.203 21.0371C10.203 20.2189 9.41542 19.5557 8.4437 19.5557H3.9868C3.01508 19.5557 2.22754 20.2189 2.22754 21.0371C2.22754 21.8554 3.01508 22.5186 3.9868 22.5186H8.4437C9.41542 22.5186 10.203 21.8554 10.203 21.0371Z" fill="#18B394"/>
</g>
<defs>
<clipPath id="clip0">
<rect width="45.037" height="32" fill="white"/>
</clipPath>
</defs>
</svg>
