<?xml version="1.0" encoding="utf-8"?>
<!-- Generator: Adobe Illustrator 25.2.1, SVG Export Plug-In . SVG Version: 6.00 Build 0)  -->
<svg version="1.1" id="Layer_1" xmlns="http://www.w3.org/2000/svg" xmlns:xlink="http://www.w3.org/1999/xlink" x="0px" y="0px"
	 width="557.9px" height="373px" viewBox="0 0 557.9 373" style="enable-background:new 0 0 557.9 373;" xml:space="preserve">
<style type="text/css">
	.st0{fill:none;stroke:#BCBEC0;stroke-width:6;stroke-linejoin:bevel;stroke-miterlimit:10;}
	.st1{fill:#BCBEC0;}
	.st2{fill:none;stroke:#BCBEC0;stroke-width:2.8914;stroke-linejoin:bevel;stroke-miterlimit:10;}
	.st3{fill:#A3DCE6;}
	.st4{fill:#3F3E29;}
	.st5{fill:#6D6E71;}
</style>
<path class="st0" d="M56.2,373v-44.4c0-5.7,0-15.7,5.3-22.4l21.7-32.3c2.8-4.8,5.3-12.7,5.3-18.5c0,0-0.4-64.9-0.4-91.3
	c0-6.9-1.5-16.3-2.9-19.2c-6.6-13.6-15.7-27.4-21.4-37.8C59,98.3,56.2,92.4,56.2,82c0,0,0-52.9,0-82"/>
<line class="st0" x1="343.8" y1="0" x2="343.8" y2="373"/>
<line class="st0" x1="40" y1="239.8" x2="557.9" y2="239.8"/>
<path class="st0" d="M19.1,70.5H104l125.4-0.1c11.5,0,20.5-3.9,27.6-7.8l75.8-36.8c15.3-7.2,27-11.5,38.1-11.5h186.9"/>
<path class="st0" d="M255.2,240.9v87.7"/>
<g id="XMLID_1_">
	<g>
		<path class="st0" d="M40,183.4c0,0,37.1,0,64.1,0c6.9,0,18.1,0.3,23.7-4.5l89.9-77.1c7-7,19.6-9,23.9-9
			c26.1,0,102.1,0.2,102.1,0.2l214.1-0.2"/>
		<line class="st0" x1="343.8" y1="124.3" x2="193.1" y2="124.3"/>
	</g>
</g>
<g>
	<path class="st1" d="M522.1,150.7l-1.4-22.9h1.3c0.3-1.4,1.5-2.5,3-2.7l0.7-6.4h1.2c0.2,0,0.3-0.1,0.3-0.2v-0.6
		c0-0.1-0.2-0.2-0.3-0.2h-1c-1.3-0.9-1.6-2.4-4.5-2.5H521v-1.1h0.4v-0.7H521v-0.2h-2.3v-1.6h0.6v-0.3h0.3V111h-0.3h-0.6v-9.7h-0.4
		v9.7h-0.6h-0.3v0.3h0.3v0.3h0.6v1.6H516v0.2h-0.4v0.7h0.4v1.1h-0.4c-2.7,0.1-3,1.6-4.5,2.5h-1c-0.2,0-0.3,0.1-0.3,0.2v0.6
		c0,0.1,0.2,0.2,0.3,0.2h1.2l0.7,6.4c1.4,0.2,2.6,1.3,3,2.7h1.3l-1.4,22.9L522.1,150.7L522.1,150.7z"/>
	<path class="st1" d="M497,150.7v1.2h21.4h21.4v-1.2c0,0-9.1-2.4-21.4-2.4C506.1,148.4,497,150.7,497,150.7"/>
</g>
<g>
	<line class="st2" x1="532.4" y1="131.6" x2="547.1" y2="131.6"/>
	<g>
		<path class="st1" d="M556.2,131.6l-11.6-5.8c0,0,2.6,5.8,0,11.5L556.2,131.6"/>
	</g>
</g>
<g>
	<path class="st3" d="M273.6,247c0,0-0.5,6,3.4,10.8c1.9,2.3,5.1,5.2,12.7,8.9c8.4,4.1,18.4,6.4,21.7,16.6c0.8,2.6,0.5,5.3,0.4,9.3
		c0,0-0.6-3.4-4.1-7.8c-5.6-7.1-25.4-14.6-28.8-16.9C275.6,265.5,270.1,263.1,273.6,247"/>
	<path class="st3" d="M305.3,254c0,0,0.5,6-3.5,10.8c-1.9,2.3-5.1,5.2-12.7,8.9c-8.4,4.1-18.4,6.4-21.7,16.6
		c-0.8,2.6-0.5,5.3-0.4,9.3c0,0,0.6-3.4,4.1-7.8c5.6-7.1,25.4-14.6,28.8-16.9C303.3,272.5,308.9,270.2,305.3,254"/>
	<path class="st3" d="M292.4,262.5c0-1.8,1.4-3.2,3.2-3.2c1.8,0,3.2,1.4,3.2,3.2c0,1.8-1.4,3.2-3.2,3.2S292.4,264.3,292.4,262.5"/>
	<path class="st4" d="M314.8,256.3c0,0,0.6,7.9-4.4,14.1c-2.4,3-6.5,6.8-16.3,11.6c-10.8,5.4-23.7,8.3-28,21.7
		c-1.1,3.4-0.6,6.9-0.5,12.1c0,0,0.8-4.5,5.2-10.2c7.2-9.3,32.7-19.1,37.1-22.1C312.3,280.5,319.4,277.4,314.8,256.3"/>
	<path class="st4" d="M266.6,269c0,0-0.6,7.9,4.4,14.1c2.4,3,6.5,6.8,16.3,11.6c10.8,5.4,23.7,8.3,27.9,21.7
		c1.1,3.4,0.6,6.9,0.5,12.1c0,0-0.8-4.5-5.2-10.2c-7.2-9.3-32.7-19.1-37-22.1C269.1,293.2,262,290.1,266.6,269"/>
	<path class="st4" d="M273.7,278.3c0-2.3,1.9-4.2,4.2-4.2c2.3,0,4.2,1.9,4.2,4.2c0,2.3-1.9,4.2-4.2,4.2S273.7,280.6,273.7,278.3"/>
</g>
<g>
	<path class="st5" d="M404.7,62.8v2.1h-0.4c-1.9,0-3.4,0.6-4.5,1.7s-1.8,2.6-2,4.6c1-1.2,2.4-1.7,4.1-1.7s3,0.6,4,1.8
		c1,1.2,1.5,2.7,1.5,4.6c0,2-0.5,3.6-1.6,4.7c-1.1,1.2-2.5,1.8-4.3,1.8s-3.3-0.7-4.5-2.1c-1.1-1.4-1.7-3.2-1.7-5.5v-0.9
		c0-3.5,0.8-6.2,2.3-8.1s3.8-2.8,6.7-2.9h0.4V62.8z M401.5,71.5c-0.8,0-1.6,0.3-2.3,0.8c-0.7,0.5-1.2,1.1-1.5,1.9V75
		c0,1.6,0.4,2.9,1.1,3.8s1.6,1.5,2.7,1.5s2-0.4,2.6-1.2c0.6-0.8,0.9-1.9,0.9-3.2c0-1.3-0.3-2.4-1-3.2
		C403.4,71.9,402.6,71.5,401.5,71.5z"/>
	<path class="st5" d="M427.3,77h-8l-1.8,5h-2.6l7.3-19.2h2.2l7.3,19.2h-2.6L427.3,77z M420,74.9h6.5l-3.3-9L420,74.9z"/>
	<path class="st5" d="M437.1,78.7l3.5-11h2.5l-5,14.3h-1.9L431,67.7h2.5L437.1,78.7z"/>
	<path class="st5" d="M451.1,82.3c-1.9,0-3.5-0.6-4.7-1.9s-1.8-3-1.8-5.1v-0.4c0-1.4,0.3-2.7,0.8-3.8c0.5-1.1,1.3-2,2.3-2.6
		s2-0.9,3.2-0.9c1.9,0,3.3,0.6,4.3,1.8c1,1.2,1.5,3,1.5,5.2v1H447c0,1.4,0.4,2.5,1.2,3.4c0.8,0.9,1.8,1.3,3,1.3
		c0.9,0,1.6-0.2,2.2-0.5s1.1-0.8,1.6-1.4l1.5,1.2C455.3,81.4,453.5,82.3,451.1,82.3z M450.8,69.5c-1,0-1.8,0.4-2.5,1.1
		s-1.1,1.7-1.2,3h7.1v-0.2c-0.1-1.2-0.4-2.2-1-2.9C452.7,69.8,451.9,69.5,450.8,69.5z"/>
	<path class="st5" d="M472.3,73.5c-2.2-0.6-3.8-1.4-4.7-2.3s-1.5-2-1.5-3.4c0-1.5,0.6-2.8,1.8-3.8s2.8-1.5,4.7-1.5
		c1.3,0,2.5,0.3,3.5,0.8s1.8,1.2,2.4,2.1s0.9,1.9,0.9,2.9h-2.5c0-1.2-0.4-2.1-1.1-2.7c-0.7-0.7-1.8-1-3.1-1c-1.2,0-2.2,0.3-2.9,0.8
		c-0.7,0.6-1,1.3-1,2.3c0,0.8,0.3,1.4,1,2c0.7,0.5,1.8,1,3.4,1.5s2.8,0.9,3.7,1.5c0.9,0.5,1.6,1.2,2,1.9c0.4,0.7,0.7,1.6,0.7,2.5
		c0,1.6-0.6,2.8-1.8,3.7c-1.2,0.9-2.8,1.4-4.9,1.4c-1.3,0-2.5-0.3-3.7-0.8c-1.1-0.5-2-1.2-2.6-2.1s-0.9-1.9-0.9-3h2.5
		c0,1.2,0.4,2.1,1.3,2.8c0.9,0.7,2,1,3.4,1c1.3,0,2.4-0.3,3.1-0.8s1.1-1.3,1.1-2.2c0-0.9-0.3-1.7-1-2.2
		C475.2,74.5,474,74,472.3,73.5z"/>
	<path class="st5" d="M486.8,76l0.4,2.5l0.5-2.3l3.8-13.4h2.1l3.7,13.4l0.5,2.3l0.4-2.6l3-13.1h2.5L499.1,82h-2.3l-4-14l-0.3-1.5
		l-0.3,1.5l-4.1,14h-2.3l-4.6-19.2h2.5L486.8,76z"/>
</g>
<g>
	<path class="st5" d="M221,146.4c-0.5,0.6-1.1,1.1-1.8,1.5s-1.5,0.6-2.3,0.6c-1.1,0-2.1-0.3-2.9-0.8c-0.8-0.5-1.5-1.3-1.9-2.3
		s-0.7-2.1-0.7-3.3c0-1.3,0.2-2.4,0.7-3.5c0.5-1,1.2-1.8,2.1-2.4c0.9-0.5,1.9-0.8,3.1-0.8c1.9,0,3.4,0.7,4.5,2.1
		c1.1,1.4,1.6,3.4,1.6,5.8v0.7c0,3.7-0.7,6.5-2.2,8.2s-3.7,2.6-6.7,2.6H214v-2.1h0.5c2,0,3.6-0.6,4.6-1.6S220.9,148.6,221,146.4z
		 M217.2,146.4c0.8,0,1.6-0.3,2.3-0.8s1.2-1.1,1.5-1.9v-1c0-1.6-0.3-2.9-1-3.9s-1.6-1.5-2.6-1.5c-1.1,0-1.9,0.4-2.6,1.2
		c-0.7,0.8-1,1.9-1,3.3c0,1.3,0.3,2.4,0.9,3.2C215.3,146,216.1,146.4,217.2,146.4z"/>
	<path class="st5" d="M243.7,149.9h-8l-1.8,5h-2.6l7.3-19.2h2.2l7.3,19.2h-2.6L243.7,149.9z M236.4,147.8h6.5l-3.3-9L236.4,147.8z"
		/>
	<path class="st5" d="M253.6,151.6l3.5-11h2.5l-5.1,14.3h-1.9l-5.2-14.3h2.5L253.6,151.6z"/>
	<path class="st5" d="M267.6,155.2c-1.9,0-3.5-0.6-4.7-1.9s-1.8-3-1.8-5.1v-0.4c0-1.4,0.3-2.7,0.8-3.8s1.3-2,2.3-2.6s2-0.9,3.2-0.9
		c1.9,0,3.3,0.6,4.3,1.8s1.5,3,1.5,5.2v1h-9.7c0,1.4,0.4,2.5,1.2,3.4s1.8,1.3,3,1.3c0.9,0,1.6-0.2,2.2-0.5c0.6-0.4,1.1-0.8,1.6-1.4
		l1.5,1.2C271.8,154.2,270,155.2,267.6,155.2z M267.3,142.4c-1,0-1.8,0.4-2.5,1.1c-0.7,0.7-1.1,1.7-1.2,3h7.1v-0.2
		c-0.1-1.2-0.4-2.2-1-2.9C269.1,142.7,268.3,142.4,267.3,142.4z"/>
	<path class="st5" d="M288.7,146.3c-2.2-0.6-3.8-1.4-4.7-2.3s-1.5-2-1.5-3.4c0-1.5,0.6-2.8,1.8-3.8c1.2-1,2.8-1.5,4.7-1.5
		c1.3,0,2.5,0.3,3.5,0.8s1.8,1.2,2.4,2.1c0.6,0.9,0.9,1.9,0.9,2.9h-2.5c0-1.2-0.4-2.1-1.1-2.7c-0.7-0.7-1.8-1-3.1-1
		c-1.2,0-2.2,0.3-2.9,0.8c-0.7,0.6-1,1.3-1,2.3c0,0.8,0.3,1.4,1,2c0.7,0.5,1.8,1,3.4,1.5c1.6,0.4,2.8,0.9,3.7,1.5
		c0.9,0.5,1.6,1.2,2,1.9s0.7,1.6,0.7,2.5c0,1.6-0.6,2.8-1.8,3.7c-1.2,0.9-2.8,1.4-4.9,1.4c-1.3,0-2.5-0.3-3.7-0.8
		c-1.1-0.5-2-1.2-2.6-2.1c-0.6-0.9-0.9-1.9-0.9-3h2.5c0,1.2,0.4,2.1,1.3,2.8s2,1,3.4,1c1.3,0,2.4-0.3,3.1-0.8s1.1-1.3,1.1-2.2
		s-0.3-1.7-1-2.2C291.7,147.3,290.5,146.8,288.7,146.3z"/>
	<path class="st5" d="M303.2,148.8l0.4,2.5l0.5-2.3l3.8-13.4h2.1l3.7,13.4l0.5,2.3l0.4-2.6l3-13.1h2.5l-4.7,19.2h-2.3l-4-14
		l-0.3-1.5l-0.3,1.5l-4.1,14h-2.3l-4.6-19.2h2.5L303.2,148.8z"/>
</g>
<g>
	<path class="st5" d="M77.9,37.4L84.1,53l6.3-15.7h3.3v19.2h-2.5V49l0.2-8.1l-6.3,15.6h-1.9L76.9,41l0.3,8v7.5h-2.5V37.4H77.9z"/>
	<path class="st5" d="M103.7,56.8c-1.9,0-3.5-0.6-4.7-1.9s-1.8-3-1.8-5.1v-0.4c0-1.4,0.3-2.7,0.8-3.8s1.3-2,2.3-2.6s2-0.9,3.2-0.9
		c1.9,0,3.3,0.6,4.3,1.8s1.5,3,1.5,5.2v1h-9.7c0,1.4,0.4,2.5,1.2,3.4s1.8,1.3,3,1.3c0.9,0,1.6-0.2,2.2-0.5c0.6-0.4,1.1-0.8,1.6-1.4
		l1.5,1.2C107.9,55.9,106.1,56.8,103.7,56.8z M103.4,44c-1,0-1.8,0.4-2.5,1.1c-0.7,0.7-1.1,1.7-1.2,3h7.1v-0.2
		c-0.1-1.2-0.4-2.2-1-2.9C105.2,44.4,104.4,44,103.4,44z"/>
	<path class="st5" d="M114.4,42.3l0.1,1.6c1-1.2,2.5-1.8,4.2-1.8c2,0,3.4,0.8,4.1,2.3c0.5-0.7,1.1-1.2,1.9-1.7
		c0.8-0.4,1.7-0.6,2.7-0.6c3.1,0,4.7,1.7,4.8,5v9.6h-2.4v-9.4c0-1-0.2-1.8-0.7-2.3s-1.2-0.8-2.3-0.8c-0.9,0-1.7,0.3-2.3,0.8
		c-0.6,0.5-0.9,1.3-1,2.2v9.5H121v-9.4c0-2.1-1-3.1-3-3.1c-1.6,0-2.7,0.7-3.3,2v10.4h-2.4V42.3H114.4z"/>
	<path class="st5" d="M135.1,49.3c0-1.4,0.3-2.7,0.8-3.8s1.3-2,2.3-2.6s2.1-0.9,3.4-0.9c1.9,0,3.5,0.7,4.7,2s1.8,3.1,1.8,5.4v0.2
		c0,1.4-0.3,2.6-0.8,3.7c-0.5,1.1-1.3,2-2.3,2.6s-2.1,0.9-3.4,0.9c-1.9,0-3.5-0.7-4.7-2s-1.8-3.1-1.8-5.3V49.3z M137.6,49.6
		c0,1.6,0.4,2.9,1.1,3.8c0.7,1,1.7,1.4,2.9,1.4s2.2-0.5,3-1.5s1.1-2.3,1.1-4.1c0-1.6-0.4-2.8-1.1-3.8c-0.7-1-1.7-1.5-3-1.5
		c-1.2,0-2.2,0.5-2.9,1.4C138,46.4,137.6,47.8,137.6,49.6z"/>
	<path class="st5" d="M158.1,44.5c-0.4-0.1-0.8-0.1-1.2-0.1c-1.6,0-2.7,0.7-3.3,2v10.1h-2.4V42.3h2.4v1.6c0.8-1.3,1.9-1.9,3.4-1.9
		c0.5,0,0.8,0.1,1.1,0.2V44.5z"/>
	<path class="st5" d="M160.3,38.5c0-0.4,0.1-0.7,0.4-1c0.2-0.3,0.6-0.4,1.1-0.4s0.8,0.1,1.1,0.4c0.2,0.3,0.4,0.6,0.4,1
		s-0.1,0.7-0.4,1s-0.6,0.4-1.1,0.4s-0.8-0.1-1.1-0.4C160.5,39.2,160.3,38.9,160.3,38.5z M163,56.6h-2.4V42.3h2.4V56.6z"/>
	<path class="st5" d="M175.7,56.6c-0.1-0.3-0.3-0.8-0.3-1.5c-1.1,1.2-2.5,1.8-4.1,1.8c-1.4,0-2.6-0.4-3.5-1.2s-1.4-1.8-1.4-3
		c0-1.5,0.6-2.6,1.7-3.5s2.7-1.2,4.8-1.2h2.4v-1.1c0-0.9-0.3-1.5-0.8-2s-1.3-0.8-2.3-0.8c-0.9,0-1.6,0.2-2.2,0.7
		c-0.6,0.4-0.9,1-0.9,1.6h-2.5c0-0.7,0.3-1.4,0.8-2.1c0.5-0.7,1.2-1.2,2.1-1.6c0.9-0.4,1.8-0.6,2.9-0.6c1.6,0,2.9,0.4,3.9,1.2
		c0.9,0.8,1.4,2,1.5,3.4v6.6c0,1.3,0.2,2.4,0.5,3.1v0.2C178.3,56.6,175.7,56.6,175.7,56.6z M171.6,54.7c0.8,0,1.5-0.2,2.2-0.6
		c0.7-0.4,1.2-0.9,1.5-1.5v-2.9h-1.9c-3,0-4.5,0.9-4.5,2.6c0,0.8,0.3,1.4,0.8,1.8C170.2,54.5,170.8,54.7,171.6,54.7z"/>
	<path class="st5" d="M184.2,56.6h-2.4V36.3h2.4V56.6z"/>
	<path class="st5" d="M195.2,56.6V37.4h5.4c1.7,0,3.1,0.4,4.4,1.1s2.3,1.8,3,3.2s1.1,2.9,1.1,4.7v1.2c0,1.8-0.3,3.4-1,4.8
		c-0.7,1.4-1.7,2.4-3,3.1c-1.3,0.7-2.8,1.1-4.5,1.1H195.2z M197.7,39.4v15.1h2.7c2,0,3.5-0.6,4.6-1.8s1.6-2.9,1.6-5.2v-1.1
		c0-2.2-0.5-3.9-1.5-5.1c-1-1.2-2.5-1.8-4.4-1.8h-3L197.7,39.4L197.7,39.4z"/>
	<path class="st5" d="M219.4,44.5c-0.4-0.1-0.8-0.1-1.2-0.1c-1.6,0-2.7,0.7-3.3,2v10.1h-2.4V42.3h2.4v1.6c0.8-1.3,1.9-1.9,3.4-1.9
		c0.5,0,0.8,0.1,1.1,0.2V44.5z"/>
</g>
<g>
	<path class="st5" d="M119,168.2l-12.4-14.6l4.8-4.1c1.6-1.3,3.1-2,4.4-2.1c1.4,0,2.6,0.6,3.7,1.9c0.6,0.7,0.9,1.5,1,2.3
		c0.1,0.9-0.1,1.7-0.6,2.6c1-0.5,2-0.6,2.9-0.3c1,0.2,1.8,0.8,2.6,1.6c1.1,1.3,1.6,2.7,1.4,4.2s-1.1,2.9-2.7,4.2L119,168.2z
		 M113.8,158.1l2.9-2.5c0.8-0.7,1.3-1.5,1.5-2.4c0.1-0.9-0.1-1.6-0.7-2.4c-0.7-0.8-1.4-1.2-2.2-1.2c-0.8,0-1.6,0.5-2.6,1.3l-2.9,2.4
		L113.8,158.1z M115.1,159.7l4.5,5.3l3.2-2.7c0.9-0.8,1.4-1.6,1.5-2.5s-0.2-1.8-0.9-2.6c-1.5-1.8-3.2-1.8-5.1-0.2L115.1,159.7z"/>
	<path class="st5" d="M126.4,152.4c-0.9-1.1-1.5-2.2-1.8-3.4s-0.3-2.4,0.1-3.5s1-2.1,2-2.9c1.5-1.3,3.1-1.8,4.9-1.5
		c1.8,0.2,3.4,1.2,4.8,2.9l0.1,0.1c0.9,1.1,1.5,2.2,1.8,3.4s0.3,2.3-0.1,3.4c-0.4,1.1-1,2.1-2,2.9c-1.5,1.3-3.1,1.8-4.9,1.5
		C129.5,155.1,127.9,154.1,126.4,152.4L126.4,152.4z M128.4,151c1,1.2,2.1,1.9,3.3,2.2s2.2,0,3.2-0.8c0.9-0.8,1.4-1.8,1.3-3
		c-0.1-1.2-0.7-2.5-1.8-3.8c-1-1.2-2.1-1.9-3.3-2.2s-2.3,0-3.2,0.8c-0.9,0.8-1.3,1.8-1.3,3S127.3,149.7,128.4,151z"/>
	<path class="st5" d="M150.5,137l-5-10.1l1.9-1.6l6.1,13.6l-1.5,1.3l-9.6-6l4.4,10.4l-1.5,1.3l-12.4-8.2l1.8-1.6l9.1,6.3l-4.4-10.3
		l1.5-1.3L150.5,137z"/>
	<path class="st5" d="M161.4,109.7l-4.7,4l11.1,13.1l-1.9,1.6l-11.1-13.1l-4.7,4l-1.3-1.6l11.3-9.6L161.4,109.7z"/>
	<path class="st5" d="M170.3,108.7c-0.3,0.2-0.6,0.4-1,0.7c-1.2,1-1.6,2.3-1.2,3.7l6.6,7.7l-1.9,1.6l-9.2-10.9l1.8-1.5l1.1,1.2
		c-0.2-1.5,0.2-2.7,1.4-3.7c0.4-0.3,0.7-0.5,0.9-0.6L170.3,108.7z"/>
</g>
<g>
	<path class="st5" d="M18.2,242.9c-2-0.2-3.6-1-4.7-2.2s-1.7-2.9-1.7-5c0-2.3,0.8-4.1,2.4-5.5s3.8-2.1,6.5-2.1h1.8
		c1.8,0,3.4,0.3,4.7,1c1.4,0.6,2.4,1.5,3.1,2.7s1.1,2.5,1.1,4.1c0,2-0.6,3.7-1.7,4.9S27,242.7,25,243v-2.5c1.5-0.2,2.6-0.7,3.3-1.4
		s1-1.8,1-3.1c0-1.6-0.6-2.9-1.8-3.8c-1.2-0.9-2.9-1.4-5.1-1.4h-1.9c-2.1,0-3.7,0.4-5,1.3c-1.2,0.9-1.8,2.1-1.8,3.7
		c0,1.4,0.3,2.5,1,3.2s1.7,1.3,3.3,1.5v2.4H18.2z"/>
	<path class="st5" d="M24.2,252.9c0.1-0.4,0.1-0.8,0.1-1.2c0-1.6-0.7-2.7-2-3.3H12.1V246h14.3v2.4h-1.6c1.3,0.8,1.9,1.9,1.9,3.4
		c0,0.5-0.1,0.8-0.2,1.1H24.2z"/>
	<path class="st5" d="M19.3,254.5c1.4,0,2.7,0.3,3.8,0.8s2,1.3,2.6,2.3s0.9,2.1,0.9,3.4c0,1.9-0.7,3.5-2,4.7s-3.1,1.8-5.4,1.8H19
		c-1.4,0-2.6-0.3-3.7-0.8s-2-1.3-2.6-2.3c-0.6-1-0.9-2.1-0.9-3.4c0-1.9,0.7-3.5,2-4.7s3.1-1.8,5.3-1.8L19.3,254.5L19.3,254.5z
		 M19.1,256.9c-1.6,0-2.9,0.4-3.8,1.1c-1,0.7-1.4,1.7-1.4,2.9c0,1.2,0.5,2.2,1.5,3c1,0.7,2.3,1.1,4.1,1.1c1.6,0,2.8-0.4,3.8-1.1
		s1.5-1.7,1.5-3c0-1.2-0.5-2.2-1.4-2.9C22.2,257.3,20.8,256.9,19.1,256.9z"/>
	<path class="st5" d="M15.4,282.8l10.9,2.7v2.4L12,283.7v-2l10.8-3.5L12.1,275v-2l14.3-4.1v2.4l-10.7,2.8l10.7,3.3v2L15.4,282.8z"/>
	<path class="st5" d="M13.8,296.2c0,0.9,0.3,1.6,0.8,2.3c0.5,0.7,1.2,1,2,1.1v2.3c-0.8,0-1.6-0.3-2.3-0.8s-1.3-1.2-1.8-2.1
		c-0.4-0.9-0.7-1.8-0.7-2.8c0-1.9,0.6-3.5,1.9-4.6s3.1-1.7,5.3-1.7h0.4c1.4,0,2.6,0.3,3.7,0.8s1.9,1.2,2.5,2.2s0.9,2.1,0.9,3.4
		c0,1.6-0.5,2.9-1.4,4s-2.2,1.6-3.7,1.7v-2.3c0.9-0.1,1.7-0.4,2.3-1c0.6-0.6,0.9-1.4,0.9-2.3c0-1.2-0.4-2.2-1.3-2.9s-2.2-1-3.9-1
		h-0.5c-1.6,0-2.9,0.3-3.8,1C14.2,294,13.8,295,13.8,296.2z"/>
	<path class="st5" d="M24.6,306.6c1.3,1.1,2,2.5,2,4.2c0,3-1.7,4.5-5.1,4.6h-9.4V313h9.4c1,0,1.8-0.2,2.3-0.7s0.7-1.2,0.7-2.2
		c0-0.8-0.2-1.5-0.6-2.1s-1-1.1-1.7-1.4H12.1v-2.4h20.3v2.4L24.6,306.6L24.6,306.6z"/>
	<path class="st5" d="M12.1,321.7v-2.4h14.3v2.4H12.1z M30.1,319c0.4,0,0.7,0.1,1,0.4c0.3,0.2,0.4,0.6,0.4,1.1s-0.1,0.8-0.4,1.1
		c-0.3,0.2-0.6,0.4-1,0.4s-0.7-0.1-1-0.4s-0.4-0.6-0.4-1.1s0.1-0.8,0.4-1.1C29.4,319.2,29.7,319,30.1,319z"/>
	<path class="st5" d="M12.1,328.2v-2.4h20.3v2.4H12.1z"/>
	<path class="st5" d="M19.3,331.6c2.2,0,4,0.5,5.3,1.6c1.3,1,2,2.4,2,4.1s-0.6,3-1.7,4h7.4v2.4H12.1v-2.2l1.5-0.1
		c-1.2-1-1.8-2.3-1.8-4.1c0-1.7,0.7-3,2-4c1.4-1,3.1-1.6,5.3-1.6L19.3,331.6L19.3,331.6z M19.1,334c-1.6,0-2.9,0.3-3.8,1
		c-0.9,0.7-1.4,1.6-1.4,2.8c0,1.5,0.7,2.7,2.1,3.4h6.6c1.3-0.7,2-1.9,2-3.4c0-1.2-0.5-2.1-1.4-2.8C22.2,334.3,20.9,334,19.1,334z"/>
	<path class="st5" d="M29.2,365.7v-6.2H12.1V357h17.1v-6.2h2.1v14.9L29.2,365.7L29.2,365.7z"/>
	<path class="st5" d="M24.2,373.1c0.1-0.4,0.1-0.8,0.1-1.2c0-1.6-0.7-2.7-2-3.3H12.1v-2.4h14.3v2.4h-1.6c1.3,0.8,1.9,1.9,1.9,3.4
		c0,0.5-0.1,0.8-0.2,1.1H24.2z"/>
</g>
<g>
	<path class="st5" d="M215.1,256.3v-2.5h16.3l-1.8-4.9h2.2l2.6,7v0.4H215.1z"/>
	<path class="st5" d="M234.3,273.1h-2.1v-0.4c0-1.9-0.6-3.4-1.7-4.5c-1.1-1.1-2.6-1.8-4.6-2c1.2,1,1.7,2.4,1.7,4.1s-0.6,3-1.8,4
		s-2.7,1.5-4.6,1.5c-2,0-3.6-0.5-4.7-1.6c-1.2-1.1-1.8-2.5-1.8-4.3s0.7-3.3,2.1-4.5c1.4-1.1,3.2-1.7,5.5-1.7h0.9
		c3.5,0,6.2,0.8,8.1,2.3c1.9,1.5,2.8,3.8,2.9,6.7v0.4H234.3z M225.6,269.9c0-0.8-0.3-1.6-0.8-2.3c-0.5-0.7-1.1-1.2-1.9-1.5H222
		c-1.6,0-2.9,0.4-3.8,1.1s-1.5,1.6-1.5,2.7s0.4,2,1.2,2.6s1.9,0.9,3.2,0.9s2.4-0.3,3.2-1C225.2,271.8,225.6,270.9,225.6,269.9z"/>
	<path class="st5" d="M220.1,289.9v-8l-5-1.8v-2.6l19.2,7.3v2.2l-19.2,7.3v-2.6L220.1,289.9z M222.2,282.6v6.5l9-3.3L222.2,282.6z"
		/>
	<path class="st5" d="M223.6,309.3c0.6-2.2,1.4-3.8,2.3-4.7s2-1.5,3.4-1.5c1.5,0,2.8,0.6,3.8,1.8s1.5,2.8,1.5,4.7
		c0,1.3-0.3,2.5-0.8,3.5s-1.2,1.8-2.1,2.4c-0.9,0.6-1.9,0.9-2.9,0.9v-2.5c1.2,0,2.1-0.4,2.7-1.1c0.7-0.7,1-1.8,1-3.1
		c0-1.2-0.3-2.2-0.8-2.9c-0.6-0.7-1.3-1-2.3-1c-0.8,0-1.4,0.3-2,1c-0.5,0.7-1,1.8-1.5,3.4s-0.9,2.8-1.5,3.7c-0.5,0.9-1.2,1.6-1.9,2
		s-1.6,0.7-2.5,0.7c-1.6,0-2.8-0.6-3.7-1.8c-0.9-1.2-1.4-2.8-1.4-4.9c0-1.3,0.3-2.5,0.8-3.7c0.5-1.1,1.2-2,2.1-2.6
		c0.9-0.6,1.9-0.9,3-0.9v2.5c-1.2,0-2.1,0.4-2.8,1.3s-1,2-1,3.4c0,1.3,0.3,2.4,0.8,3.1s1.3,1.1,2.2,1.1s1.7-0.3,2.2-1
		C222.6,312.2,223.1,311,223.6,309.3z"/>
	<path class="st5" d="M232.8,322.5h-3.5v2.7h-1.9v-2.7h-8.9c-0.6,0-1,0.1-1.3,0.4c-0.3,0.2-0.4,0.6-0.4,1.2c0,0.3,0.1,0.7,0.2,1.2
		h-2c-0.2-0.6-0.3-1.3-0.3-1.9c0-1.1,0.3-1.9,1-2.5s1.6-0.8,2.8-0.8h8.9v-2.6h1.9v2.6h3.5V322.5z"/>
	<path class="st5" d="M223.6,340.8c0.6-2.2,1.4-3.8,2.3-4.7s2-1.5,3.4-1.5c1.5,0,2.8,0.6,3.8,1.8s1.5,2.8,1.5,4.7
		c0,1.3-0.3,2.5-0.8,3.5s-1.2,1.8-2.1,2.4c-0.9,0.6-1.9,0.9-2.9,0.9v-2.5c1.2,0,2.1-0.4,2.7-1.1c0.7-0.7,1-1.8,1-3.1
		c0-1.2-0.3-2.2-0.8-2.9c-0.6-0.7-1.3-1-2.3-1c-0.8,0-1.4,0.3-2,1c-0.5,0.7-1,1.8-1.5,3.4s-0.9,2.8-1.5,3.7c-0.5,0.9-1.2,1.6-1.9,2
		s-1.6,0.7-2.5,0.7c-1.6,0-2.8-0.6-3.7-1.8c-0.9-1.2-1.4-2.8-1.4-4.9c0-1.3,0.3-2.5,0.8-3.7c0.5-1.1,1.2-2,2.1-2.6
		c0.9-0.6,1.9-0.9,3-0.9v2.5c-1.2,0-2.1,0.4-2.8,1.3s-1,2-1,3.4c0,1.3,0.3,2.4,0.8,3.1s1.3,1.1,2.2,1.1s1.7-0.3,2.2-1
		C222.6,343.7,223.1,342.5,223.6,340.8z"/>
	<path class="st5" d="M221.1,355.3l-2.5,0.4l2.3,0.5l13.4,3.8v2.1l-13.4,3.7l-2.3,0.5l2.6,0.4l13.1,3v2.5l-19.2-4.7v-2.3l14-4
		l1.5-0.3l-1.5-0.3l-14-4.1v-2.3l19.2-4.6v2.5L221.1,355.3z"/>
</g>
<g>
	<path class="st5" d="M360,259.5V257h16.3l-1.8-4.9h2.2l2.6,7v0.4H360z"/>
	<path class="st5" d="M366.4,277v2.7h-2V277H360v-2.5h4.5v-8.7h1.4l13.3,8.6v2.6H366.4z M366.4,268.5v6h9.4l-0.5-0.3L366.4,268.5z"
		/>
	<path class="st5" d="M368.5,294.8c0.6-2.2,1.4-3.8,2.3-4.7s2-1.5,3.4-1.5c1.5,0,2.8,0.6,3.8,1.8s1.5,2.8,1.5,4.7
		c0,1.3-0.3,2.5-0.8,3.5s-1.2,1.8-2.1,2.4s-1.9,0.9-2.9,0.9v-2.5c1.2,0,2.1-0.4,2.7-1.1c0.7-0.7,1-1.8,1-3.1c0-1.2-0.3-2.2-0.8-2.9
		s-1.3-1-2.3-1c-0.8,0-1.4,0.3-2,1c-0.5,0.7-1,1.8-1.5,3.4s-0.9,2.8-1.5,3.7c-0.5,0.9-1.2,1.6-1.9,2c-0.7,0.4-1.6,0.7-2.5,0.7
		c-1.6,0-2.8-0.6-3.7-1.8c-0.9-1.2-1.4-2.8-1.4-4.9c0-1.3,0.3-2.5,0.8-3.7c0.5-1.1,1.2-2,2.1-2.6s1.9-0.9,3-0.9v2.5
		c-1.2,0-2.1,0.4-2.8,1.3c-0.7,0.9-1,2-1,3.4c0,1.3,0.3,2.4,0.8,3.1s1.3,1.1,2.2,1.1c0.9,0,1.7-0.3,2.2-1
		C367.5,297.7,368,296.6,368.5,294.8z"/>
	<path class="st5" d="M377.7,308.1h-3.5v2.7h-1.9v-2.7h-8.9c-0.6,0-1,0.1-1.3,0.4c-0.3,0.2-0.4,0.6-0.4,1.2c0,0.3,0.1,0.7,0.2,1.2
		h-2c-0.2-0.6-0.3-1.3-0.3-1.9c0-1.1,0.3-1.9,1-2.5s1.6-0.8,2.8-0.8h8.8v-2.6h1.9v2.6h3.5L377.7,308.1L377.7,308.1z"/>
	<path class="st5" d="M368.5,326.4c0.6-2.2,1.4-3.8,2.3-4.7s2-1.5,3.4-1.5c1.5,0,2.8,0.6,3.8,1.8s1.5,2.8,1.5,4.7
		c0,1.3-0.3,2.5-0.8,3.5s-1.2,1.8-2.1,2.4s-1.9,0.9-2.9,0.9V331c1.2,0,2.1-0.4,2.7-1.1c0.7-0.7,1-1.8,1-3.1c0-1.2-0.3-2.2-0.8-2.9
		s-1.3-1-2.3-1c-0.8,0-1.4,0.3-2,1c-0.5,0.7-1,1.8-1.5,3.4s-0.9,2.8-1.5,3.7c-0.5,0.9-1.2,1.6-1.9,2c-0.7,0.4-1.6,0.7-2.5,0.7
		c-1.6,0-2.8-0.6-3.7-1.8c-0.9-1.2-1.4-2.8-1.4-4.9c0-1.3,0.3-2.5,0.8-3.7c0.5-1.1,1.2-2,2.1-2.6s1.9-0.9,3-0.9v2.5
		c-1.2,0-2.1,0.4-2.8,1.3c-0.7,0.9-1,2-1,3.4c0,1.3,0.3,2.4,0.8,3.1s1.3,1.1,2.2,1.1c0.9,0,1.7-0.3,2.2-1
		C367.5,329.3,368,328.1,368.5,326.4z"/>
	<path class="st5" d="M366,340.9l-2.5,0.4l2.3,0.5l13.4,3.8v2.1l-13.4,3.7l-2.3,0.5l2.6,0.4l13.1,3v2.5l-19.2-4.7v-2.3l14-4l1.5-0.3
		l-1.5-0.3l-14-4.1v-2.3l19.2-4.6v2.5L366,340.9z"/>
</g>
<g>
	<path class="st5" d="M206.9,227.5h-2.5v-16.3l-4.9,1.8v-2.2l7-2.6h0.4V227.5z"/>
	<path class="st5" d="M226.4,209.6l-8,17.8h-2.6l7.9-17.2h-10.4v-2h13v1.4H226.4z"/>
	<path class="st5" d="M246.2,222.4h-8l-1.8,5h-2.6l7.3-19.2h2.2l7.3,19.2H248L246.2,222.4z M238.9,220.4h6.5l-3.3-9L238.9,220.4z"/>
	<path class="st5" d="M256,224.2l3.5-11h2.5l-5.1,14.3h-1.8l-5.2-14.3h2.5L256,224.2z"/>
	<path class="st5" d="M270,227.7c-1.9,0-3.5-0.6-4.7-1.9c-1.2-1.3-1.8-3-1.8-5.1v-0.4c0-1.4,0.3-2.7,0.8-3.8s1.3-2,2.3-2.6
		s2-0.9,3.2-0.9c1.9,0,3.3,0.6,4.3,1.8s1.5,3,1.5,5.2v1h-9.7c0,1.4,0.4,2.5,1.2,3.4s1.8,1.3,3,1.3c0.9,0,1.6-0.2,2.2-0.5
		c0.6-0.4,1.1-0.8,1.6-1.4l1.5,1.2C274.2,226.8,272.5,227.7,270,227.7z M269.8,214.9c-1,0-1.8,0.4-2.5,1.1c-0.7,0.7-1.1,1.7-1.2,3
		h7.1v-0.2c-0.1-1.2-0.4-2.2-1-2.9C271.7,215.3,270.8,214.9,269.8,214.9z"/>
	<path class="st5" d="M291.2,218.9c-2.2-0.6-3.8-1.4-4.7-2.3s-1.5-2-1.5-3.4c0-1.5,0.6-2.8,1.8-3.8c1.2-1,2.8-1.5,4.7-1.5
		c1.3,0,2.5,0.3,3.5,0.8s1.8,1.2,2.4,2.1c0.6,0.9,0.9,1.9,0.9,2.9h-2.5c0-1.2-0.4-2.1-1.1-2.7c-0.7-0.7-1.8-1-3.1-1
		c-1.2,0-2.2,0.3-2.9,0.8c-0.7,0.5-1,1.3-1,2.3c0,0.8,0.3,1.4,1,2c0.7,0.5,1.8,1,3.4,1.5s2.8,0.9,3.7,1.5c0.9,0.5,1.6,1.2,2,1.9
		s0.7,1.6,0.7,2.5c0,1.6-0.6,2.8-1.8,3.7c-1.2,0.9-2.8,1.4-4.9,1.4c-1.3,0-2.5-0.3-3.7-0.8c-1.1-0.5-2-1.2-2.6-2.1
		c-0.6-0.9-0.9-1.9-0.9-3h2.5c0,1.2,0.4,2.1,1.3,2.8s2,1,3.4,1c1.3,0,2.4-0.3,3.1-0.8s1.1-1.3,1.1-2.2s-0.3-1.7-1-2.2
		C294.2,219.9,293,219.4,291.2,218.9z"/>
	<path class="st5" d="M305.8,221.4l0.4,2.5l0.5-2.3l3.8-13.4h2.1l3.7,13.4l0.5,2.3l0.4-2.6l3-13.1h2.5l-4.7,19.2h-2.3l-4-14
		l-0.3-1.5l-0.3,1.5l-4.1,14h-2.3l-4.6-19.2h2.5L305.8,221.4z"/>
</g>
<g>
	<path class="st5" d="M398.2,138.4v-15.8h4.5c1.4,0,2.6,0.3,3.6,0.9c1.1,0.6,1.9,1.5,2.5,2.6c0.6,1.2,0.9,2.4,0.9,3.9v1
		c0,1.5-0.2,2.8-0.8,4c-0.6,1.2-1.4,2-2.5,2.6s-2.3,0.9-3.7,0.9L398.2,138.4L398.2,138.4z M400.4,124.2v12.4h2.2
		c1.6,0,2.9-0.5,3.8-1.5s1.3-2.4,1.3-4.3v-0.9c0-1.8-0.4-3.2-1.2-4.2c-0.8-1-2.1-1.5-3.6-1.5H400.4L400.4,124.2z"/>
	<path class="st5" d="M412,132.4c0-1.2,0.2-2.2,0.7-3.1c0.4-0.9,1.1-1.6,1.9-2.1s1.7-0.7,2.8-0.7c1.6,0,2.9,0.6,3.9,1.6
		c1,1.1,1.5,2.6,1.5,4.5v0.2c0,1.2-0.2,2.1-0.7,3c-0.4,0.9-1.1,1.6-1.9,2.1s-1.7,0.7-2.8,0.7c-1.6,0-2.9-0.6-3.9-1.6
		c-1-1.1-1.5-2.6-1.5-4.4V132.4z M413.9,132.6c0,1.3,0.3,2.4,0.9,3.1s1.4,1.2,2.4,1.2s1.8-0.4,2.5-1.2s0.9-1.9,0.9-3.4
		c0-1.3-0.3-2.3-0.9-3.1s-1.4-1.2-2.5-1.2c-1,0-1.8,0.4-2.4,1.2C414.4,130,413.9,131.1,413.9,132.6z"/>
	<path class="st5" d="M435.4,135.6l2.2-9h2l-3.5,11.8h-1.6l-2.9-8.9l-2.8,8.9h-1.7l-3.4-11.8h2l2.3,8.8l2.7-8.8h1.6L435.4,135.6z"/>
	<path class="st5" d="M443.5,126.6l0.1,1.5c0.9-1.2,2.1-1.7,3.5-1.7c2.5,0,3.7,1.4,3.8,4.2v7.7h-2v-7.7c0-0.8-0.2-1.5-0.6-1.9
		s-1-0.6-1.8-0.6c-0.7,0-1.2,0.2-1.7,0.5s-0.9,0.8-1.2,1.4v8.4h-2v-11.8L443.5,126.6L443.5,126.6z"/>
	<path class="st5" d="M456.8,123.7v2.9h2.2v1.6h-2.2v7.3c0,0.5,0.1,0.8,0.3,1.1c0.2,0.2,0.5,0.3,1,0.3c0.2,0,0.6-0.1,1-0.2v1.6
		c-0.5,0.2-1.1,0.2-1.6,0.2c-0.9,0-1.6-0.2-2.1-0.8s-0.7-1.3-0.7-2.3v-7.3h-2.1v-1.6h2.1v-2.9L456.8,123.7L456.8,123.7z"/>
	<path class="st5" d="M460.8,132.4c0-1.2,0.2-2.2,0.7-3.1c0.4-0.9,1.1-1.6,1.9-2.1s1.7-0.7,2.8-0.7c1.6,0,2.9,0.6,3.9,1.6
		c1,1.1,1.5,2.6,1.5,4.5v0.2c0,1.2-0.2,2.1-0.7,3c-0.4,0.9-1.1,1.6-1.9,2.1s-1.7,0.7-2.8,0.7c-1.6,0-2.9-0.6-3.9-1.6
		c-1-1.1-1.5-2.6-1.5-4.4V132.4z M462.8,132.6c0,1.3,0.3,2.4,0.9,3.1c0.6,0.7,1.4,1.2,2.4,1.2s1.8-0.4,2.5-1.2s0.9-1.9,0.9-3.4
		c0-1.3-0.3-2.3-0.9-3.1s-1.4-1.2-2.5-1.2c-1,0-1.8,0.4-2.4,1.2C463,130,462.8,131.1,462.8,132.6z"/>
	<path class="st5" d="M484.1,135.6l2.2-9h2l-3.5,11.8h-1.6l-2.9-8.9l-2.8,8.9H476l-3.4-11.8h2l2.3,8.8l2.7-8.8h1.6L484.1,135.6z"/>
	<path class="st5" d="M492.4,126.6l0.1,1.5c0.9-1.2,2.1-1.7,3.5-1.7c2.5,0,3.7,1.4,3.8,4.2v7.7h-2v-7.7c0-0.8-0.2-1.5-0.6-1.9
		s-1-0.6-1.8-0.6c-0.7,0-1.2,0.2-1.7,0.5s-0.9,0.8-1.2,1.4v8.4h-2v-11.8L492.4,126.6L492.4,126.6z"/>
</g>
</svg>
