<svg id="Layer_1" data-name="Layer 1" xmlns="http://www.w3.org/2000/svg" viewBox="0 0 636.77 180.66"><defs><style>.cls-1{fill:#00b6f2}</style></defs><title>Native Logo</title><path class="cls-1" d="M348.79 42.55q8.08 4.82 18.66 3c7-1.22 12.59-4.22 16.6-9s5.41-10.69 4.22-17.59-4.48-12-9.89-15.31S366.76-.71 359.72.48s-12.58 4.28-16.57 9.16-5.41 10.82-4.24 17.73 4.48 12 9.88 15.17M194.42 138.24a4.83 4.83 0 0 1-2.6 4.46 11.7 11.7 0 0 1-6 1.5 8.67 8.67 0 0 1-6.41-2.33c-1.55-1.55-2.31-3.74-2.31-6.61a10.47 10.47 0 0 1 1.39-5.73 10.7 10.7 0 0 1 3.71-3.63 18.82 18.82 0 0 1 5.5-2.14 51.26 51.26 0 0 1 6.68-1.11v15.6zm51.23 9.89V97.8c0-17.2 1.39-32.63-7.29-40.55s-23.1-12.31-43.24-11.86c-46.66 1-55.62 23-56.94 26.93-1.67 5-2 8-2 10.55.06 1.51.28 4.27 1.32 5.81 1.34 1.94 4.21 2.56 12.6-1 0 0 44.26-19.07 44.26 4.2v3.6a161.77 161.77 0 0 0-18.31 1.29 83.75 83.75 0 0 0-23.22 6 51.23 51.23 0 0 0-19.12 13.53q-7.86 8.9-7.87 23.86 0 10.6 3.38 18a31.32 31.32 0 0 0 9 11.87 36.5 36.5 0 0 0 13 6.57 56.73 56.73 0 0 0 15.34 2.07c10.7 0 24.82-4.6 24.82-4.6 10.14-3.51 19 1.91 19 1.91 8.46 3.49 17.19 2.69 21.94 2.69h.82c2.75-.12 14.61-.38 13.76-8.36-.68-6.3-1.33-22.11-1.33-22.11M326.32 52.57l-10.64.06s-13.87 1-13.86-10.2c0-18.12-4.34-22.79-4.34-22.79a21.55 21.55 0 0 0-9.48-7.22c-4.25-1.82-10.2-2.49-17.84-2.49h-8.15c-12.72 0-11.32 13.62-11.32 13.62l.09 13.69v94.13q0 5.42.52 11.23a48.77 48.77 0 0 0 2.57 11.74A37.1 37.1 0 0 0 268.33 173q10.38 7.09 28.88 7.08c8.24 0 16.42-1.94 22-5.56 14.45-9.39 17.15-24.07 17.21-27.23.27-13.62-13.21-8.38-13.21-8.38-3.4 1.16-6.45 2.2-9.55 2.2-3.62 0-6.45-1-8.51-2.85s-3.1-5.24-3.1-10.05l-.28-9.3v-11.69c0-13.16 19-19 19-19s7.77-3 9.74-4.4c2.25-1.58 3.91-2.37 5.17-5.6C337.2 74.5 338 65.91 338 62.41c.74-10-8.71-9.82-11.67-9.84M389.89 72.67a19.88 19.88 0 0 0-12.95-17.2C372.81 53.69 367 53 359.49 53h-7.2l-1 .17c-11.95 0-10.86 13.13-10.86 13.13l.1 13.39-.13 67.92a113.8 113.8 0 0 0 .61 12.09 21.43 21.43 0 0 0 3.66 10.13 21.09 21.09 0 0 0 9.28 7.08c4.17 1.79 10 2.44 17.46 2.44h7.2c11.45 0 11.89-13.3 11.89-13.3l-.11-13.39.12-67.94a117.19 117.19 0 0 0-.61-12.09M519.57 67.39c3.6-12.1-10-15-10-15s-10.62-1.19-16-1.19q-13.41 0-19.75 7.48a37.16 37.16 0 0 0-8.12 18.06L460.55 98a186.31 186.31 0 0 1-5.41 20 190.5 190.5 0 0 1-5.43-20l-5.13-21.27a37 37 0 0 0-8.13-18.06q-6.33-7.49-19.75-7.48c-5.34 0-15.94 1.19-15.94 1.19s-13.67 2.86-10.06 15c.68 2.25 1.38 4.65 2.18 7.29l33.6 89.13a22.52 22.52 0 0 0 6.81 9.14 22.05 22.05 0 0 0 11.54 4.34h20.62A22.13 22.13 0 0 0 477 173a22.56 22.56 0 0 0 6.8-9.14l33.61-89.13c.78-2.65 1.48-5 2.16-7.29M123.28 102.08c0-1.72 0-3.79-.11-6.2s-.17-4.88-.28-7.34-.24-5-.49-7.48a42.65 42.65 0 0 0-1.16-6.59 35.94 35.94 0 0 0-12.14-20.39c-6.19-5.15-12.85-7.75-23.52-7.75-9.46 0-16.56 1.68-22.14 5a42.68 42.68 0 0 0-7.18 5.22c-1.86 1.72-6.35 2.27-8.39.32a37.71 37.71 0 0 0-8.87-6.7c-6.6-3.65-39-8.52-39 10.67l.06 79.7S.25 153 .68 157a22.51 22.51 0 0 0 3.89 10.71 22 22 0 0 0 9.79 7.49c4.39 1.89 10.54 2.58 18.45 2.58 2.76 0 5.93-.33 8.28-.33 12.62 0 11.49-13.9 11.49-13.9V104s-.26-8.82 9.42-8.82c10.46 0 9.43 4 9.43 32v15.72a125.87 125.87 0 0 0 .64 12.77 22.76 22.76 0 0 0 3.87 10.72 22.43 22.43 0 0 0 9.8 7.48c4.4 1.89 10.54 2.56 18.45 2.56h7.62c12.64 0 11.47-13.9 11.47-13.9v-60.45zM560.65 115.16a34.15 34.15 0 0 1-1-5.58 14 14 0 0 1 .19-5.07 10.25 10.25 0 0 1 2.16-4.31 13.18 13.18 0 0 1 4.92-3.41c2.68-1.15 5-1.46 7-.91a6.56 6.56 0 0 1 4.32 3.95 8.4 8.4 0 0 1 .58 5.16 5.24 5.24 0 0 1-3.32 3.8zm6.13 16.59C574.23 129 629.85 107 629.85 107c15.32-7.62-7.73-38.41-7.73-38.41-25.24-30.43-66-17.71-66-17.71-28.24 7.49-37.2 28.25-37.2 28.25A66.14 66.14 0 0 0 511 106.8c-1 14.58.93 26.54 4.86 35.87s8.95 16.27 15.47 21.71S546 175 553.95 177.25s29.82 7.62 51-2.74c5.73-2.8 14.25-8.66 19.74-16.18 3.19-4.37 9.58-14 5.94-20.83s-18.41 2.6-26.91 5.92c-9.79 3.82-29.87 8.41-41.21-4.46 0 0-3.23-4.39 4.22-7.21"/><path class="cls-1" d="M579.2 144.23a5.66 5.66 0 0 1-.81 0 4.5 4.5 0 0 1-2-.88 3.63 3.63 0 0 1-1.25-1.57 1.53 1.53 0 0 1 .55-1.85 1.81 1.81 0 0 1 1.83-.21 3.05 3.05 0 0 1 .89.69 2 2 0 0 0 1.17.61 2.67 2.67 0 0 0 .94-.17 2.09 2.09 0 0 0 1.08-.79.8.8 0 0 0 .13-.76.93.93 0 0 0-.93-.53 14.57 14.57 0 0 0-1.62.15 14 14 0 0 1-1.78.11h-.6a3.91 3.91 0 0 1-2-.66 3.47 3.47 0 0 1-1.35-1.77 3.78 3.78 0 0 1-.13-2.23 4 4 0 0 1 1.26-2 7.33 7.33 0 0 1 2.29-1.36 6.58 6.58 0 0 1 2.07-.44 4.35 4.35 0 0 1 1.74.25 3.74 3.74 0 0 1 1.3.72 2.85 2.85 0 0 1 .77 1.13 1.27 1.27 0 0 1-.52 1.56 1.88 1.88 0 0 1-1.82.22 5.13 5.13 0 0 0-1.37-.77 2.64 2.64 0 0 0-1.77.33.89.89 0 0 0-.36 1.24c.33.42 1.58.12 2.1.07.7-.09 1.34-.14 1.93-.16a7.66 7.66 0 0 1 1.75.18 3.58 3.58 0 0 1 1.46.8 3.77 3.77 0 0 1 1 1.58 4.36 4.36 0 0 1 .2 2.41 4.31 4.31 0 0 1-1.25 2.17 6.8 6.8 0 0 1-2.43 1.49 7.09 7.09 0 0 1-2.49.5M623.84 127.48a5.65 5.65 0 0 1-.81 0 4.51 4.51 0 0 1-2-.88 3.63 3.63 0 0 1-1.25-1.57 1.53 1.53 0 0 1 .55-1.85 1.81 1.81 0 0 1 1.83-.21 3 3 0 0 1 .89.69 2 2 0 0 0 1.17.61 2.67 2.67 0 0 0 .94-.17 2.08 2.08 0 0 0 1.08-.79.79.79 0 0 0 .13-.76.92.92 0 0 0-.93-.53 14.8 14.8 0 0 0-1.62.15 14 14 0 0 1-1.78.11h-.59a3.92 3.92 0 0 1-2-.66 3.46 3.46 0 0 1-1.35-1.77 3.77 3.77 0 0 1-.13-2.23 4 4 0 0 1 1.26-2 7.31 7.31 0 0 1 2.29-1.36 6.58 6.58 0 0 1 2.07-.44 4.37 4.37 0 0 1 1.74.25 3.76 3.76 0 0 1 1.3.72 2.83 2.83 0 0 1 .77 1.13 1.26 1.26 0 0 1-.52 1.56 1.88 1.88 0 0 1-1.82.22 5.13 5.13 0 0 0-1.37-.76 2.63 2.63 0 0 0-1.77.33.89.89 0 0 0-.36 1.24c.33.42 1.58.12 2.1.07.7-.09 1.34-.14 1.93-.16a7.76 7.76 0 0 1 1.75.18 3.58 3.58 0 0 1 1.46.8 3.78 3.78 0 0 1 1 1.58 4.37 4.37 0 0 1 .2 2.41 4.32 4.32 0 0 1-1.25 2.17 6.84 6.84 0 0 1-2.43 1.49 7.11 7.11 0 0 1-2.49.5M587.59 140.88a2.27 2.27 0 0 1-1-1.29l-3.27-8.72a2.22 2.22 0 0 1-.09-1.61 1.75 1.75 0 0 1 1.12-1.09 2 2 0 0 1 1.46.08 2.18 2.18 0 0 1 1.06 1.27l.93 2.48 3.53-1.31-.93-2.51a2.29 2.29 0 0 1-.08-1.63 1.82 1.82 0 0 1 1.09-1.06 2.06 2.06 0 0 1 1.5.06 2.16 2.16 0 0 1 1 1.26l3.29 8.74a2.28 2.28 0 0 1 .06 1.68 1.74 1.74 0 0 1-1.1 1 1.91 1.91 0 0 1-1.49-.06 2.33 2.33 0 0 1-1-1.3l-1.15-3.07-3.52 1.4 1.16 3.06a2.17 2.17 0 0 1 .06 1.65A2 2 0 0 1 589 141a1.83 1.83 0 0 1-1.4-.12M601.94 125.28a3 3 0 0 0-1 .18 2.47 2.47 0 0 0-.9.57 2.09 2.09 0 0 0-.54.82 3.65 3.65 0 0 0-.16 1.21 5.87 5.87 0 0 0 .37 1.57 4.65 4.65 0 0 0 .78 1.42 2.81 2.81 0 0 0 .92.83 2.11 2.11 0 0 0 1 .31 2.65 2.65 0 0 0 1-.19 2.48 2.48 0 0 0 1.12-.79 2.54 2.54 0 0 0 .49-1.37 5 5 0 0 0-.34-2.09 5.18 5.18 0 0 0-1-1.7 2.41 2.41 0 0 0-1.27-.73zm.12 10.34h-.17a5.63 5.63 0 0 1-2.45-.61 6.44 6.44 0 0 1-2-1.63 9.16 9.16 0 0 1-1.33-2.39 8.35 8.35 0 0 1-.56-2.69 6 6 0 0 1 .45-2.51 5.28 5.28 0 0 1 1.44-2 6.72 6.72 0 0 1 2.34-1.38 7.68 7.68 0 0 1 2.65-.52 6.61 6.61 0 0 1 .92.06 5.72 5.72 0 0 1 3 1.48 8.37 8.37 0 0 1 1.94 3.06 8 8 0 0 1 .57 2.67 6.22 6.22 0 0 1-.4 2.51 5.24 5.24 0 0 1-1.46 2.03 7 7 0 0 1-2.38 1.41 7.12 7.12 0 0 1-2.59.51M611.59 131.7a2.25 2.25 0 0 1-1.09-1.3l-3.13-8.34a2.88 2.88 0 0 1-.2-1.11 1.6 1.6 0 0 1 .5-1.09 2.42 2.42 0 0 1 1-.6l5.92-2.22a1.58 1.58 0 0 1 2.29.87c.46 1.14-.29 1.8-1.13 2.17l-4.41 1.64.53 1.42 4-1.51a1.54 1.54 0 0 1 2.18.75 1.59 1.59 0 0 1-1 2.26l-4 1.51.67 1.82 4.58-1.71c1.25-.44 1.93 0 2.25.82a1.61 1.61 0 0 1-1.07 2.28l-6.1 2.3a2 2 0 0 1-1.71 0M622.92 173.1h-2.14a.72.72 0 0 1 0-1.44h5.85a.72.72 0 0 1 0 1.44h-2.15v6.67a.78.78 0 0 1-1.56 0v-6.67zM628.11 172.4a.78.78 0 0 1 .78-.78h.16a.82.82 0 0 1 .72.42l2.67 4.18 2.68-4.19a.78.78 0 0 1 .7-.4h.18a.78.78 0 0 1 .78.78v7.38a.77.77 0 0 1-.78.77.78.78 0 0 1-.77-.77v-5.29l-2.15 3.23a.72.72 0 0 1-1.3 0l-2.14-3.21v5.28a.75.75 0 0 1-.77.76.74.74 0 0 1-.76-.76v-7.4z"/></svg>