
<svg width="345px" height="31px" viewBox="0 0 345 31" version="1.1" xmlns="http://www.w3.org/2000/svg" xmlns:xlink="http://www.w3.org/1999/xlink">
    <defs>
        <polygon id="path-1" points="0 0.132251471 335.730182 0.132251471 335.730182 30.5441176 0 30.5441176"></polygon>
    </defs>
    <g id="Symbols" stroke="none" stroke-width="1" fill="none" fill-rule="evenodd">
        <g id="MOBILE/NAV/FOOTER_LANG" transform="translate(-15.000000, -1688.000000)">
            <g id="Group-5-Copy" transform="translate(15.000000, 1688.000000)">
                <g id="Group-3">
                    <mask id="mask-2" fill="white">
                        <use xlink:href="#path-1"></use>
                    </mask>
                    <g id="Clip-2"></g>
                    <path d="M335.730182,15.3372956 C335.730182,24.5793985 330.886413,30.5427956 320.29362,30.5427956 L15.436562,30.5441632 C5.14552066,30.5441632 0,24.9003397 0,15.3596338 C0,6.11753088 5.14552066,0.133163235 15.436562,0.133163235 L320.29362,0.132251471 C330.886413,0.132251471 335.730182,6.09519265 335.730182,15.3372956 M327.557421,15.331825 C327.557421,10.5619279 324.53805,8.48538382 319.088463,8.48538382 L16.3223802,8.48675147 C11.1768595,8.48675147 8.17276033,10.5660309 8.17276033,15.3359279 C8.17276033,20.1062809 11.1759339,22.1946779 16.3214545,22.1946779 L319.082909,22.1937662 C324.532033,22.1937662 327.557421,20.1021779 327.557421,15.331825" id="Fill-1" fill="#FEFEFE" mask="url(#mask-2)"></path>
                </g>
                <polygon id="Fill-4" fill="#FEFEFE" points="339 31 345 31 345 25 339 25"></polygon>
            </g>
        </g>
    </g>
</svg>
