<svg xmlns="http://www.w3.org/2000/svg" xmlns:xlink="http://www.w3.org/1999/xlink" viewBox="0 0 54 54" width="54" height="54" class="nl-box__ico"><defs><path id="a" d="M37.22 18.79c0 10.3-8.3 18.62-18.51 18.62A18.57 18.57 0 01.21 18.8C.2 8.48 8.5.16 18.7.16a18.6 18.6 0 0118.5 18.63z"/><path id="d" d="M33.19 3.37L33 20.8H7.26l-.6-17.44A3.26 3.26 0 003.38.08h26.53a3.29 3.29 0 013.27 3.29z"/><filter id="c" width="240.9%" height="302.6%" x="-70.5%" y="-101.3%" filterUnits="objectBoundingBox"><feOffset in="SourceAlpha" result="shadowOffsetOuter1"/><feGaussianBlur in="shadowOffsetOuter1" result="shadowBlurOuter1" stdDeviation="7"/><feColorMatrix in="shadowBlurOuter1" values="0 0 0 0 0 0 0 0 0 0 0 0 0 0 0 0 0 0 0.3 0"/></filter></defs><g fill="none" fill-rule="evenodd"><g transform="translate(8.21 16.03)"><mask id="b" fill="#fff"><use xlink:href="#a"/></mask><use fill="#242D3C" xlink:href="#a"/><g mask="url(#b)"><path fill="#FB3" d="M18.67 6.2L2.7 17.83V37.4h31.98V17.8z"/><path fill="#FFD85C" d="M34.68 17.82V37.4l-16.01-9.77zM18.67 27.64L2.7 37.4V17.8z"/><path fill="#FB3" d="M34.68 37.4H2.7l15.97-9.76z"/></g></g><path fill="#FB3" d="M10.39 14.08a3.26 3.26 0 00-3.27 3.29h12.9v-3.29H10.4z"/><g transform="translate(7 14)"><use fill="#000" filter="url(#c)" xlink:href="#d"/><use fill="#FFF" xlink:href="#d"/></g><path fill="#FFF" d="M40.19 17.37V43.9H13.65V17.37a3.26 3.26 0 00-3.26-3.29h26.53a3.29 3.29 0 013.27 3.29z"/><path fill="#F15424" d="M16.84 21.38h9.64v9.7h-9.64z"/><g fill="#FFF"><path fill-rule="nonzero" d="M21.64 27.88a1.67 1.67 0 010-3.33 1.67 1.67 0 010 3.33zm0-2.76c-.6 0-1.1.48-1.1 1.1a1.09 1.09 0 102.19 0c0-.57-.49-1.1-1.1-1.1z"/><path d="M21.64 29.26a3.06 3.06 0 01-3.03-3.05 3.06 3.06 0 013.03-3.04 3.06 3.06 0 013.02 3.04c0 .17-.12.29-.28.29a.28.28 0 01-.28-.29 2.45 2.45 0 00-2.46-2.47 2.45 2.45 0 00-2.46 2.47 2.45 2.45 0 002.46 2.48c.44 0 .84-.12 1.25-.33a.26.26 0 01.36.09c.08.12.04.28-.08.36-.48.32-1 .45-1.53.45z"/><path d="M23.7 27.88a.94.94 0 01-.7-.29.98.98 0 01-.27-.69v-.69c0-.16.12-.28.28-.28.16 0 .28.12.28.28v.7c0 .11.04.2.12.28.08.08.16.12.28.12.12 0 .2-.04.29-.12a.37.37 0 00.12-.29v-.69c0-.16.12-.28.28-.28.16 0 .28.12.28.28v.7c0 .24-.08.48-.28.68-.16.2-.4.29-.69.29z"/></g><g fill="#CCCBCA"><path d="M28.29 21.38h9.19v1.05h-9.2zM28.29 24.26h9.19v1.05h-9.2zM28.29 27.14h9.19v1.05h-9.2zM28.29 30.02h9.19v1.05h-9.2zM16.84 32.95h20.69V34h-20.7zM16.84 35.83h10.32v1.05H16.84z"/></g><path fill="#FFD85C" d="M42.89 33.84l-2.54 12.22L26.07 44z"/><path fill="#FFD85C" d="M26.76 44.03l-13.51 1.62-2.34-11.81z"/></g></svg>