<svg id="Layer_1" data-name="Layer 1" xmlns="http://www.w3.org/2000/svg" viewBox="0 0 100 100"><defs><style>.cls-1{fill:#3ace94;}</style></defs><title>SeniorLiving_Quality of Life</title><path class="cls-1" d="M46.91,75.9C46.84,72,46.62,66.75,46,65c-.94-2.72-7.06-5.89-10.28-8.17C33.48,55.21,29.67,49.57,29,49c-.41-.41-1.37-.28-2-.14A5,5,0,0,0,26.24,52a12.89,12.89,0,0,0,2.27,5.62,9.78,9.78,0,0,0,2,2.32,18.21,18.21,0,0,1,2.2,2.28c1.45,1.57,2.11,3.64,3,5.51-1-1.85-1.7-3.86-3.2-5.35a17.57,17.57,0,0,0-2.23-2.17,10.21,10.21,0,0,1-2.19-2.31,18,18,0,0,1-1.63-2.74,10.2,10.2,0,0,1-1-3.09,5.7,5.7,0,0,1,.58-3.27,5.39,5.39,0,0,1,.3-.52c-.47-2.05-2.09-8.2-5-9.75-.92-.49-3.42,0-3.42,0a108.13,108.13,0,0,1,3.58,11.26c.78,3.8,2.33,14,3.89,16.11s9.35,7.36,10.59,9.32a7.72,7.72,0,0,1,.78,3.88Z"/><path class="cls-1" d="M36.8,80.1c0,.82-.13,1.4-.13,1.4L47,80.41s0-1.47,0-3.53Z"/><path class="cls-1" d="M78.59,38.52c-2.91,1.55-4.53,7.7-5,9.75a5.39,5.39,0,0,1,.3.52,5.7,5.7,0,0,1,.58,3.27,10.2,10.2,0,0,1-1,3.09,18,18,0,0,1-1.63,2.74,10.21,10.21,0,0,1-2.19,2.31,17.57,17.57,0,0,0-2.23,2.17c-1.5,1.49-2.22,3.5-3.2,5.35.9-1.87,1.56-3.94,3-5.51a18.21,18.21,0,0,1,2.2-2.28,9.78,9.78,0,0,0,2-2.32A12.89,12.89,0,0,0,73.76,52a5,5,0,0,0-.83-3.18c-.6-.14-1.56-.27-2,.14-.63.62-4.44,6.26-6.7,7.87C61,59.1,54.92,62.27,54,65c-.6,1.76-.82,7-.89,10.91l10.08,3.19A7.72,7.72,0,0,1,64,75.21c1.24-2,9-7.18,10.59-9.32s3.11-12.31,3.89-16.11A108.13,108.13,0,0,1,82,38.52S79.51,38,78.59,38.52Z"/><path class="cls-1" d="M53.07,76.88c0,2.06,0,3.53,0,3.53L63.33,81.5s-.09-.58-.13-1.4Z"/><path class="cls-1" d="M58.14,47.65a12,12,0,0,0,3.24-6,16.54,16.54,0,0,0-6.57,1.77A6.55,6.55,0,0,0,51.46,49a6.65,6.65,0,0,0-1.61,1.18,4.85,4.85,0,0,0-.42.6c.25-.87.59-1.75.91-2.62.5-1.32,1-2.64,1.5-4a12.21,12.21,0,0,0,.72-3.67l.71-2a11,11,0,0,1,.82-1.93l.27-.43c.85.17,3.65-1,4.93-3.62a11,11,0,0,0,.91-6.14,15.06,15.06,0,0,0-5.08,3.56c-1.95,2.2-1.58,5.35-1,6l-.3.41a11.77,11.77,0,0,0-1,1.92c-.11.24-.21.49-.31.73a17.05,17.05,0,0,0-.78-3.41,28.15,28.15,0,0,0-2.33-5.08c.72-.69.78-5-2-8a14.61,14.61,0,0,0-7.16-4.07,20.06,20.06,0,0,0,2,8c1.8,3.49,5.92,4.53,7,4.15a28.15,28.15,0,0,1,2.08,5.1,16.24,16.24,0,0,1,.7,4.13,10.32,10.32,0,0,1-.81,4c-.25.67-.53,1.33-.81,2a8.38,8.38,0,0,0-.78-2.29,4.88,4.88,0,0,0-.69-1l-.08-.06c.46-.81-.51-4.56-3.67-6.54a13.36,13.36,0,0,0-7.29-1.89,18.31,18.31,0,0,0,3.64,6.59c2.34,2.58,6.07,2.6,7.08,2a.46.46,0,0,0,.07.07,4.34,4.34,0,0,1,.53,1,6.16,6.16,0,0,1,.2,4.38h0A15.65,15.65,0,0,0,48.16,52a9.23,9.23,0,0,0,0,2.23,17.07,17.07,0,0,0,.36,2.14,19.22,19.22,0,0,0,1.41,4.07l.09,0a33.2,33.2,0,0,1-.85-4.15c-.08-.7-.16-1.4-.19-2.09a8.67,8.67,0,0,1,.07-1.7,9.87,9.87,0,0,1,1.15-2,5.88,5.88,0,0,1,1.43-1C52.27,50,55.74,50,58.14,47.65ZM54.61,35.23a18.81,18.81,0,0,1,1.09-1.78A18.5,18.5,0,0,1,57,31.81a15.41,15.41,0,0,1-1.09,1.78l-.11.16c-.35.43-.69.87-1,1.31C54.71,35.11,54.67,35.18,54.61,35.23Zm-8.81-10,0,0a8,8,0,0,1,2,1.94,13.14,13.14,0,0,1,.63,1.24,9.63,9.63,0,0,1,.45,1.31h0l0-.06a25.12,25.12,0,0,0-1.23-2.36A13.56,13.56,0,0,0,45.8,25.23ZM44.46,38.88v0a13,13,0,0,1,2.21,1.31,8,8,0,0,1,1.66,1.95h0l0,0-.84-.91a7.19,7.19,0,0,0-.91-.84c-.34-.24-.68-.49-1-.72ZM53,47.67a3.59,3.59,0,0,1,1-1,10.46,10.46,0,0,1,2.46-1v0c-.79.37-1.59.74-2.35,1.19a4.69,4.69,0,0,0-1.4,1.47l-.15.07A4.4,4.4,0,0,1,53,47.67Z"/></svg>