<svg width="74" height="14" viewBox="0 0 74 14" fill="none" xmlns="http://www.w3.org/2000/svg">
<path fill-rule="evenodd" clip-rule="evenodd" d="M0.905801 4.97157C0.515933 5.04578 0.363759 5.5228 0.638635 5.80906L3.35249 8.63533L2.74377 12.7072C2.68264 13.1161 3.1159 13.4183 3.47847 13.2197L6.85185 11.3719L10.2939 13.2188C10.6611 13.4158 11.094 13.1037 11.023 12.6931L10.3219 8.63533L13.0576 5.81105C13.3346 5.52501 13.1824 5.04565 12.7911 4.97184L8.92517 4.24266L7.29647 0.909838C7.11455 0.537574 6.58477 0.535415 6.39982 0.906183L4.7355 4.24266L0.905801 4.97157Z" fill="#FAFF00"/>
<path fill-rule="evenodd" clip-rule="evenodd" d="M15.9799 4.97157C15.59 5.04578 15.4379 5.5228 15.7127 5.80906L18.4266 8.63533L17.8179 12.7072C17.7567 13.1161 18.19 13.4183 18.5526 13.2197L21.9259 11.3719L25.368 13.2188C25.7352 13.4158 26.168 13.1037 26.0971 12.6931L25.396 8.63533L28.1317 5.81105C28.4087 5.52501 28.2565 5.04565 27.8652 4.97184L23.9993 4.24266L22.3706 0.909838C22.1887 0.537574 21.6589 0.535415 21.4739 0.906183L19.8096 4.24266L15.9799 4.97157Z" fill="#FAFF00"/>
<path fill-rule="evenodd" clip-rule="evenodd" d="M31.054 4.97157C30.6641 5.04578 30.512 5.5228 30.7868 5.80906L33.5007 8.63533L32.892 12.7072C32.8308 13.1161 33.2641 13.4183 33.6267 13.2197L37 11.3719L40.4421 13.2188C40.8092 13.4158 41.2421 13.1037 41.1712 12.6931L40.4701 8.63533L43.2058 5.81105C43.4828 5.52501 43.3306 5.04565 42.9393 4.97184L39.0734 4.24266L37.4447 0.909838C37.2627 0.537574 36.733 0.535415 36.548 0.906183L34.8837 4.24266L31.054 4.97157Z" fill="#FAFF00"/>
<path fill-rule="evenodd" clip-rule="evenodd" d="M46.128 4.97157C45.7381 5.04578 45.5859 5.5228 45.8608 5.80906L48.5747 8.63533L47.9659 12.7072C47.9048 13.1161 48.3381 13.4183 48.7006 13.2197L52.074 11.3719L55.5161 13.2188C55.8832 13.4158 56.3161 13.1037 56.2452 12.6931L55.5441 8.63533L58.2797 5.81105C58.5568 5.52501 58.4046 5.04565 58.0133 4.97184L54.1473 4.24266L52.5186 0.909838C52.3367 0.537574 51.8069 0.535415 51.622 0.906183L49.9577 4.24266L46.128 4.97157Z" fill="#FAFF00"/>
<mask id="mask0" mask-type="alpha" maskUnits="userSpaceOnUse" x="60" y="0" width="8" height="14">
<rect x="60.2963" width="6.85185" height="13.7037" fill="#C4C4C4"/>
</mask>
<g mask="url(#mask0)">
<path fill-rule="evenodd" clip-rule="evenodd" d="M61.2021 4.97157C60.8122 5.04578 60.66 5.5228 60.9349 5.80906L63.6488 8.63533L63.04 12.7072C62.9789 13.1161 63.4122 13.4183 63.7747 13.2197L67.1481 11.3719L70.5902 13.2188C70.9573 13.4158 71.3902 13.1037 71.3193 12.6931L70.6182 8.63533L73.3538 5.81105C73.6309 5.52501 73.4787 5.04565 73.0874 4.97184L69.2214 4.24266L67.5927 0.909838C67.4108 0.537574 66.881 0.535415 66.6961 0.906183L65.0318 4.24266L61.2021 4.97157Z" fill="#FAFF00"/>
</g>
<mask id="mask1" mask-type="alpha" maskUnits="userSpaceOnUse" x="66" y="0" width="8" height="14">
<rect width="7.53704" height="13.7037" transform="matrix(-1 0 0 1 74 0)" fill="white"/>
</mask>
<g mask="url(#mask1)">
<path fill-rule="evenodd" clip-rule="evenodd" d="M61.2021 4.97157C60.8122 5.04578 60.66 5.5228 60.9349 5.80906L63.6488 8.63533L63.04 12.7072C62.9789 13.1161 63.4122 13.4183 63.7747 13.2197L67.1481 11.3719L70.5902 13.2188C70.9573 13.4158 71.3902 13.1037 71.3193 12.6931L70.6182 8.63533L73.3538 5.81105C73.6309 5.52501 73.4787 5.04565 73.0874 4.97184L69.2214 4.24266L67.5927 0.909838C67.4108 0.537574 66.881 0.535415 66.6961 0.906183L65.0318 4.24266L61.2021 4.97157Z" fill="white"/>
</g>
</svg>
