<svg xmlns="http://www.w3.org/2000/svg" xmlns:xlink="http://www.w3.org/1999/xlink" width="70" height="71"><defs><path id="a" d="M0 0h70v71H0z"/></defs><g fill="none" fill-rule="evenodd"><mask id="b" fill="#fff"><use xlink:href="#a"/></mask><path fill="#D9DDE0" stroke="#000" stroke-width="4" mask="url(#b)" d="M67 35.537l-5.478-7.255 1.226-9.014-8.361-3.37-3.315-8.501-8.865 1.245L35 3l-7.135 5.569L19 7.324l-3.315 8.5-8.361 3.371 1.225 9.014L3 35.537l5.477 7.254-1.225 9.014 8.361 3.371 3.315 8.5 8.865-1.246L34.928 68l7.135-5.57 8.865 1.246 3.315-8.5 8.361-3.445-1.226-9.013z"/><path fill="#000" stroke="#000" mask="url(#b)" d="M32.456 46L22 37.104l2.261-2.844 7.771 6.563L45.315 25 48 27.406z"/></g></svg>