<svg xmlns="http://www.w3.org/2000/svg" width="76" height="68" viewBox="0 0 76 68">
  <g fill="none" fill-rule="evenodd">
    <path fill="#000" fill-rule="nonzero" d="M38 68c-.335 0-.669-.084-.971-.252-.376-.209-9.307-5.207-18.375-13.456-5.363-4.879-9.646-9.883-12.73-14.873C1.993 33.059 0 26.694 0 20.5 0 9.196 9.196 0 20.5 0 27.746 0 34.333 3.809 38 9.813 41.668 3.809 48.254 0 55.5 0 66.804 0 76 9.196 76 20.5c0 6.193-1.993 12.559-5.924 18.919-3.084 4.99-7.367 9.994-12.731 14.873-9.067 8.249-17.999 13.248-18.375 13.456-.302.168-.636.252-.971.252H38z"/>
    <path fill="#D9DDE0" d="M20.4997574 4C11.4018911 4 4 11.4409409 4 20.5868043 4 33.09426 13.4328613 44.3451396 21.3457449 51.5820125 28.3796415 58.0146768 35.4675372 62.4820561 37.9995 64c2.5409626-1.5239755 9.6728578-6.0215126 16.7127542-12.4712663C62.5981383 44.3039239 72 33.071139 72 20.5868043 72 11.4409409 64.5981089 4 55.5002426 4c-7.0478963 0-13.3198041 4.49954763-15.6087704 11.1955903-.2769959.8122507-1.0369848 1.3571021-1.8909722 1.3571021-.8539874 0-1.6139763-.5448514-1.8909722-1.3571021C33.8215614 8.49954763 27.5486537 4 20.5007573 4h-.0009999z"/>
  </g>
</svg>
