<svg xmlns="http://www.w3.org/2000/svg" width="80" height="66" viewBox="0 0 80 66">
  <g fill="none" fill-rule="evenodd">
    <path fill="#000" fill-rule="nonzero" d="M18 58c-2.527 0-4.951-.774-6.826-2.18C9.157 54.307 8 52.186 8 50c0-1.105.895-2 2-2s2 .895 2 2c0 1.888 2.566 4 6 4 1.105 0 2 .895 2 2s-.895 2-2 2z"/>
    <path fill="#000" fill-rule="nonzero" d="M79.992 49.528c-.177-8.019-4.8-19.15-8.693-27.153-4.2-8.632-9.419-17.325-11.884-19.789C57.532.703 54.302.5 53.001.5c-1.301 0-4.532.203-6.414 2.086-.936.936-1.975 2.871-2.579 10.123-.053.639-.102 1.309-.147 2.011-1.151-.465-2.469-.72-3.86-.72-1.389 0-2.708.258-3.86.725-.045-.704-.094-1.376-.147-2.016-.604-7.252-1.643-9.187-2.579-10.123C31.532.703 28.302.5 27.001.5c-1.301 0-4.532.203-6.414 2.086-2.465 2.465-7.685 11.157-11.884 19.789C4.81 30.377.187 41.509.01 49.528c-.005.157-.009.314-.009.472 0 8.822 8.075 16 18 16 9.9 0 17.958-7.141 17.999-15.933.008-.16.048-1.04.103-2.45.382-.759 1.819-1.617 3.898-1.617s3.516.859 3.898 1.617c.055 1.405.095 2.284.103 2.449C44.042 58.858 52.101 66 62.001 66c9.925 0 18-7.178 18-16 0-.158-.003-.315-.008-.472h-.001zM18 62c-7.72 0-14-5.383-14-12 0-.105.003-.214.005-.321C4.204 43.21 10.405 38 18 38c7.72 0 14 5.383 14 12s-6.28 12-14 12zm22-20c-1.355 0-2.621.242-3.729.67.118-3.935.229-9.013.229-14.17 0-3.401-.048-6.486-.142-9.236C36.97 18.603 38.31 18 40 18c1.75 0 3.046.615 3.642 1.262-.094 2.75-.142 5.837-.142 9.238 0 5.157.111 10.235.228 14.17C42.62 42.242 41.355 42 40 42zm22 20c-7.72 0-14-5.383-14-12s6.28-12 14-12c7.595 0 13.796 5.21 13.995 11.679.002.107.005.216.005.321 0 6.617-6.28 12-14 12z"/>
    <path fill="#D9DDE0" d="M47.961 13.434c.521-6.605 1.347-7.881 1.465-8.031 1.225-1.195 5.957-1.191 7.16.011 1.644 1.644 6.421 9.06 11.116 18.711 2.387 4.906 4.294 9.451 5.676 13.486C70.275 35.355 66.313 34 62.001 34c-5.844 0-11.045 2.489-14.335 6.336-.088-3.415-.161-7.431-.164-11.513-.005-6.265.15-11.442.461-15.389h-.002zM12.299 24.125c4.695-9.65 9.472-17.067 11.116-18.711 1.203-1.203 5.935-1.206 7.16-.011.117.15.943 1.425 1.464 8.026.312 3.945.467 9.12.461 15.381-.004 4.085-.076 8.107-.165 11.525C29.045 36.488 23.844 34 18 34c-4.312 0-8.274 1.355-11.377 3.611 1.382-4.036 3.289-8.58 5.676-13.486z"/>
    <path fill="#000" fill-rule="nonzero" d="M62 58c-2.527 0-4.951-.774-6.826-2.18C53.157 54.307 52 52.186 52 50c0-1.105.895-2 2-2s2 .895 2 2c0 1.888 2.566 4 6 4 1.105 0 2 .895 2 2s-.895 2-2 2z"/>
  </g>
</svg>
