<svg xmlns="http://www.w3.org/2000/svg" viewBox="0 0 106 15.71" fill="#fc8124" xmlns:v="https://vecta.io/nano"><path d="M15.71 4.91H9.82L7.86 0l-2 4.91H0l3.93 4.91L2 15.71l5.9-3.43 5.89 3.43-2-5.89zm45.29 0h-5.89L53.14 0l-2 4.91h-5.85l3.92 4.91-2 5.89 5.89-3.43 5.9 3.43-2-5.89zm22 0h-5.89L75.14 0l-2 4.91h-5.85l3.92 4.91-2 5.89 5.89-3.43 5.9 3.43-2-5.89zm23 0h-5.89L98.14 0l-2 4.91h-5.85l3.92 4.91-2 5.89 5.89-3.43 5.9 3.43-2-5.89zm-68 0h-5.89L30.14 0l-2 4.91h-5.85l3.92 4.91-2 5.89 5.89-3.43 5.9 3.43-2-5.89z"/></svg>