<svg id="Layer_1" data-name="Layer 1" xmlns="http://www.w3.org/2000/svg" viewBox="0 0 100 100"><defs><style>.cls-1{fill:#3ace94;}</style></defs><title>SeniorLiving_Senior Living and Housing</title><polygon class="cls-1" points="60.97 24.13 80.19 46.16 79.88 46.75 60.63 24.55 60.97 24.13"/><polygon class="cls-1" points="57.63 59.81 57.63 77.19 65.56 75.16 65.56 58.65 57.63 59.81"/><polygon class="cls-1" points="51.62 57.74 54.67 57.29 54.67 53.44 51.62 53.79 51.62 57.74"/><polygon class="cls-1" points="48.15 54.19 48.15 58.24 51.13 57.81 51.13 53.85 48.15 54.19"/><polygon class="cls-1" points="51.62 53.3 54.67 52.95 54.67 49.12 51.62 49.45 51.62 53.3"/><polygon class="cls-1" points="51.13 53.36 51.13 49.5 48.15 49.82 48.15 53.7 51.13 53.36"/><polygon class="cls-1" points="71.68 54.81 74.7 54.37 74.7 51.12 71.68 51.47 71.68 54.81"/><polygon class="cls-1" points="68.18 51.88 68.18 55.32 71.19 54.88 71.19 51.53 68.18 51.88"/><polygon class="cls-1" points="71.19 51.04 71.19 47.36 68.18 47.68 68.18 51.39 71.19 51.04"/><polygon class="cls-1" points="71.68 50.98 74.7 50.63 74.7 46.99 71.68 47.31 71.68 50.98"/><polygon class="cls-1" points="71.19 57.83 68.18 58.27 68.18 64.23 71.19 63.65 71.19 57.83"/><polygon class="cls-1" points="71.68 64.05 71.68 70.08 74.7 69.39 74.7 63.48 71.68 64.05"/><polygon class="cls-1" points="74.7 57.32 71.68 57.76 71.68 63.56 74.7 62.98 74.7 57.32"/><polygon class="cls-1" points="71.19 64.14 68.18 64.72 68.18 70.89 71.19 70.19 71.19 64.14"/><path class="cls-1" d="M37.52,18.5,19.81,38.73,39,50.19,60.52,23.86Zm-.33,21.61V23.37l3.06.8V36.86Z"/><polygon class="cls-1" points="51.13 60.76 48.15 61.2 48.15 68.06 51.13 67.48 51.13 60.76"/><polygon class="cls-1" points="54.67 60.24 51.62 60.69 51.62 67.39 54.67 66.81 54.67 60.24"/><polygon class="cls-1" points="51.62 67.89 51.62 74.7 54.67 73.99 54.67 67.3 51.62 67.89"/><polygon class="cls-1" points="51.13 67.98 48.15 68.55 48.15 75.49 51.13 74.81 51.13 67.98"/><path class="cls-1" d="M20.78,40.56V60.64L38.64,81.5V51.25Zm7,19.09L25.13,57V54.38l2.66,2Zm0-3.91-2.66-2V50l2.66,1.89Zm4.14,8-3.66-3.6V56.7l3.66,2.7Zm0-4.93-3.66-2.7V52.23l3.66,2.59Z"/></svg>