<?xml version="1.0" encoding="utf-8"?>
<!-- Generator: Adobe Illustrator 19.2.1, SVG Export Plug-In . SVG Version: 6.00 Build 0)  -->
<svg version="1.0" id="Layer_1" xmlns="http://www.w3.org/2000/svg" xmlns:xlink="http://www.w3.org/1999/xlink" x="0px" y="0px"
	 viewBox="0 0 165 165" enable-background="new 0 0 165 165" xml:space="preserve">
<circle fill="#E3EFD5" cx="83.2" cy="82.3" r="74.5"/>
<circle fill="#FFFFFF" cx="83.4" cy="82.3" r="42.4"/>
<circle fill="#FFFFFF" cx="84.4" cy="82.3" r="19.1"/>
<circle fill="#E3EFD5" cx="84.4" cy="82.3" r="19.1"/>
<circle fill="none" stroke="#81B441" stroke-width="4" stroke-miterlimit="10" cx="84.4" cy="82.3" r="42.4"/>
<circle fill="none" stroke="#81B441" stroke-width="4" stroke-miterlimit="10" cx="84.4" cy="82.3" r="20.5"/>
<line fill="none" stroke="#81B441" stroke-width="4" stroke-miterlimit="10" x1="76.2" y1="63.1" x2="76.2" y2="39.9"/>
<line fill="none" stroke="#81B441" stroke-width="4" stroke-miterlimit="10" x1="92.6" y1="63.1" x2="92.6" y2="39.9"/>
<line fill="none" stroke="#81B441" stroke-width="4" stroke-miterlimit="10" x1="76.2" y1="124.6" x2="76.2" y2="101.4"/>
<line fill="none" stroke="#81B441" stroke-width="4" stroke-miterlimit="10" x1="92.6" y1="124.6" x2="92.6" y2="101.4"/>
<line fill="none" stroke="#81B441" stroke-width="4" stroke-miterlimit="10" x1="103.6" y1="74.1" x2="126.8" y2="74.1"/>
<line fill="none" stroke="#81B441" stroke-width="4" stroke-miterlimit="10" x1="103.6" y1="90.5" x2="126.8" y2="90.5"/>
<line fill="none" stroke="#81B441" stroke-width="4" stroke-miterlimit="10" x1="42.1" y1="74.1" x2="65.3" y2="74.1"/>
<line fill="none" stroke="#81B441" stroke-width="4" stroke-miterlimit="10" x1="42.1" y1="90.5" x2="65.3" y2="90.5"/>
<g>
	<path fill="#FFFFFF" d="M60.4,99.4c-0.7-0.5-2.9-0.7-5.8-0.4c-5.2,2.3-9.9,6.3-11.6,13.7c-0.1,0.2-0.5-0.1-0.6-0.2
		c-0.8-2.6-0.8-5.2,0.9-8.6c0.2-0.3-0.3-0.9-0.5-0.7c-0.2,0.2-1.4,1-2.3,2.1c-4.2,4.9-3.3,12.2,1.6,16.3c5,4.1,12.2,3.3,16.3-1.6
		C63.4,114.2,62.3,100.9,60.4,99.4z"/>
</g>
<path opacity="0.22" fill="#81B441" d="M65.3,101.6c-0.8-0.6-3.4-0.8-6.6-0.4c-5.9,2.7-11.4,7.2-13.3,15.7c-0.1,0.2-0.5-0.1-0.6-0.2
	c-0.9-3-1-6,1-9.9c0.3-0.3-0.4-1-0.5-0.8c-0.3,0.2-1.6,1.2-2.6,2.4c-4.8,5.6-3.8,14.1,1.8,18.7c5.7,4.7,14.1,3.8,18.7-1.8
	C68.6,118.6,67.4,103.4,65.3,101.6z"/>
<g>
	<path fill="#81B441" d="M57.4,98.8c1.5,0,2.6,0.2,3.1,0.5c1.9,1.5,2.9,14.8-1.9,20.6c-2.3,2.8-5.6,4.2-8.9,4.2
		c-2.6,0-5.2-0.9-7.4-2.6c-4.9-4.1-5.7-11.4-1.6-16.3c0.9-1,2-1.9,2.3-2.1c0,0,0,0,0.1,0c0.2,0,0.6,0.5,0.4,0.7
		c-1.7,3.4-1.7,6-0.9,8.6c0.1,0.1,0.3,0.3,0.4,0.3c0,0,0.1,0,0.1-0.1c1.6-7.4,6.4-11.4,11.6-13.7C55.7,98.9,56.6,98.8,57.4,98.8
		 M57.4,94.8c-1,0-2.1,0.1-3.2,0.2c-0.4,0.1-0.8,0.2-1.1,0.3c-2.9,1.3-5.3,2.9-7.3,4.8c-0.7-0.6-1.6-1-2.7-1c-0.9,0-1.8,0.3-2.5,0.8
		c-0.6,0.4-1.8,1.4-2.9,2.7c-2.7,3.1-3.9,7.1-3.6,11.2c0.4,4.2,2.4,8.1,5.6,10.7c2.8,2.3,6.3,3.6,9.9,3.6c4.7,0,9-2.1,12-5.7
		c2.6-3.2,5.1-9.8,4.2-18.7c-0.5-5.1-1.9-6.8-2.9-7.6c0,0-0.1-0.1-0.1-0.1C62.1,95.6,60.7,94.8,57.4,94.8L57.4,94.8z"/>
</g>
</svg>
