<?xml version="1.0" encoding="utf-8"?>
<!-- Generator: Adobe Illustrator 19.2.1, SVG Export Plug-In . SVG Version: 6.00 Build 0)  -->
<svg version="1.0" id="Layer_1" xmlns="http://www.w3.org/2000/svg" xmlns:xlink="http://www.w3.org/1999/xlink" x="0px" y="0px"
	 viewBox="0 0 165 165" enable-background="new 0 0 165 165" xml:space="preserve">
<circle fill="#E3EFD5" cx="82.2" cy="82.3" r="74.5"/>
<rect x="53.7" y="39.9" fill="#FFFFFF" width="61.8" height="84.7"/>
<rect x="53.7" y="39.9" fill="#FFFFFF" width="61.8" height="84.7"/>
<rect x="62.6" y="49.7" fill="none" stroke="#81B441" stroke-width="3.5" stroke-miterlimit="10" width="44" height="12.5"/>
<rect x="62.6" y="69.8" fill="none" stroke="#81B441" stroke-width="3" stroke-miterlimit="10" width="6.6" height="6.6"/>
<rect x="75.1" y="69.8" fill="none" stroke="#81B441" stroke-width="3" stroke-miterlimit="10" width="6.6" height="6.6"/>
<rect x="87.5" y="69.8" fill="none" stroke="#81B441" stroke-width="3" stroke-miterlimit="10" width="6.6" height="6.6"/>
<rect x="100" y="69.8" fill="none" stroke="#81B441" stroke-width="3" stroke-miterlimit="10" width="6.6" height="6.6"/>
<rect x="62.6" y="82.3" fill="none" stroke="#81B441" stroke-width="3" stroke-miterlimit="10" width="6.6" height="6.6"/>
<rect x="75.1" y="82.3" fill="none" stroke="#81B441" stroke-width="3" stroke-miterlimit="10" width="6.6" height="6.6"/>
<rect x="87.5" y="82.3" fill="none" stroke="#81B441" stroke-width="3" stroke-miterlimit="10" width="6.6" height="6.6"/>
<rect x="100" y="82.3" fill="none" stroke="#81B441" stroke-width="3" stroke-miterlimit="10" width="6.6" height="6.6"/>
<rect x="62.6" y="94.7" fill="none" stroke="#81B441" stroke-width="3" stroke-miterlimit="10" width="6.6" height="6.6"/>
<rect x="75.1" y="94.7" fill="none" stroke="#81B441" stroke-width="3" stroke-miterlimit="10" width="6.6" height="6.6"/>
<rect x="87.5" y="94.7" fill="none" stroke="#81B441" stroke-width="3" stroke-miterlimit="10" width="6.6" height="6.6"/>
<rect x="62.6" y="107.2" fill="none" stroke="#81B441" stroke-width="3" stroke-miterlimit="10" width="6.6" height="6.6"/>
<rect x="75.1" y="107.2" fill="none" stroke="#81B441" stroke-width="3" stroke-miterlimit="10" width="6.6" height="6.6"/>
<rect x="87.5" y="107.2" fill="none" stroke="#81B441" stroke-width="3" stroke-miterlimit="10" width="6.6" height="6.6"/>
<rect x="100" y="95.6" fill="none" stroke="#81B441" stroke-width="3" stroke-miterlimit="10" width="6.6" height="18.2"/>
<rect x="53.7" y="39.9" fill="none" stroke="#81B441" stroke-width="3.5" stroke-linejoin="round" stroke-miterlimit="10" width="61.8" height="84.7"/>
<g>
	<g>
		<path fill="#FFFFFF" d="M59.2,88.4c-0.7-0.6-3.1-0.8-6.1-0.4c-5.4,2.4-10.5,6.6-12.2,14.4c-0.1,0.2-0.5-0.1-0.6-0.2
			c-0.9-2.8-0.9-5.5,0.9-9.1c0.3-0.3-0.4-0.9-0.5-0.7c-0.2,0.2-1.4,1.1-2.4,2.2c-4.4,5.1-3.5,12.9,1.7,17.2
			c5.3,4.3,12.9,3.5,17.2-1.7C62.2,104,61.2,90,59.2,88.4z"/>
	</g>
	<path opacity="0.22" fill="#81B441" d="M64.2,90.8c-0.8-0.6-3.5-0.9-7-0.4c-6.3,2.8-12,7.6-14,16.6c-0.2,0.2-0.6-0.1-0.7-0.2
		c-1-3.2-1-6.3,1.1-10.4c0.3-0.3-0.4-1-0.6-0.8c-0.3,0.2-1.7,1.3-2.7,2.5c-5,5.9-4,14.8,1.9,19.7c6,4.9,14.8,4,19.7-1.9
		C67.8,108.6,66.5,92.6,64.2,90.8z"/>
	<g>
		<path fill="#81B441" d="M55.9,87.8c1.6,0,2.8,0.2,3.2,0.6c2,1.6,3.1,15.6-2,21.7c-2.4,2.9-5.9,4.4-9.4,4.4c-2.7,0-5.5-0.9-7.8-2.8
			c-5.2-4.3-6-12-1.7-17.2c0.9-1.1,2.1-2,2.4-2.2c0,0,0,0,0.1,0c0.2,0,0.6,0.5,0.4,0.7c-1.8,3.6-1.8,6.3-0.9,9.1
			c0.1,0.1,0.3,0.3,0.5,0.3c0.1,0,0.1,0,0.1-0.1c1.7-7.8,6.8-12,12.2-14.4C54.1,87.9,55.1,87.8,55.9,87.8 M55.9,83.8
			c-1.1,0-2.2,0.1-3.4,0.2c-0.4,0.1-0.8,0.2-1.1,0.3c-3.1,1.4-5.7,3.1-7.8,5.1c-0.7-0.7-1.7-1.1-2.9-1.1c-0.9,0-1.8,0.3-2.5,0.8
			c-0.6,0.4-1.9,1.5-3,2.8c-2.8,3.3-4.1,7.4-3.7,11.7c0.4,4.3,2.5,8.4,5.9,11.2c2.9,2.4,6.6,3.7,10.3,3.7c4.9,0,9.4-2.1,12.5-5.9
			c2.7-3.3,5.3-10.2,4.4-19.5c-0.5-5.3-2-7-3-7.9c0,0-0.1-0.1-0.1-0.1C60.8,84.6,59.3,83.8,55.9,83.8L55.9,83.8z"/>
	</g>
</g>
</svg>
