<svg id="Capa_1" enable-background="new 0 0 512 512" height="512" viewBox="0 0 512 512" width="512" xmlns="http://www.w3.org/2000/svg"><g><ellipse cx="256" cy="153.494" fill="#8de1ce" rx="153.286" ry="135.277"/><path d="m385.715 225.59c-242.5-10.565-223.255-151.718-184.81-198.363-57.435 19.531-98.191 68.695-98.191 126.266 0 74.711 68.629 135.277 153.286 135.277 54.624.001 102.567-25.219 129.715-63.18z" fill="#58d1b4"/><g><g fill="#fff"><ellipse cx="175.276" cy="121.374" rx="29.785" ry="23.72"/><ellipse cx="336.724" cy="121.374" rx="29.785" ry="23.72"/></g><g fill="#4e5660"><path d="m206.812 103.062c-4.143 0-7.5-3.358-7.5-7.5 0-3.682-2.996-6.677-6.678-6.677s-6.677 2.996-6.677 6.677c0 4.142-3.357 7.5-7.5 7.5s-7.5-3.358-7.5-7.5c0-11.953 9.725-21.677 21.677-21.677 11.953 0 21.678 9.725 21.678 21.677 0 4.143-3.357 7.5-7.5 7.5z"/><path d="m333.542 103.062c-4.143 0-7.5-3.358-7.5-7.5 0-3.682-2.995-6.677-6.677-6.677s-6.678 2.996-6.678 6.677c0 4.142-3.357 7.5-7.5 7.5s-7.5-3.358-7.5-7.5c0-11.953 9.725-21.677 21.678-21.677 11.952 0 21.677 9.725 21.677 21.677 0 4.143-3.357 7.5-7.5 7.5z"/><path d="m256 126.484c-7.932 0-15.474-3.435-20.692-9.424-2.722-3.123-2.396-7.86.727-10.582 3.124-2.721 7.859-2.396 10.582.727 2.37 2.719 5.79 4.279 9.384 4.279s7.014-1.56 9.384-4.279c2.721-3.124 7.457-3.448 10.582-.727 3.122 2.721 3.448 7.459.727 10.582-5.22 5.989-12.762 9.424-20.694 9.424z"/></g></g><path d="m447.107 493.783h-382.214c-20.878 0-37.802-16.925-37.802-37.802v-255.801c0-20.877 16.924-37.802 37.802-37.802h382.213c20.878 0 37.802 16.925 37.802 37.802v255.801c.001 20.877-16.924 37.802-37.801 37.802z" fill="#8daee1"/><path d="m442.875 379.964c-8.625-16.632-2.135-37.107 14.497-45.733 17.974-9.322 22.813-13.595 27.537-28.416v88.388c-15.531 6.633-34.013 1.226-42.034-14.239z" fill="#6a95d6"/><path d="m69.125 379.964c8.626-16.632 2.135-37.107-14.497-45.733-17.975-9.322-22.813-13.595-27.537-28.416v88.388c15.531 6.633 34.013 1.226 42.034-14.239z" fill="#6a95d6"/><g fill="#f4c8d2"><path d="m168.427 213.122c4.143 0 7.5-3.358 7.5-7.5s-3.357-7.5-7.5-7.5h-38.177c-4.143 0-7.5 3.358-7.5 7.5v94.192c0 4.142 3.357 7.5 7.5 7.5s7.5-3.358 7.5-7.5v-40.488h27.644c4.143 0 7.5-3.358 7.5-7.5s-3.357-7.5-7.5-7.5h-27.644v-31.204z"/><path d="m358.153 261.652c17.358-1.212 31.097-15.125 31.097-32.064 0-17.733-15.053-32.16-33.556-32.16-1.643 0-26.856 0-25.245 0-4.143 0-7.5 3.358-7.5 7.5v94.887c0 4.142 3.357 7.5 7.5 7.5s7.5-3.358 7.5-7.5v-37.999c.122-.001.241-.001.365-.002l37.806 42.956c1.482 1.685 3.553 2.545 5.633 2.545 6.38 0 9.911-7.587 5.627-12.455zm-20.204-14.837v-34.388h17.745c10.059 0 18.556 7.858 18.556 17.16s-8.497 17.16-18.556 17.16c-4.065.001-11.905.037-17.745.068z"/><path d="m247.738 307.314c-30.297 0-54.944-24.647-54.944-54.944 0-30.296 24.648-54.943 54.944-54.943s54.943 24.648 54.943 54.943c.001 30.297-24.647 54.944-54.943 54.944zm0-94.887c-22.025 0-39.944 17.919-39.944 39.943s17.919 39.944 39.944 39.944c22.024 0 39.943-17.919 39.943-39.944s-17.918-39.943-39.943-39.943z"/></g><g><path d="m177.279 341.915c-3.471-2.258-8.116-1.278-10.377 2.194l-25.43 39.064-25.678-39.326c-2.267-3.469-6.914-4.444-10.381-2.179-3.468 2.265-4.444 6.912-2.18 10.38l30.742 47.081-.119 48.879c-.01 4.142 3.34 7.508 7.481 7.519h.019c4.134 0 7.49-3.346 7.5-7.482l.12-48.906 30.496-46.847c2.26-3.472 1.279-8.118-2.193-10.377z" fill="#fff"/><g><path d="m340.607 449.071c-12.895-8.238-19.162-18.79-19.162-32.258v-68.866c0-4.142 3.357-7.5 7.5-7.5s7.5 3.358 7.5 7.5v68.866c0 8.27 3.66 14.137 12.238 19.618 8.25 5.271 19.355 5.251 27.568 1.115 10.053-5.063 14.734-11.673 14.734-20.805v-68.793c0-4.142 3.357-7.5 7.5-7.5s7.5 3.358 7.5 7.5v68.793c0 10.321-3.988 24.634-22.988 34.202-12.732 6.411-29.481 6.375-42.39-1.872z" fill="#fff"/></g><path d="m243.027 455.526c-31.727 0-57.54-25.813-57.54-57.54 0-31.728 25.813-57.54 57.54-57.54 31.728 0 57.539 25.812 57.539 57.54s-25.811 57.54-57.539 57.54zm0-100.079c-23.457 0-42.54 19.083-42.54 42.54s19.083 42.54 42.54 42.54c23.456 0 42.539-19.083 42.539-42.54s-19.083-42.54-42.539-42.54z" fill="#fff"/></g><g fill="#8de1ce"><path d="m23.392 361.471c-17.095-9.814-25.382-25.632-22.987-53.204 1.362-15.678 10.322-28.158 26.686-33.351 4.723 14.821 9.562 19.094 27.537 28.416 16.632 8.626 23.123 29.101 14.497 45.733-8.669 16.714-29.558 21.692-45.733 12.406z"/><path d="m488.608 361.471c17.095-9.814 25.382-25.632 22.986-53.204-1.362-15.678-10.322-28.158-26.686-33.351-4.723 14.821-9.562 19.094-27.537 28.416-16.632 8.626-23.123 29.101-14.497 45.733 8.67 16.714 29.559 21.692 45.734 12.406z"/></g></g></svg>