<svg width="96" height="20" viewBox="0 0 96 20" fill="none" xmlns="http://www.w3.org/2000/svg">
<path d="M0 0H96V7.99994C96 14.6274 90.6274 19.9999 84 19.9999H12C5.37258 19.9999 0 14.6274 0 7.99994V0Z" fill="#2690FF"/>
<path d="M15.1146 14H13.4466V5.492H18.8226V7.064H15.1026V9.164H18.4146V10.688H15.1146V14ZM27.0129 14H21.6849V5.492H27.0129V7.052H23.3409V8.996H26.6649V10.472H23.3409V12.44H27.0129V14ZM35.9413 14L35.2333 12.056H31.7773L31.0693 14H29.3173L32.5813 5.492H34.5013L37.7413 14H35.9413ZM33.5053 7.328L32.3293 10.544H34.6813L33.5053 7.328ZM45.8083 7.064H43.1203V14H41.4523V7.064H38.7643V5.492H45.8083V7.064ZM51.6891 14.192C50.7451 14.192 49.9651 13.912 49.3491 13.352C48.7331 12.784 48.4251 11.996 48.4251 10.988V5.492H50.0811V10.868C50.0811 11.42 50.2211 11.844 50.5011 12.14C50.7891 12.428 51.1851 12.572 51.6891 12.572C52.2011 12.572 52.5971 12.428 52.8771 12.14C53.1651 11.844 53.3091 11.42 53.3091 10.868V5.492H54.9651V10.988C54.9651 11.996 54.6571 12.784 54.0411 13.352C53.4251 13.912 52.6411 14.192 51.6891 14.192ZM62.5294 14L60.8614 10.724H59.9974V14H58.3294V5.492H61.6534C62.4694 5.492 63.1254 5.74 63.6214 6.236C64.1174 6.732 64.3654 7.356 64.3654 8.108C64.3654 8.7 64.2014 9.212 63.8734 9.644C63.5534 10.068 63.1134 10.36 62.5534 10.52L64.3774 14H62.5294ZM59.9974 9.296H61.3414C61.7574 9.296 62.0814 9.188 62.3134 8.972C62.5534 8.756 62.6734 8.472 62.6734 8.12C62.6734 7.76 62.5534 7.472 62.3134 7.256C62.0814 7.04 61.7574 6.932 61.3414 6.932H59.9974V9.296ZM72.6574 14H67.3294V5.492H72.6574V7.052H68.9854V8.996H72.3094V10.472H68.9854V12.44H72.6574V14ZM77.4698 12.464H78.7898C79.5338 12.464 80.1458 12.232 80.6258 11.768C81.1058 11.304 81.3458 10.632 81.3458 9.752C81.3458 8.872 81.1058 8.2 80.6258 7.736C80.1458 7.264 79.5378 7.028 78.8018 7.028H77.4698V12.464ZM78.8498 14H75.8138V5.492H78.8618C80.1018 5.492 81.1098 5.872 81.8858 6.632C82.6698 7.392 83.0618 8.432 83.0618 9.752C83.0618 11.064 82.6698 12.1 81.8858 12.86C81.1018 13.62 80.0898 14 78.8498 14Z" fill="white"/>
</svg>
