<svg xmlns="http://www.w3.org/2000/svg" xmlns:xlink="http://www.w3.org/1999/xlink" width="20" height="20" preserveAspectRatio="xMidYMid meet" viewBox="0 0 20 20" style="-ms-transform: rotate(360deg); -webkit-transform: rotate(360deg); transform: rotate(360deg);"><path d="M10 2c4.42 0 8 3.58 8 8s-3.58 8-8 8s-8-3.58-8-8s3.58-8 8-8zm1.13 9.38l.35-6.46H8.52l.35 6.46h2.26zm-.09 3.36c.24-.23.37-.55.37-.96c0-.42-.12-.74-.36-.97s-.59-.35-1.06-.35s-.82.12-1.07.35s-.37.55-.37.97c0 .41.13.73.38.96c.26.23.61.34 1.06.34s.8-.11 1.05-.34z" fill="#18B394"/><rect x="0" y="0" width="20" height="20" fill="rgba(0, 0, 0, 0)" /></svg>