<?xml version="1.0" encoding="UTF-8" standalone="no"?>
<svg width="198px" height="49px" viewBox="0 0 198 49" version="1.1" xmlns="http://www.w3.org/2000/svg" xmlns:xlink="http://www.w3.org/1999/xlink">
    <!-- Generator: Sketch 44.1 (41455) - http://www.bohemiancoding.com/sketch -->
    <title>zerex 9.03.51</title>
    <desc>Created with Sketch.</desc>
    <defs></defs>
    <g id="desktop-new" stroke="none" stroke-width="1" fill="none" fill-rule="evenodd">
        <g id="zerex-9.03.51" fill-rule="nonzero" fill="#000000">
            <path d="M82.2939,30.7643 L64.2399,30.7643 L82.0119,18.6393 C82.4029,18.3573 82.6949,18.0483 82.8789,17.7213 C83.0739,17.3783 83.1719,17.0213 83.1719,16.6563 C83.1719,16.1043 82.9299,15.5963 82.4539,15.1453 C81.9869,14.7073 81.3749,14.4853 80.6319,14.4853 L59.7749,14.4853 C58.5669,14.4853 57.9019,15.1373 57.9019,16.3223 C57.9019,17.5073 58.5669,18.1603 59.7749,18.1603 L76.0639,18.1603 L58.3539,30.3273 C57.9589,30.6213 57.6589,30.8893 57.4379,31.1483 C57.1809,31.4533 57.0509,31.8313 57.0509,32.2713 C57.0509,32.8823 57.3079,33.4133 57.8179,33.8493 C58.3099,34.2663 58.9309,34.4773 59.6629,34.4773 L82.2939,34.4773 C83.4549,34.4773 84.0939,33.8123 84.0939,32.6043 C84.0939,31.4173 83.4549,30.7643 82.2939,30.7643" id="Fill-1"></path>
            <path d="M103.5582,14.4853 L95.9872,14.4853 C89.3302,14.4853 85.9552,16.5933 85.9552,20.7533 L85.9552,28.1373 C85.9552,32.3443 89.3682,34.4783 96.0992,34.4783 L107.8082,34.4783 C109.0172,34.4783 109.6822,33.8123 109.6822,32.6043 C109.6822,31.4183 109.0172,30.7653 107.8082,30.7653 L95.1772,30.7653 C91.8882,30.7653 90.2202,30.0293 90.2202,28.5783 L90.2202,26.5783 L110.0942,26.5783 C111.3732,26.5783 112.0772,25.8733 112.0772,24.5923 L112.0772,20.0153 C112.0772,16.3463 109.2112,14.4853 103.5582,14.4853 L103.5582,14.4853 Z M90.2202,20.5333 C90.2202,18.9593 91.8882,18.1603 95.1772,18.1603 L104.2602,18.1603 C107.8872,18.1603 107.8872,19.8063 107.8872,20.3463 L107.8872,22.7923 L90.2202,22.7923 L90.2202,20.5333 Z" id="Fill-3"></path>
            <path d="M160.4226,14.4853 L152.8516,14.4853 C146.1936,14.4853 142.8186,16.5933 142.8186,20.7533 L142.8186,28.1373 C142.8186,32.3443 146.2316,34.4783 152.9626,34.4783 L164.6726,34.4783 C165.8816,34.4783 166.5476,33.8123 166.5476,32.6043 C166.5476,31.4183 165.8816,30.7653 164.6726,30.7653 L152.0416,30.7653 C148.7526,30.7653 147.0846,30.0293 147.0846,28.5783 L147.0846,26.5783 L166.9576,26.5783 C168.2376,26.5783 168.9426,25.8733 168.9426,24.5923 L168.9426,20.0153 C168.9426,16.3463 166.0766,14.4853 160.4226,14.4853 L160.4226,14.4853 Z M147.0846,20.5333 C147.0846,18.9593 148.7526,18.1603 152.0416,18.1603 L161.1256,18.1603 C164.7526,18.1603 164.7526,19.8063 164.7526,20.3463 L164.7526,22.7923 L147.0846,22.7923 L147.0846,20.5333 Z" id="Fill-5"></path>
            <path d="M196.6845,31.1432 L188.0505,24.4842 L196.6885,17.9242 C196.9805,17.6962 197.1905,17.4522 197.3125,17.2042 C197.4385,16.9592 197.5105,16.7162 197.5405,16.4282 C197.5405,15.8902 197.3465,15.3992 196.9615,14.9692 C196.5665,14.5262 196.0565,14.3022 195.4465,14.3022 C194.9315,14.3022 194.4645,14.4842 194.1005,14.8232 L184.7025,21.9872 L175.3895,14.8672 C175.1835,14.6602 174.9315,14.5232 174.6395,14.4592 C174.3875,14.4022 174.1775,14.3742 173.9975,14.3742 C173.4495,14.3742 172.9675,14.5652 172.5655,14.9422 C172.1485,15.3252 171.9375,15.8272 171.9375,16.4332 C171.9375,17.0372 172.2275,17.5422 172.7945,17.9302 L181.3905,24.4842 L172.7875,31.1472 C172.3225,31.5202 172.0875,31.9732 172.0875,32.4932 C172.0875,33.0302 172.2715,33.5292 172.6355,33.9772 C173.0175,34.4562 173.4885,34.6982 174.0345,34.6982 C174.4795,34.6982 174.8715,34.5422 175.1565,34.2542 L184.7025,27.0462 L194.3005,34.2342 C194.6985,34.5722 195.0725,34.7362 195.4465,34.7362 C195.9875,34.7362 196.4585,34.4942 196.8475,34.0152 C197.2105,33.5612 197.3935,33.0482 197.3935,32.4932 C197.3935,31.9742 197.1555,31.5202 196.6845,31.1432" id="Fill-7"></path>
            <path d="M131.3642,14.4273 L125.5022,14.4273 C118.8442,14.4273 115.4692,16.5353 115.4692,20.6953 L115.4692,32.6043 C115.4692,33.3033 115.7482,34.4783 117.6212,34.4783 C119.4572,34.4783 119.7302,33.3033 119.7302,32.6043 L119.7302,31.5863 L119.7352,31.5893 L119.7352,20.4733 C119.7352,18.9013 121.4032,18.1033 124.6902,18.1033 L132.0652,18.1033 C135.6912,18.1033 135.6912,19.7503 135.6912,20.2923 L135.6932,20.5813 C135.6932,21.2823 135.9672,22.4563 137.8072,22.4563 C139.1472,22.4563 139.8842,21.7903 139.8842,20.5813 L139.8842,19.9593 C139.8842,16.2883 137.0182,14.4273 131.3642,14.4273" id="Fill-9"></path>
            <path d="M45.938,0 C46.899,0 47.679,0.78 47.679,1.741 L47.679,47.162 C47.679,48.123 46.899,48.904 45.938,48.904 L1.741,48.904 C0.781,48.904 0,48.123 0,47.162 L0,1.741 C0,0.78 0.781,0 1.741,0 L45.938,0 Z M3.401,45.351 L44.281,45.351 L44.281,3.554 L3.401,3.554 L3.401,45.351 Z" id="Fill-11"></path>
            <path d="M10.0286,37.4845 C9.4866,38.1495 9.3326,38.9015 9.6156,39.4975 C9.9036,40.1045 10.5936,40.4525 11.5096,40.4525 L27.6406,40.4525 C28.9256,40.3725 29.4836,39.4275 29.4566,38.5845 C29.4326,37.7805 28.8516,36.9155 27.6346,36.9155 L14.9686,36.9155 L23.7076,27.1095 L34.5406,39.4345 C35.3316,40.3305 36.4516,40.1745 37.1536,39.5585 C37.7646,39.0215 38.0876,38.0605 37.3516,37.2205 L26.1036,24.4245 L37.6096,11.5145 C38.1856,10.7875 38.3536,9.9935 38.0616,9.3885 C37.7686,8.7835 37.0826,8.4505 36.1276,8.4505 L20.7246,8.4505 C19.5156,8.5305 18.9926,9.4365 19.0196,10.2465 C19.0446,11.0145 19.5916,11.8415 20.7306,11.8415 L32.4746,11.8415 L23.7786,21.7785 L12.8986,9.4015 C12.1076,8.5065 10.9876,8.6605 10.2866,9.2765 C9.6756,9.8135 9.3536,10.7745 10.0886,11.6135 L21.4056,24.4885 L10.0306,37.4825 L10.0286,37.4845 Z" id="Fill-13"></path>
        </g>
    </g>
</svg>